<?xml version="1.0" standalone="no"?>
<!DOCTYPE svg PUBLIC "-//W3C//DTD SVG 1.1//EN" "http://www.w3.org/Graphics/SVG/1.1/DTD/svg11.dtd" >
<svg xmlns="http://www.w3.org/2000/svg">
<metadata>
Created by FontPrep 20130207 at Wed May 30 08:55:40 2018
 By joseph waine
Copyright (c) 2017 by Ieva Mezule &#38; Krisjanis Mezulis Wildones. All rights reserved.
</metadata>
<defs>
<font id="2c9aeca0392e5036d815dd3364379580" horiz-adv-x='1024' >
  <font-face 
    font-family="Leafy"
    font-weight="400"
    font-stretch="normal"
    units-per-em="2048"
    panose-1="2 0 5 8 0 0 0 2 0 4"
    ascent="1536"
    descent="-512"
    x-height="1300"
    cap-height="1415"
    bbox="-19 -528.5 1276 1745.73"
    underline-thickness="102"
    underline-position="-102"
    unicode-range="U+000D-201A"
  />
<missing-glyph horiz-adv-x="1024" 
 />
    <glyph glyph-name=".notdef" horiz-adv-x="1024" 
 />
    <glyph glyph-name=".null" horiz-adv-x="0" 
 />
    <glyph glyph-name="nonmarkingreturn" horiz-adv-x="681" 
 />
    <glyph glyph-name="NULL" horiz-adv-x="0" 
 />
    <glyph glyph-name="NULL" horiz-adv-x="0" 
 />
    <glyph glyph-name="CR" unicode="&#xd;" 
 />
    <glyph glyph-name="space" unicode=" " 
 />
    <glyph glyph-name="exclam" unicode="!" horiz-adv-x="321" 
d="M119 1133h-2l4 4zM150 756l4 -8q-2 -2 -2 -5q-4 4 -5 9q3 2 3 4zM109 655v-2q-2 0 -3 2h3zM106 776l-6 -6l2 -2q0 2 2 4t2 4zM102 883h9q0 2 -2 4l-3 -2q-4 0 -4 -2zM106 895h-4l2 -2zM94 922q0 -6 12 6l-2 2q-10 4 -10 -8zM96 954q-2 0 -4 -2q4 0 6 -2zM82 1110l2 -2
l2 4h-2zM80 1288q0 2 2 2h-2v-2zM80 1403q0 -2 2 -4v2l2 4v4zM84 1366q4 0 3 3t-1 7l-4 -8zM90 1331l-2 -2l2 -2q2 0 4 2l-2 2h-2zM90 1350q2 -2 2 -4q2 4 6 8v2q-4 -2 -8 -6zM100 1448l-4 -4h2l4 4h-2zM102 1397v2l-2 -2h2zM102 1337q0 -2 2 -2l2 2h-4zM98 1389h2v2
q-2 0 -2 -2zM100 1217q-2 0 -2 -3v-2l2 2v3zM113 1186l-7 12q-6 -2 -8 -8q10 0 8 -14zM111 1395v2l-2 -2h2zM109 1421q0 -2 2 -6l4 8l-2 2zM119 1339h-2v-2q0 2 2 2zM119 1198h-2q2 0 2 -2v2zM121 1448l-2 -2l2 -2l2 2zM123 1371q0 1 -2 1l2 -2v1zM125 1300q0 -2 2 -2v2h-2z
M129 1396q0 -3 2 -5l4 4q-4 4 -4 6q-2 -2 -2 -5zM135 1450h4l-4 2v-2zM143 1442v12l-4 -4v-10zM154 1155q-2 0 -6 2t-7 -2q5 -4 9 -4t4 4zM147 1196h-2q2 0 2 -2v2zM152 1305q0 -2 -2 -2l2 -3l2 3zM156 1397q0 -2 1 -3l1 -3l2 6v2l-2 2zM160 1194l2 2l-2 4v-6zM164 1309
l2 -2q0 2 -2 2zM166 1249q0 2 2 2h-2v-2zM168 1327v2q-2 0 -2 -2h2zM172 1096q0 -6 -2 -6l-2 -5l8 9q-4 8 -4 2zM176 1024q4 14 -8 23q-2 0 -8 -7q2 -2 4 -5t6 -6t6 -5zM180 922q-2 0 -4 -2l2 -2l2 -3l4 5l-2 2h-2zM188 911l-2 2l-4 -4l2 -2zM188 1053v-6q2 2 2 4q-2 0 -2 2
zM188 1401v-2q2 0 2 2h-2zM188 866q2 0 1 1t-1 3l-2 -2zM188 879q2 0 1 1t-1 3l-2 -2zM193 758l-3 2q-2 -2 -6 -8l2 -2q1 0 7 8zM195 1034h-5l3 -2q2 0 2 2zM196 963q1 0 1 -2l4 4q-2 2 -2 4l-4 -4q0 -2 1 -2zM197 860h-4l2 -2q0 2 2 2zM195 741q2 0 6 4l-2 3l-6 -7h2z
M205 709v2h-6q-2 0 -2 -4q2 2 4 2h4zM205 850q0 -2 2 -4v4h-2zM207 934l-2 -2q2 0 2 -2l2 2zM211 956l-2 -2q2 0 2 -2l2 2zM213 926v-4l2 2zM219 989h-2l2 -2v2zM221 721q0 4 -2 6q-4 -4 -4 -6l4 -4l2 2v2zM223 926q-2 0 -2 -2h2v2zM223 748h2q0 4 4 12q-4 0 -6 2v-14z
M66 1274q0 26 -2 76t18 90q10 16 26 16t44 8q14 0 21 1t12 -10t5 -16t12 -74t11 -153q0 -84 2 -98l-2 2q4 -27 8 -92l6 -55q0 -8 -4 -11l-4 -8l6 2q4 -4 6 -62t7 -112l-2 -2q-5 4 -7 4v-4q2 -2 2 -4l5 4q18 -205 15 -309t-11 -110q-8 -7 -20 -4t-15 3q-41 0 -63 29t-22 42
t-4 81q-5 68 -5 106q-6 10 0 17q-4 4 0 16t-5 17q-2 4 -2 7t-2 18t11 28q-20 47 -11 69v5q-5 16 -4 20q-6 0 -5 11q1 10 -1 22t-2 53l8 14q-10 2 -10 21l2 35q0 33 -7 69t-8 64t-1 71t-3 55t3 19q-8 3 -8 29zM223 674v2h-2q2 0 2 -2zM213 918h-2l2 -3v3zM207 690q0 -2 2 -2
v2q0 2 -2 4v-4zM209 707l-2 -2q2 0 2 2zM207 858v-2h4l-2 2h-2zM203 555v-4h2q0 4 -2 4zM197 664l4 -5l2 5l-2 2l-2 -2h-2zM209 371q6 4 0 7t-4 5l-2 2h-4q-2 -10 10 -14zM184 723q2 -4 6 -8l5 4q-7 7 -7 10zM190 635v2q0 -2 -2 -2h2zM178 733l2 2h-2l-2 -2q2 -2 2 0z
M176 870v-4q0 2 2 4l-1 2q-1 0 -1 -2zM172 827l4 4l-2 5l-4 -5q-2 0 2 -4zM174 401h-2l-4 2q0 -2 2 -2t4 -2v2zM160 391q2 0 4 2q-2 0 -4 2v-4zM154 463v-2l2 2h-2zM152 508v-4l2 2zM141 434q8 0 9 15v4l-5 2q-21 -21 -4 -21zM133 418q4 0 10 6l-4 4q-6 -2 -8 -8zM129 436h2
l-2 4l-2 -2q0 -2 2 -2zM123 471q0 -4 -1 -6t1 -3t6 1t-2 8h2q-4 4 -4 6q-2 -2 -2 -6zM119 483v-2l4 4q0 2 -2 4q-2 -2 -2 -6zM117 512h2l-2 2v-2zM119 561l1 4q-1 0 -1 2l-2 -4q0 -2 2 -2zM119 596v-4l2 2q0 2 -2 2zM123 520h-2v-2q2 0 2 2zM125 629l-10 -25l4 -4
q8 12 14 18q-4 7 -8 11zM113 707l4 -5v3l-2 2v2zM111 672l2 2l-2 2l-2 -2zM111 784v-2l2 2h-2zM106 815l-2 -4q2 -2 7 -8l6 6q-6 6 -11 6zM109 825q2 0 4 2h-4l-3 -2h3zM111 901h2q0 2 2 2l-2 2q-2 -2 -2 -4zM123 1067v4l-2 2l-4 -4l2 -2q0 -2 2 -4q0 2 2 4zM147 1108v2
l-2 -2h2zM172 889l2 -2l4 4l-2 2zM174 901l-2 -2q2 0 2 2zM160 940q2 -2 9 1t7 7l-12 -6q-4 4 -6 4q2 -2 2 -6zM160 717v2l-2 -2h2zM147 600l7 6l-2 2l-7 -6q0 -2 2 -2zM147 494v-5q2 1 2 3t-2 2zM137 645q2 0 2 2h-2v-2zM137 528v-4l2 4h-2zM135 549v-2l2 2v4q-2 -2 -2 -4z
M141 696h-8l2 -2q4 0 6 2zM145 676l2 2q0 2 -2 2l-2 -2zM145 625q0 2 -2 2v-2l2 -2v2zM147 582q-2 2 -3 1t-3 -1l2 -2l2 2h2zM147 713h-4q-8 -4 -10 -4l2 -4q6 0 15 6q0 2 -3 2zM119 636q0 5 6 11q-2 2 -6 2v-8l-2 -10q2 0 2 5zM117 741l2 2v2l-4 -2zM119 735h2q0 2 -2 2v-2
zM123 822q0 -1 -2 -1l6 -6v-2q-2 -2 -2 -4l4 4q0 2 -4 10q-2 0 -2 -1zM129 799q0 -6 -4 -6q0 -4 -2 -7q4 5 12 9v6q-6 4 -6 -2zM143 788v11q-4 -4 0 -11zM145 924q-2 -2 -8 -6h2l8 4zM145 885h-2v-2q2 0 2 2zM147 897q0 4 3 6q-4 0 -5 -2q2 -2 2 -4zM145 950q0 -2 -2 -2
q4 -2 11 -2l-4 4h-5zM160 909q-2 0 -2 -2v-2l2 2v2zM158 868h4q-2 2 -4 2v-2zM166 709h-4l2 -2zM166 623v-2q2 0 2 2h-2zM162 666h4q0 2 -1 2h-2t-1 -2zM164 647l-2 -2l2 -2h2l2 2zM166 610h4l-2 2h-2v-2zM152 997q0 2 2 2h-2v-2zM145 987q2 -2 2 -4q2 2 3 6v2zM164 958
l-12 9q-3 0 -7 -9h7l6 -2q6 0 6 2zM137 1034h2l-2 4v-4zM143 848h-26l-2 -2q2 -6 13 -4t13 -6zM119 864l-4 2h-4l2 -2h6zM127 852l-4 8l-4 -4q4 -4 4 -6q2 2 4 2zM131 1083q0 -2 -4 -2v-2l2 -2l4 4q0 2 -2 2zM128 901q1 0 1 2h-4l2 -2h1zM131 995q2 2 2 4l-2 2l-2 -2
q0 -2 2 -4zM133 956h2v2q-2 0 -2 -2zM133 950q-2 0 -2 -2zM133 920h-4l2 -2q2 0 2 2zM127 954q0 2 -2 2v-2h2zM119 879q-4 -5 -3 -7t1 -4q4 4 6 4q-4 5 -4 7zM115 997h2v2q-2 0 -2 -2zM133 633h-2v-2q0 2 2 2zM123 723q8 -2 14 -2l-2 4q0 2 -2 2q-10 10 -10 -4zM127 506
q0 -2 -2 -2l2 -2l2 2q0 2 -2 2zM129 555v-4l4 4q-2 2 -2 4q-2 -2 -2 -4zM125 588h-2l4 -4l2 2q-2 2 -4 2zM133 487h-2l2 -2v2zM133 516q2 2 6 2q-4 2 -8 6v-2l-2 -2zM145 535l2 12v2q-2 2 -2 4l-8 -12q0 -2 8 -6zM141 510q2 0 2 2l-2 2l-2 -2zM141 741l11 -4q10 0 8 8l-6 25
q-12 23 -29 6h16l2 -8l-14 -4q0 -20 12 -23zM160 602q-2 0 -2 -2v-2l2 2v2zM162 846v10l-2 -2v-8h2zM166 414q2 0 4 2l-2 2q-4 -4 -6 -4l2 -2q0 2 2 2zM174 770l-4 -2v-2zM154 1026q4 0 6 2l-4 2q-2 -2 -2 -4zM169 1020q-7 0 -9 2q-12 -4 -17 -6v-2q11 -10 19 -8t11 8t-4 6z
M154 1116v2q0 -2 -2 -2h2zM154 1292q2 2 6 4h-4l-2 -2h-2zM154 1079v-16q9 17 4 24q-4 -4 -4 -8zM160 1202q0 2 -2 4l-2 -2q2 -2 4 -2zM150 1096q4 0 6 -2q0 2 -2 4q-2 -2 -4 -2zM147 1059q0 6 -6 6q0 -8 -2 -12l4 -4q4 4 4 10zM127 1200h4l-2 2zM115 1133v-13q0 -4 2 -6
q4 8 5 11t5 12h-6q2 4 1 11t9 23t2 25l-12 -6v-4l8 2h2v-2q-12 -6 -13 -26t-5 -27h2zM111 1169l2 2q0 2 -2 5l-2 -5zM104 1137q4 4 7 4l-5 4q0 -2 -2 -2l-2 -4zM100 1120q0 2 2 4l-4 -4h2zM92 1137l-4 -4l4 2v2zM92 1188v4q-4 -4 0 -4zM96 1225v6q0 -2 -1 -2t-1 -2t2 -2z
M98 1147h-6v-2h6v2zM93 1241q1 0 1 2t-1 2t-1 2l-2 -4q0 -2 2 -4q0 2 1 2zM90 1087v-2l4 5l-2 2q-2 -2 -2 -5zM94 1126v2l-4 -2h-4q4 -4 4 -8q4 4 4 8zM94 1100l6 -6q4 2 3 7t1 7l-2 2zM115 1032q-4 0 0 -4l2 -4q-2 0 -2 -2l-4 -2q0 -2 1 -5t1 -5q12 12 9 17t-7 5zM100 1018
l4 2l-2 2q-2 -2 -2 -4zM109 918v2l-3 -2h3zM109 1008h-3q-2 -2 -2 -4v-3l2 3q0 4 3 4zM104 983q-2 0 -6 -4h4l4 2zM113 743q8 9 7 17t-7 10l-7 -31q4 4 7 4zM113 737h-4l2 -2q0 2 2 2zM68 1317q0 -2 -2 -4h2l2 2q0 2 -2 2zM154 221q6 0 18 4h21q-2 0 -3 -2l13 6q27 0 43 -20
t12 -49q-31 -78 -86 -86l-35 -2q-14 8 -18 14q-31 55 -13 104q12 31 48 31zM94 1084q0 -3 -2 -9t-2 -8l6 6q10 -10 0 -12t-8 -8q2 8 7 3t7 -5l-2 -4q0 -2 -4 -7t-2 -10q4 -2 12 6q10 16 10 20t-5 12q-7 7 -5 11t-6 8q-6 0 -6 -3zM88 1053l-4 -2l2 -2zM168 1315q0 2 -1 6
t-1 6l-2 -10q2 -2 4 -2zM170 1055l-6 6q-8 0 -12 -8q16 -6 18 2zM170 1055l2 2q-2 0 -2 -2zM145 1108q-14 -8 -6 -18zM172 654zM168 403q0 2 -4 7v-2zM176 998v4l-4 -5l2 -2q2 0 2 3z" />
    <glyph glyph-name="quotedbl" unicode="&#x22;" horiz-adv-x="516" 
d="M444 1183q0 3 -2 3l-2 -8l2 -2q2 4 2 7zM422 1171v-4q2 2 6 2v2h-6zM424 1370q-6 -6 -8 -6l2 -2h10zM414 1264q-2 -12 6 -13zM436 1290h-4v-12q2 2 6 2q-2 2 -2 10zM418 1126v-2q2 -2 2 -4q4 4 8 4v6q-8 -4 -10 -4zM420 1053l10 -11q0 10 -1 12q-1 1 -9 -1zM418 1014
q0 6 4 10l-2 2l-12 -6q4 -4 6 -8zM426 999h-2q-4 -2 -12 -10v-2h12q2 4 2 12zM410 1094q-2 -12 8 -15q-6 13 -8 15zM317 942l-14 -6q0 -16 10 -16l2 2l-6 6q4 8 8 14zM422 1090q0 -8 2 -13l10 -4l4 12l-6 13q4 4 8 12l-2 2l-18 -10q2 -4 2 -12zM336 932q2 -2 10 -6
q16 14 29 45l-4 4q-2 0 -7 -4t-32 -10l-2 -25l-8 -16q12 0 18 -2q-4 4 -4 14zM213 1083q2 8 -8 15q2 -2 4 -8t4 -7zM215 1149q2 2 4 2q-2 12 -4 14t-12 2zM430 1257v-10h2q0 2 4 6q-2 2 -2 7l-2 -3h-2zM451 1165q-1 -2 -9 -2t-8 -8l12 -2v-6l3 -4q-3 0 -9 1t-8 1
q6 -10 8 -23h2q4 -2 7 -2v-4q-1 -6 -7 -34q-6 -27 -8 -59q-2 -33 -13 -51t-17 -26t-13 -15q-6 -7 -11 -29t-34 -21q-4 0 -18 -6t-31 10q-7 48 25 112q4 16 13 37t9 35q16 57 16 122t6 87t5 33q-6 9 -6 39t-3 39q-6 29 23 34q17 6 31 -8t8 -39q18 -8 18 -43v-57l4 -12
l-10 -11q8 -4 15 -6q0 -10 -2 -14q-27 9 -27 0l12 -6q4 -4 8 -4l-20 -19q-4 -10 6 -14q6 6 18 14q0 8 3 13q6 -5 3 -25t-1 -27zM174 907q6 4 0 11v-11zM174 907q-12 0 -18 -16q-57 -45 -93 -33q-6 29 9 47q0 15 6 28t21 56t27 75t9 132q-4 99 -12 150q0 22 13 32t34 -2
q39 -76 39 -82t2 -10l12 -74q4 -25 4 -75v-37l-6 -41v-21q-10 -40 -10 -63q6 -13 -3 -35t-28 -33h-2q-2 2 -4 2z" />
    <glyph glyph-name="numbersign" unicode="#" horiz-adv-x="1099" 
d="M967 643h4l-2 2q0 -2 -2 -2zM950 895q0 -2 2 -2zM940 907h-2v-4h2v4zM686 657q8 121 10 174q-201 -20 -301 -36v-156q57 10 159 13t132 5zM977 645q-2 0 -6 -4q4 2 8 2h2l2 2h-6zM309 279q0 2 -2 4v-2q0 -2 2 -5v3zM793 1063l1 -47q-1 0 -1 -2v-74q0 -8 4 -11t8 -2t9 4
q6 3 68 6t69 2t24 -9q-16 -10 -2 -28t14 -23l-2 -2q-61 -45 -192 -41l-5 -5v-18q4 -10 -2 -18q0 -104 -6 -131q159 17 203 4q12 -2 49 -21q8 -4 4 -18q-8 1 -14 -11t-17 -16t-85 -8l-11 -4h-51l-33 -6q-27 0 -26 -33q0 -93 -4 -121t-5 -63q0 -35 -4 -49t-4 -53
q0 -38 -12 -58q-14 -14 -22 -19t-7 -10q-45 -12 -59 45q-21 63 2 342q0 12 -13 9t-51 -3t-64 -3q-25 -3 -58 -7t-49 -4t-62 -4q6 -37 6 -113t4 -147t-26 -137q-10 0 -13 -4h-34q-23 20 -56 102v4q2 2 8 2q-2 61 3 279q-12 -2 -62 -11t-73 12t-50 25q0 16 17 21q93 35 148 35
q26 -1 26 25t10 142l-4 3h-4l-111 -15q-57 0 -70 6q-29 27 -38 27q2 2 -7 10v12q44 16 68 18q24 1 98 10t75 14t0 11t2 28t13 134t19 125q20 20 29 -6q29 -107 31 -163t-1 -111q0 -10 20 -8q19 2 73 9t74 8t64 6q46 5 70 3l4 2q2 21 6 61t7 59q2 19 7 84t9 99q4 14 21 21
q12 -2 12 -6q19 -29 24 -80z" />
    <glyph glyph-name="dollar" unicode="$" horiz-adv-x="798" 
d="M453 248q0 -30 2 -37q41 21 60 45q51 64 65 92q26 111 28 121q12 135 -26 214t-99 97q-10 4 -10 13l-18 -7q-7 -18 -7 -40l1 -68q-1 -18 -3 -62t3 -112t7 -108t0 -79q-3 -39 -3 -69zM477 801q0 -2 1 -2t1 -2q8 4 -2 4zM412 1487q10 -8 12 0h-12zM391 1526q14 0 19 8
q-17 -4 -19 -8zM395 1341v-2l2 2h-2zM756 462q0 -11 -2 -44q-4 -14 -18 -82t-38 -115q-33 -74 -108 -127q-12 -10 -43 -17t-44 -17t-44 -11q-4 -31 -1 -116t-12 -113q-32 -4 -60 18t-26 56l7 147v25q-10 2 -39 12t-46 14t-42 17q-104 29 -205 151q-23 31 -8 74q4 12 19 14
q14 2 28 -10t36 -26t75 -54q52 -41 85 -50q32 -9 52 -14q20 -6 31 -10t22 4q14 231 2 635q-61 21 -79 35t-43 32q-72 52 -90 98q-19 46 -1 122q37 147 158 213q51 25 38 76v6q4 6 13 14q12 -6 14 -6q2 12 -6 12h-9q-1 0 1 -6q-5 0 -11 4q-2 57 7 172q4 29 18 29q27 2 31 -27
q25 -113 26 -137q0 -82 5 -106q59 -4 104 -25q16 -39 20 -49q-11 -16 -45 -9t-71 -22q-20 -14 -16 -96q3 -82 3 -96l-2 -84q-2 -29 7 -86q4 -18 30 -23v-10q4 8 4 10q72 -18 168 -98q13 -10 27 -38t30 -56q16 -27 23 -48q6 -21 16 -86q9 -65 9 -76zM377 1389q4 -6 6 0
q-2 4 -6 0zM379 1061q2 2 0 4v-4zM375 1126q-8 0 -6 -6q6 0 6 6zM365 1159q0 10 -7 15q-51 -51 -86 -148q2 -4 -2 -22q-12 -59 33 -78q8 -2 29 -14t35 -11l6 68q0 5 -3 31t1 28q-6 70 -6 96v35zM354 846q0 -8 8 -10q-2 2 -2 6t-6 4zM319 850q0 -6 5 2q-5 4 -5 -2zM276 1063
h-2l2 -2v2zM272 1260q-6 -8 0 -25q4 19 0 25zM281 1089q0 -3 6 -2v7l-4 -2q-2 0 -2 -3zM328 1241q0 -6 2 -6q0 2 2 6h-4zM340 1294l-4 -2v-2q4 -4 6 0q-2 2 -2 4zM352 1249l8 11l-12 18q-6 -4 -1 -15t5 -14zM373 1159q-2 0 0 2v-2zM389 1589q-4 -20 4 -30q-4 28 -4 30z
M403 1571v-2l3 2q0 2 4 10q-2 2 -4 6q-3 4 -7 6q-4 -6 0 -16l-1 -6h5zM244 975v4q-2 -4 0 -4zM238 1069q-2 -2 2 -4zM178 1114q10 0 12 4q-8 4 -12 -4zM590 352l4 -2l-2 2h-2zM594 350q0 -4 4 -4z" />
    <glyph glyph-name="percent" unicode="%" horiz-adv-x="673" 
d="M207 1362v2h-4v-2h4zM154 1176q26 -6 70 64t40 114q-14 10 -40 -1t-36 -43t-12 -41t-12 -42t-10 -51zM104 1230q0 18 23 72q23 52 51 91q41 62 129 37q35 -78 19 -132t-28 -82q-12 -26 -38 -59q-27 -33 -55 -45t-45 6q-48 54 -52 74t-4 38zM430 141q22 19 48 73
q55 117 20 128q-23 4 -33 -12q-41 -80 -53 -162q-5 -21 18 -27zM500 422l-2 -19q18 -6 41 -1t39 -6t12 -46q30 -30 14 -92q-4 -14 -4 -16q-23 -94 -88 -158q-14 -14 -40 -16t-37 9l-28 28q-17 17 -31 29t-20 42q-5 29 16 96q22 68 77 138q10 12 51 12zM537 1304q0 1 2 1
q-4 4 -13 8l-2 -2q5 -2 9 -5t4 -2zM551 1460q14 -14 16 -30q10 -100 -32 -259q-4 -18 -40 -141t-65 -201q-29 -77 -40 -115t-49 -135t-42 -128t-12 -43q-2 -10 -7 -33t-8 -37q-10 -18 -34 -98q-6 -14 -38 -96t-63 -119q-88 47 -71 108q8 29 53 159t92 286t95 290t75 226
q27 91 121 333q12 37 49 33z" />
    <glyph glyph-name="quotesingle" unicode="'" horiz-adv-x="284" 
d="M213 1066q0 3 -2 3l-2 -4v-4l2 -2q2 4 2 7zM190 1055v-4q2 2 7 2v2h-7zM184 1247l2 -2h11l-4 8q-9 -4 -9 -6zM182 1147q-2 -12 6 -12zM205 1174h-4v-13q2 2 6 2q-2 3 -2 11zM186 1010q0 -2 2 -6q4 4 9 4v6q-9 -4 -11 -4zM188 936l11 -10q0 8 -1 10q-2 2 -10 0zM186 897
q0 6 4 10l-2 2l-12 -6l6 -8zM195 883h-2q-4 -2 -13 -11v-2h13q2 5 2 13zM178 977q-2 -12 8 -14q-6 12 -8 14zM72 819q0 -16 10 -16l2 2l-6 6q4 8 8 14q-12 -6 -14 -6zM188 985l5 -24q2 -3 5 -3t5 -2l4 13l-6 12q4 4 8 12l-2 2zM104 815q1 -1 11 -6q16 14 28 45l-4 4
q-21 -10 -39 -14l-2 -25l-8 -16q12 0 19 -2q-5 5 -5 14zM203 1143q-2 0 -2 -1t-2 -1v-11h2q0 3 4 7q-2 2 -2 6zM133 1234q0 30 -2 38q-6 29 23 35q16 6 30 -8t9 -39q18 -10 18 -43v-58q2 -2 2 -6t2 -6l-10 -10l14 -7q0 -10 -2 -14q-26 9 -27 0l21 -10q-4 -4 -17 -15t3 -18
q6 6 18 14q0 8 2 13q6 -6 3 -26t-1 -25q-2 -2 -9 -2t-7 -9l12 -2q0 -2 2 -6v-4q-4 0 -8 1t-8 1q4 -10 8 -22l4 -2h4v-5q0 -11 -6 -36t-8 -61q-2 -35 -26 -64q-23 -29 -28 -50q-5 -20 -28 -22q-40 -13 -55 2q-7 46 24 113q4 17 10 33t9 25q2 9 11 39t9 105q6 42 6 88
q4 8 4 23q-6 10 -6 40z" />
    <glyph glyph-name="parenleft" unicode="(" horiz-adv-x="419" 
d="M297 193q8 0 11 1t1 7zM309 276h-4l-8 -4q7 -2 14 0zM307 289q0 -2 1 -3t1 -3q2 2 2 6l-2 2zM293 346q0 16 -17 8zM254 305q-10 -6 0 -16v16zM227 410q20 -4 25 10q-2 -2 -14 0t-11 -10zM225 434v2q-4 0 -18 -2h18zM174 328l22 -9q3 0 11 5q-6 20 -33 4zM170 412
q0 -20 8 -23q-4 13 -8 23zM152 408v-5l16 9q-14 -4 -16 -4zM154 442q0 6 -2 11q-3 0 -5 -2q2 -2 3 -9h4zM143 1225q4 0 4 4h-10v-2q2 -2 6 -2zM115 715q18 6 18 26q-4 -6 -10 -14t-8 -12zM104 1143l13 31q-17 -11 -13 -31zM92 1032l6 6l-2 2l-6 -6q2 0 2 -2zM92 596q2 0 2 4
q-2 0 -4 2v-6h2zM88 629l-2 16q-12 4 -16 -2q0 -6 8 -9t10 -5zM76 660q0 4 -4 12h-2l2 -15q4 -1 4 3zM86 1122q4 -4 4 -6l2 2h2l-6 6q0 -2 -2 -2zM152 1255q-8 12 -13 -2q3 0 7 1t6 1zM158 428h-4v-2h4v2zM152 528q2 0 2 -2q4 9 12 21q-16 -19 -14 -19zM170 719
q-10 10 -14 -6q10 -8 14 6zM158 831v-2h6v5l-2 -3h-4zM162 756q-8 -8 4 -8zM201 555q-2 0 -6 12q2 -10 2 -14q0 2 4 2zM195 590l-5 -4l3 -2l4 4q-2 0 -2 2zM217 485q-18 0 -10 -14q2 2 10 14zM248 1255q-4 0 -9 -1t-8 -1q2 3 3 7t2 6q-9 -5 -21 -9q-18 6 -25 -10q16 8 29 -8
l8 -2q21 0 21 18zM213 1356v-2l2 2h-2zM250 1303v2h-6q-4 0 -19 -5q-4 -12 -4 -22q25 6 19 25h10zM264 1323q-8 -8 0 -16q10 10 0 16zM211 274q-2 0 -4 -2q6 0 22 -4v-30q-14 -6 -18 16q10 -4 12 8l-12 -8l-35 49q4 4 4 14q-8 0 -12 2q-18 23 -14 46q-18 16 -27 50
q-8 34 4 48q-16 -4 -18 -4l-2 4v4q4 8 8 12q-7 -6 -17 5t4 18q0 -2 4 -5t5 -5l14 6q-12 8 -2 14q0 2 -6 6t-4 8v4h2q-8 20 -13 33l-10 -10q-6 6 -6 16q-6 -6 -8 -10q-4 6 -6 19l16 8q-10 2 -14 6q-12 30 -16 100t-19 103q6 8 6 12q-9 15 -8 42q2 27 1 33t3 17q4 10 0 14
q6 168 59 281q8 -4 15 -10q12 0 12 12h-14q-4 8 -8 12l34 70l9 -16q0 24 4 36q12 12 33 39q48 59 83 82l4 13l48 12q8 0 22 -12q33 -43 -6 -93q-4 8 -4 13q-20 -10 -31 -17q-16 8 -24 0l6 -6l-4 -4q-2 -4 -4 -6l12 -6q6 8 8 16q7 0 35 8q0 -13 -12 -11q-6 1 -9 1
q-8 -14 -2 -24q-2 -1 -8 -9t-14 4v-2q-27 -6 -29 -8q0 -10 12 -6t17 2q0 -9 -7 -11q-7 -1 -10 -3q-2 -4 -4 -12q-8 -30 -32 -29q-2 -25 -22 -73t-21 -77q-2 2 -3 4q-4 -4 -6 -10l9 4q-23 -58 -23 -198l2 2q4 -49 6 -93q-2 -2 -10 -4t-6 -10l18 -2q8 -48 8 -76
q16 -90 100 -288t91 -318q-10 8 -47 28t-49 40q8 2 3 7t-8 10t-6 7l7 11q-2 4 -8 9q-5 5 -7 9q-10 -18 -12 -25l-12 18q-8 11 -11 13q16 25 16 34q-1 9 -17 25q-15 16 -17 25v14q-6 -2 -14 -6q6 -12 8 -18l-4 -4q-4 -2 -6 -4l18 -7q0 -2 -2 -2zM170 879q-6 24 -10 39
q-18 -20 -8 -44q4 -4 18 5z" />
    <glyph glyph-name="parenright" unicode=")" horiz-adv-x="610" 
d="M514 969q10 -16 14 -11q-4 5 -14 11zM489 1022q6 -12 19 -6q-5 12 -19 6zM467 575q16 -8 18 -8q5 -12 7 -16q10 2 6 12l-2 12l-13 4q-10 5 -16 -4zM475 541h-4l-4 -2l2 -2q4 0 6 2v2zM453 500q16 -8 18 8q-6 -2 -18 -8zM422 399q16 -2 33 -2q-8 12 -33 2zM387 455
q0 2 -2 2t-2 -2v-2q2 2 4 2zM358 358l17 2q2 12 -8 17q-2 -6 -9 -19zM373 348l-31 -10v-4q24 8 33 8q-2 2 -2 6zM365 330q1 -2 3 -2h5l-8 4v-2zM360 309h2v4h-2v-4zM362 301q-4 -8 0 -8l7 2zM436 596q-14 2 -14 -10q12 -2 14 10zM424 680q2 0 4 2q-2 0 -4 -2zM446 496
l-10 10q-4 -12 2 -14zM457 666h-2v-2h2v2zM459 717h-10v-2q4 -2 10 -2v4zM471 776q0 -2 -9 -4t-11 -12q4 -4 20 -12q0 -14 -2 -21q2 0 8 -1t10 -1q-4 1 -4 25q-4 2 -10 8q-2 6 -2 18zM461 799q-10 -9 -2 -13t10 -6q-4 11 -8 19zM463 889q0 8 -6 20q-8 0 -19 -2q8 -7 14 -27
t17 -28l10 14q-8 20 -16 23zM451 850l2 2l-2 2v-4zM442 856v18q-14 0 -22 -4q0 -16 6 -20q12 6 16 6zM449 963q-17 0 -35 6q8 -27 18 -29q17 0 17 23zM426 1010q2 0 2 4q-4 0 -18 2q10 -2 14 -6h2zM406 1049v-5q2 2 6 3l-2 2h-4zM391 1075h19l8 -4l-4 6h-4q-6 2 -12 2t-7 -4
zM348 1149q4 -8 14 2q-10 6 -14 -2zM356 1202q-12 0 -16 -18q16 2 16 18zM422 1174q-10 10 -23 0h23zM440 977v-4h2v2q0 2 -2 2zM492 702q4 12 0 12t-7 1q1 -3 7 -13zM498 578h-2l2 -3v3zM498 791q-6 10 -13 -3q11 -3 13 3zM176 158q4 6 0 10q-10 -4 0 -10zM111 119q2 2 1 4
t-2 1t-4 -3l3 -2h2zM289 1253q6 4 0 9q-10 -5 0 -9zM281 1272v-2l2 2h-2zM256 1286q10 4 0 12v-12zM246 1332q0 9 -4 16q-8 -14 -17 -11q-4 8 -8 15q-6 -2 -16 -2q2 -25 30 -21q0 -10 -2 -16l12 2q5 0 13 4q-8 4 -8 13zM176 1391q-6 2 -9 -1t-3 -12zM428 831q2 0 4 3l-20 20
q0 12 4 45q-13 10 -13 45q-14 96 -102 195q-6 8 -35 51t-66 64t-74 59l-54 53q-2 2 -7 14t-8 5q-4 -7 -6 -7q-2 6 -10 39q40 24 84 11q14 -3 44 -12t40 -11q3 -5 4 -8q63 -14 133 -86q144 -152 197 -365q37 -164 17 -318t-85 -261q-94 -166 -237 -258q-6 -4 -39 -29
q-79 -60 -121 10q-16 33 20 53q84 53 138 129q2 4 10 12t10 11q162 238 170 432q-4 8 -6 10l-2 39q2 16 10 35q2 2 11 0t10 6l12 -10q2 2 6 5t8 7q-14 4 -35 8q-2 -2 -6 -10q-12 6 -14 8q6 6 8 6z" />
    <glyph glyph-name="asterisk" unicode="*" horiz-adv-x="739" 
d="M385 817v2q-2 -2 0 -2zM158 852v2l2 -2h-2zM311 899h-4l2 -2q0 2 2 2zM248 877v2h-2v-2h2zM264 868v-4l2 2q0 2 -2 2zM246 834q0 2 -2 4h2q2 -3 2 -9q-2 3 -2 5zM203 856q-2 0 -4 2q-2 -2 -4 -6zM260 864q0 2 -4 2v-8q2 0 4 -2v8zM262 850q0 2 2 2l2 2q0 -4 6 -10
q-2 0 -2 -2l-4 -2q-4 8 -4 10zM535 1229h2q-2 2 -5 2zM197 834h2q-2 0 -2 2v-2zM537 989v2h-2v-2h2zM319 928v-2h5v2h-5zM236 936h2v4h-2v-4zM356 786v-6l2 6h-2zM213 1096q0 -2 2 -4h2l-2 4h-2zM557 1290q0 2 -2 1t-4 -1l2 -2q2 0 4 2zM528 977q4 -4 11 -16q-2 6 -3 10
t-4 10zM387 866q0 -10 6 -10l4 8q-6 0 -10 2zM293 915q4 4 8 11q-10 -4 -22 -8q4 -4 6 -5q4 4 8 2zM565 958l-2 15q-10 2 -12 -6q0 -4 2 -9h12zM387 815q0 2 2 8h-8q-8 -4 -2 -10q4 0 6 -2v-4q-2 -2 -2 -4q2 2 10 6q0 6 -6 6zM494 1227q10 0 18 -4l8 8h-14zM387 881v-11
q4 2 4 17q-2 0 -6 -2q0 -4 2 -4zM293 1022q0 -2 -2 -6l4 -8v4l2 6q0 4 -4 4zM352 897q-2 2 -10 2l4 -8zM463 1186v-2q4 4 8 4l-4 4l-6 -4zM444 1176h-2l-4 2v-2l2 -5l2 -2q2 2 2 7zM502 1112v-10l2 8q-2 0 -2 2zM324 913q-5 5 -11 2q2 -2 2 -4l2 -2q2 0 2 2zM289 893
q2 0 2 -2v2l-2 2v-2zM430 1026q-3 0 -4 2q0 -2 2 -4q2 0 2 2zM256 961h2q0 3 2 4h-4v-7h2v3h4q0 2 -1 6t-1 6l-6 -6l2 -2v-4zM242 901l10 8q3 0 16 13v10q-12 -8 -22 -12q-2 -4 -10 -13v-12q6 2 6 6zM299 1167q2 2 12 2q6 10 2 60l-6 151q0 25 6 23q39 0 47 -19q2 -4 6 -13
t5 -13v-10q4 -8 4 -64v-2q10 -20 8 -43q-2 -25 -1 -33t1 -15t2 -14t18 -3l129 178q18 26 50 20t45 -37q4 -15 -10 -22q-13 -8 -47 -59t-47 -64q-13 -12 -14 -15t-8 -12t-5 -16q6 -6 36 -6h48q68 0 100 -19q0 -6 -29 -16h-26v2q-16 -4 -27 -6h-4q-8 4 -41 -10h-4l2 10
q-2 0 -6 -1t-6 -1q2 4 -4 8q-2 0 -7 -2h-2l-8 -8q4 -4 6 -4q-4 -2 -10 -2l-2 -2q2 0 2 -3l2 3l-2 2q-6 -6 -6 -9h-14q-6 2 -19 2q2 2 2 7h-12q2 -8 -8 -12q-9 -4 -15 -6q-6 -3 4 -19l-2 -2q1 0 5 -1q52 -13 102 -40q57 -25 84 -37q12 0 29 -17q12 12 22 -2h4l8 -26
q-27 -35 -53 -31l-6 -6l-59 29q0 4 4 12l6 4q16 4 4 10t-16 10q-5 0 -8 -4t-5 -4h2v-10l6 -8v-2q-2 -4 -2 -6q-24 4 -52 27q-27 22 -43 32t-27 19q-33 25 -39 16q-13 -19 -8 -29q4 -10 5 -10t1 -2h-5q16 -25 7 -37v-2l4 -6v-4l2 2q4 2 6 4v-47q14 -27 20 -72q2 -16 -16 -39
t-18 -24q-19 -9 -26 -6q-7 4 -11 6t-9 7q-4 5 -7 8q-24 24 -19 101q0 20 -5 22t-12 -1l3 4q-2 0 -3 2q0 2 -2 4q-4 2 -10 8q0 -10 -2 -14q3 -3 3 -5v-4q-12 3 -15 3h-8q2 -4 2 -13v-6h-2l2 -2q-2 0 -2 -4l-2 2h-2l-5 4q2 2 5 2q-4 4 -13 9q-2 2 -2 4l-2 -2q-6 0 -6 5t-2 7
q-10 -10 -10 -14v-2q-2 -4 -6 -9v-16l-2 -4q0 -4 -2 -4v-2l2 1q0 1 -2 1v-2q0 -2 2 -4q-6 4 -15 12l-2 -2v-2q0 -25 2 -27q-4 0 -15 2t-15 -8q-3 4 -19 6t-19 6t7 27q0 16 6 18v-12l8 8q-2 2 -2 6l4 5l-8 4q0 -2 -1 -5t-1 -6q12 11 18 11t0 -7q2 -2 2 -4h-4q-2 0 -4 -2
q4 -4 8 -6q0 -10 8 -18t9 -8h4v13q0 7 8 7q-4 4 -8 7t-6 5q2 0 4 2l2 -2q8 0 8 -8q0 25 2 39q-12 0 -16 2l-2 -2q2 0 2 2q-2 0 -6 -4v-2q-2 -2 -2 -4l-2 2q0 4 -3 4q-4 -4 -4 -6l-8 8l64 70q0 2 2 2l69 94q-8 6 -37 6l-178 -2q-18 -1 -38 19t-17 30q23 2 93 2t114 13
q-147 94 -197 155q37 -8 94 -20l5 -8q4 4 4 6q10 -4 26 -13l4 -4h-12q-2 -2 -10 -6q2 -2 2 -6h22q6 -2 9 3q2 5 4 7q18 -24 28 -24q2 -8 9 -17h8l2 -8q0 -2 -1 -2t-1 -2q-2 2 -2 4q-2 -4 -2 -8l2 -4l8 8q4 -4 4 -6v-2l2 2h-2v-2q2 0 4 -4l-2 6q6 -2 14 -2l15 -15q2 0 2 -6h8
q-2 -4 -2 -8h10q0 2 2 4q0 2 -8 6zM279 948l2 2q-2 0 -2 -2zM295 950q-2 0 -6 4v7q0 2 -1 2t3 6t-4 14l-4 -4l-2 2v-2h2q-8 -24 2 -29h-9q3 0 3 -2l-5 -4h5q0 2 2 2l8 -8v4l12 2q0 4 -2 6l-4 -4v4zM289 938q-2 -4 2 -4l4 -2zM307 883h6q-3 1 -5 1zM297 883h10q-2 -3 -6 -6
q4 0 6 -3q-8 0 -12 -4q2 4 2 13zM447 1054q1 0 2 1h-3zM524 1094q0 -2 -2 -2l2 -2v4zM215 1192l18 2q2 0 11 4q-4 4 -4 6q-2 0 -2 -2l-5 -2l-4 6q-18 6 -18 8q-4 -10 -10 -4v2h-2q0 -6 3 -12t3 -8q4 4 6 4zM231 1195v1v-1z" />
    <glyph glyph-name="plus" unicode="+" horiz-adv-x="792" 
d="M371 928q2 0 4 5t-8 7q4 -8 4 -12zM762 635q-28 -14 -64 -14t-45 -3l-26 3l-72 -7h-57q-10 0 -12 -2t-1 -12l-2 -29v-51l-6 -90q-4 -33 -4 -51q-4 -12 -6 -49t-6 -66l-12 -37q-7 -14 -15 -16l-6 6l-32 17q-17 10 -19 12t-19 28q-2 2 -2 39q8 18 9 31q-6 23 -3 51v92
q0 40 -2 56t2 32v33q0 12 -12 8h-139q-35 0 -69 -1t-62 9q-29 11 -33 13t-9 2t-6 3t3 6q4 2 1 14t3 18l18 12q4 2 11 4t16 6h16l82 7q6 0 12 -2t23 2h6q43 6 84 2l45 -2q6 0 6 8v82q0 20 -4 53v39l-2 29v20l2 74q0 10 6 12l2 4q-4 6 0 19l17 59q0 10 4 7t8 -5h4q2 4 2 10v2
q0 4 2 8q6 0 16 -9q11 -9 20 -14t20 -26l12 -45q0 -8 9 -21t7 -27t-2 -79l2 -61q0 -43 -2 -66v-55q0 -8 4 -8q61 0 93 2l79 6h21q10 -2 16 -10q18 -10 33 -21q13 -13 35 -55v-6z" />
    <glyph glyph-name="comma" unicode="," horiz-adv-x="434" 
d="M250 -23q-2 6 0 17t-8 14q-4 -12 -9 -20zM262 -236q2 -10 6 -22h4l13 31l-4 4q-7 -7 -19 -13zM281 -90v-23q8 4 24 4q-10 13 -18 19h-6zM31 -516l28 57q61 119 83 157t31 76q9 36 13 44q31 94 23 256q-1 28 -21 80t-28 84t-10 34q-2 3 4 15q20 8 36 14q8 -4 35 -13
t37 -18q10 -10 51 -70t52 -134q2 -12 15 -64t20 -87t-2 -59t-26 -83t-44 -87t-55 -56q-27 -28 -73 -76t-122 -78q-22 -12 -47 8z" />
    <glyph glyph-name="hyphen" unicode="-" horiz-adv-x="708" 
d="M268 631q2 0 2 -4l-2 -2l-2 2zM219 680h-2l2 2v-2zM403 647h-2l2 -2v2zM135 616v-2l2 2h-2zM211 645h2q0 2 -2 2v-2zM367 672h-2v-2q2 0 2 2zM133 635h-2l2 -2v2zM633 659v3q-2 0 -2 -3h2zM627 557v2l-2 -2h2zM530 668h2l-2 2v-2zM573 690v-4l2 2zM319 559h-2l2 -2v2z
M627 662h2v2h-2v-2zM422 569v-4l2 2q0 2 -2 2zM145 651v-2h2v2h-2zM258 594v2q0 2 -2 2v-2q2 0 2 -2zM471 610v-2l2 2h-2zM356 610v4q-2 0 -1 -1t1 -3zM326 569l2 2l-2 2v-4zM362 643h5l-2 2zM377 551v-4l2 2zM520 637v-4l2 2zM395 541v-4l2 2zM197 614h-2l2 -2v2zM360 545
v4l-2 -2q2 0 2 -2zM199 641v-4l2 2zM109 635h-3l3 -2v2zM184 672v-4l2 2zM657 635h2l-2 2v-2zM158 653v-4l2 2q0 2 -2 2zM229 674q0 2 2 2l-2 2q0 -2 -2 -2zM221 612q0 2 2 2l-2 2v-4zM475 688v2l-2 2q0 -2 2 -4zM244 616v-6l2 2v2zM334 608q0 2 2 6h-2v-6zM123 641l2 -2h2
l-2 2h-2zM432 569v4l-2 -2zM365 553q2 0 2 2t-2 0v-2zM332 578v2h-2v-2h2zM262 662l2 2v2l-2 -2v-2zM575 602v4q-2 0 -1 -1t1 -3zM184 623h2l-2 2v-2zM229 633v4h-2q0 -4 2 -4zM137 649q0 -2 -2 -2l2 -2v4zM176 643q-2 0 -2 -2t2 -4v6zM463 682q0 2 -1 2h-3l4 -4v2zM315 672
q0 4 -2 4v-2q0 -2 2 -4v2zM336 578h4q-2 2 -2 4l-2 -2v-2zM590 700q0 2 -2 5v-3q0 -2 2 -4v2zM506 659v-4l2 2zM539 674h-2l2 -2v2zM336 662v4l-1 2q-1 0 0 -2t1 -4zM96 668v-6l2 2v2zM455 641h-2l2 -4v4zM131 664l2 -2q2 0 2 2l-2 2zM412 672l4 -4v2l-2 2h-2zM209 612l2 2
l-2 2v-4zM356 668v-4l2 2zM659 657l3 2q-2 2 -3 5l-2 -2q0 -2 1 -2t1 -3zM229 561h2l2 2l-2 2q-2 0 -2 -4zM240 641v8q0 -2 -2 -2v-2q2 -2 2 -4zM217 575q-2 0 -2 -2t2 -4v6zM180 664h-1q-1 0 -1 -2t2 -5v7zM344 590l2 2q-2 2 -2 4l-2 -2l2 -2v-2zM262 571q0 4 -2 7
q0 -7 2 -9v2zM410 641q0 2 -2 2v-6q2 2 2 4zM571 604h-2q0 -4 2 -8v8zM160 659q0 -2 2 -4q0 2 2 2l-2 2h-2zM422 614v-8l2 4q0 2 -2 4zM166 672q0 -2 2 -2q0 2 2 2l-2 2q-2 0 -2 -2zM399 623q0 -4 2 -5l2 3l-2 2h-2zM355 582q-1 0 -1 2l-2 -2q2 -2 2 -4l2 2q0 2 -1 2z
M641 680l-4 4h-2l2 -4h4zM546 676q1 0 1 -2l2 2l-2 4l-2 -2q0 -2 1 -2zM291 635h6l-2 2q-4 0 -4 -2zM596 676v4q-2 -2 -2 -4v-6q2 2 2 6zM123 674q0 -4 2 -4l2 2l-4 4v-2zM80 625q0 -6 2 -9v2q0 6 -2 9v-2zM401 670v10l-2 -2q0 -6 2 -8zM641 649q4 -4 4 -6l2 2v2l-2 4
q-2 0 -4 -2zM385 562v7l-4 -4q4 -4 4 -3zM365 632q0 3 -3 5v-4l3 -2v-8l2 4q-2 2 -2 5zM311 594l4 4l-4 4l-2 -2q2 -2 2 -6zM444 651l5 -4q0 2 2 4l-2 2q0 3 -5 -2zM186 637q0 -2 1 -4t1 -4l2 2q-2 0 -2 4t-2 4v-2zM270 580q0 4 -4 8v-2q0 -4 4 -8v2zM489 657l3 5v6l-3 2
l-2 -2q0 -2 1 -6t1 -5zM340 666l-2 -4q0 -4 2 -7v2q2 3 1 5t-1 4zM606 670q0 -2 2 -4h2l-4 8l-2 -2q2 0 2 -2zM627 625q0 -2 2 -4l2 4l-2 4q-2 -2 -2 -4zM483 678v10q-4 -4 -4 -6l2 -4h2zM143 662l-4 -7q2 -2 2 -6l4 8zM616 680q0 -4 2 -4q1 2 3 4l-3 4q-2 0 -2 -4zM250 549
l-2 4l-4 -4l4 -4q0 2 2 4zM328 651l4 4l-2 4l-4 -4q2 -2 2 -4zM248 578l6 6l-4 4q0 -2 -2 -2l-2 -4v-2zM373 680q0 6 -3 6t-2 -2t1 -6t2 -6q2 2 2 8zM88 647l2 6q0 2 -1 5t-1 6l-2 -5q0 -2 1 -5t1 -7zM305 666l2 10v4q-8 -8 -2 -14zM61 582v2q-8 4 -8 -11q4 -6 6 5q2 2 2 4z
M473 670q-6 6 -6 8q-4 -4 -4 -6q2 -6 4 -4t4 0zM387 617q0 5 -2 8l-2 -15v-6q4 8 4 13zM150 641q2 0 5 -1t5 1q-4 8 -6 10q-4 0 -4 -10zM508 664l6 -11l8 9q-4 8 -4 10q-4 -12 -10 -8zM197 653q6 6 6 9l-13 12l-2 -2q0 -2 4 -8t5 -11zM324 631l2 31q0 4 -2 4q-4 -4 -3 -16
t-4 -15q3 -2 7 -4zM285 655v-18q-2 0 -6 -2v16q-12 4 -15 -12l-2 -12q0 -8 2 -9q12 4 18 8t6 17q-1 12 -3 12zM516 645h-4q2 -4 2 -10v-2h-2q-4 16 -10 16t-21 8q-2 -2 -8 -6q2 0 12 -10v6q3 -4 7 -2t11 -10t15 -4q-2 4 -2 14zM418 612q0 8 -2 15l-2 -2v-2q-10 -16 -2 -31
q4 -4 4 4q2 8 2 16zM98 639h6v6q0 4 -8 12q-2 -2 -2 -10t4 -8zM418 588q8 -6 14 8l-2 4v6zM453 612h-11l9 -8q0 -2 4 2v2q-2 2 -2 4zM298 651q-3 0 -3 4h-2l-2 2l4 -14q2 0 4 4t-1 4zM444 622q0 4 -2 5l-4 2l-4 -4l2 -4q0 -2 2 -3q6 0 6 4zM248 637q0 8 -2 12l-2 -2
q2 -4 2 -10t2 -8v8zM111 664q0 -4 8 4q-4 4 -6 4q-2 -4 -2 -8zM377 590l-2 16l2 4q-8 0 -5 -8t3 -10zM205 668q4 0 10 -6v6l-4 2q-4 0 -6 2v-4zM311 659q-6 -6 -8 -4l2 -6l6 6v4zM659 614h-6v-4q2 -2 6 -2v6zM262 543v-2l6 -6v8h-6zM492 612q0 -2 2 -4q0 2 1 7t-1 8l-2 -5
v-6zM362 586l-2 4l-2 -2q0 -4 2 -6q0 2 2 4zM629 592v2l-2 2v2zM346 670h2v6l-2 2v-8zM72 633q-2 0 -2 -1t-2 -1l2 -2q2 2 2 4zM403 590l3 -2q0 2 -3 4v-2zM457 584v6l-4 4q4 -8 4 -10zM332 594q0 -4 4 -4l-2 4h-2zM492 674h2l-2 4v-4zM354 625v4l-4 -4h4zM432 633
q-2 0 -4 -2v-2zM74 621q0 -5 -1 -7t1 -2v9zM461 610l-2 -2q2 0 2 2zM614 637v-4l2 4h-2zM385 680q0 2 2 2v4q-2 -2 -2 -6zM385 649l-2 -2l2 -2v4zM354 647q2 0 2 4l-2 -2v-2zM342 631q1 -2 2 -2zM379 643l2 -2q0 2 -2 2zM479 671v3l-2 -2q2 0 2 -1zM279 600q-2 2 -3 4
q1 -4 3 -4zM143 532h2l-2 3v-3zM598 645v-2q2 0 2 2h-2zM154 573v-2l2 2h-2zM242 575v-10q2 2 2 8zM406 616q2 0 2 -2v2h-2zM588 584q0 2 2 2l-2 2v-4zM547 590q-2 0 -2 2v-2h2zM254 645q2 0 5 8t-3 9q-2 -13 -2 -17zM328 610q-2 0 -6 4v-4h6zM236 684q13 0 16 -12q2 6 8 6
q16 16 33 4h2q8 8 10 2q5 8 49 8q2 0 8 -12q2 14 13 14q25 -4 55 1t41 6q12 1 39 0t35 4l6 -7q1 8 17 8t33 1q61 0 63 -60q0 -33 1 -51t-5 -28t-9 -12q-2 -1 -45 -10t-117 -7h-22q-44 1 -65 -5t-23 1l-4 4v-7q0 -6 -96 -6h-3q0 2 3 6v3l-5 -5q2 -2 2 -4q-133 -10 -149 -7
t-40 5t-36 6t-7 52t19 63q20 29 35 29l35 4l64 2q6 6 8 -2q2 4 9 0t9 4l4 2h9zM451 684v-2q2 -2 2 -4t-3 -5t-4 5t-3 10q0 -4 -5 -16q0 2 -2 2l-8 8q-2 -2 5 -18t16 -2q10 7 12 12l-2 8q-4 2 -8 2zM266 680l6 -16l4 -2q4 2 7 8q-4 6 -17 10zM268 670l-2 -2v-2l2 -2v6z
M422 668l2 4l-2 4v-8zM422 664h-2q-2 -2 -4 -2q4 -8 6 -10t4 -1q2 2 2 4l-2 2h-2q-2 3 -2 7zM438 592h-2l2 -2v2zM440 604q0 6 -4 10v-20q4 4 4 10zM469 621q0 -2 -2 -3h2v3zM469 621q-2 8 -3 10t-7 -2q2 -2 5 -4t5 -4zM518 600q-2 0 -4 -2l2 -2q0 2 1 2t1 2zM522 600
q0 2 -1 2h-1l-2 -2h4zM518 678h2l-2 2v-2zM518 680q0 6 -2 0h2zM582 586h2l4 2l-6 2v-4zM287 678q0 2 -2 2zM377 616l2 2q-2 0 -2 -2zM377 616l4 5l-2 8q-2 -12 -2 -13zM578 590q2 0 2 2zM575 590v-2l3 2h-3z" />
    <glyph glyph-name="period" unicode="." horiz-adv-x="235" 
d="M152 236q8 8 12 8q33 -2 57 -32t-2 -71q-27 -41 -38 -57t-35 -19q-24 -4 -58 -8q-18 12 -20 19q-39 59 -17 123q16 35 55 34q8 0 21 5q16 0 25 2v-4z" />
    <glyph glyph-name="slash" unicode="/" horiz-adv-x="759" 
d="M602 999l-55 -122v-5q-8 -4 -8 -26l-7 -12l-2 -3l-12 -30q-16 -24 -28 -50t-18 -35q-5 -9 -10 -20t-18 -32q-16 -37 -19 -43t-13 -33t-22 -44t-16 -29q-3 -11 -10 -22q-17 -25 -19 -46t-11 -33q-9 -11 -21 -35l-12 -25q-16 -24 -20 -37q-4 -14 -14 -37t-21 -51
q-9 -9 -21 -34t-16 -32t-11 -21q-6 -14 -10 -19q-4 -6 -7 -14t-5 -13q-4 -4 -24 -14q-6 -6 -13 -8h-18q-9 -4 -25 8t-45 22q-18 10 -18 27q0 16 -2 19v2q8 27 13 55t77 153q13 36 27 61t25 53t19 41t25 41q16 28 30 54q15 25 27 55q12 29 31 60q20 31 39 76q16 25 47 90
t41 85q40 79 56 119t41 88q26 48 33 62l13 26q6 11 14 22t25 42t48 72q14 18 32 -8t17 -35l2 -6q10 -10 13 -30t-1 -30t-10 -22t-6 -14t-5 -8q-4 -6 -8 -21q-4 -16 -14 -35t-16 -34t-8 -21q-2 -7 -9 -21q-6 -14 -8 -19t-9 -17t-11 -39q-5 -9 -19 -46v-2z" />
    <glyph glyph-name="zero" unicode="0" horiz-adv-x="821" 
d="M471 86q4 12 6 20q-6 -2 -6 -20zM676 866h4q0 8 2 15q-5 0 -9 -4l3 -3v-8zM684 539l2 -19h-2l6 -12q0 12 2 20q-6 6 -8 11zM604 334q-6 -6 -8 -6l4 -9q-2 -2 -6 -5t-6 -5q20 10 16 25zM715 659q-10 -10 6 -26q0 4 6 4l-10 6v14zM647 639l12 10l-4 8q-4 0 -12 -8
q0 -2 2 -5t2 -5zM694 453v16q-2 0 -4 2l2 6q-8 8 -10 12q-2 -2 -6 -8l-6 6q0 -18 -4 -43q1 1 10 19l6 -6q0 4 -2 10q8 -8 4 -12v-4l10 -5q0 3 2 7h-2zM542 262q72 70 72 240q0 40 11 96v76l2 59q0 39 -11 98v54q-2 14 -6 44t-6 44l-12 86q-27 138 -56 213q-9 23 -53 47
q-8 4 -67 4q-4 -4 -17 -12l-4 4q-6 -4 -20 -11t-23 -12q2 -2 2 -4q-8 -4 -22 -18l-15 -15q-4 -4 -8 -14t-7 -14q-26 -34 -44 -93t-22 -69t-9 -35q-12 -24 -12 -65l-4 -29q-2 -6 -2 -15v-14l-10 -39q-6 -68 -6 -127t4 -88v-47l2 -22v-6q18 -72 19 -96t9 -50q9 -57 13 -63
t8 -25t26 -65l19 -31v-2q10 -8 18 -25v-4q11 -8 21 -14t14 -10q4 -5 26 -9t36 -2h14l18 6q26 0 39 11q23 10 33 27t30 36zM649 506h-2q2 2 2 8q-2 0 -4 2q0 -6 -4 -18q2 0 6 -2l-4 -9l8 -12q4 12 4 14h7q0 4 -5 9l-8 -2v10zM53 801q0 140 41 271q10 32 12 36t6 18
q14 44 26 63t20 36t26 45q19 28 21 32t10 7q8 4 25 30q18 27 42 37t33 17q57 24 74 23q16 -1 49 -5h2l15 -2v-4q8 0 14 -2q0 2 2 6h6q6 -3 6 -8q16 -6 33 -17l4 2q10 -6 31 -14q25 6 35 -18l12 -2v-11l2 2l14 -14l-2 -2l11 -8l2 2q0 -2 2 -6q29 -10 30 -35l7 -18l2 -23
q2 0 2 -2l4 -2l4 -16l-2 -5l6 -12q7 0 10 -32q2 -32 8 -40q15 -20 15 -59q12 -59 14 -77l4 -36q2 -16 4 -34t4 -26t2 -22v-20l2 -25v-6q0 -6 5 -22v-2q0 -29 2 -43v-82q2 0 4 2v-80l-2 -4h2v-74q4 4 6 4v-61l-4 4l-2 -43q-2 -12 -2 -28t-12 -51q-12 -34 -17 -50v-2
q-14 -65 -16 -68h-5q-20 -60 -40 -77q-21 -17 -35 -31t-43 -21l-25 -6v-2q-22 -15 -76 -20h-32q-12 0 -19 -2l-29 4q-29 4 -87 32t-105 72q-20 23 -43 57q-64 116 -80 230q-7 50 -16 93q-10 42 -12 55t-7 134v58zM668 866l3 11h-1l-4 -9zM676 330h2l2 -2v-6l4 12q-2 0 -6 4
l8 8q-4 2 -8 6l-2 -2q0 -8 2 -12q-6 -6 -10 -6q4 -7 8 -19v17zM662 303q-2 0 -5 2v-12q2 2 5 2l2 2l2 -4l-7 -14q14 14 17 20v14q-6 -6 -10 -12q-2 2 -4 2zM668 344q-6 0 -9 -2l7 -6q-2 -2 -2 -5t-2 -3h-3q-4 -2 -6 -2q4 -4 6 -4q7 6 9 10v12z" />
    <glyph glyph-name="one" unicode="1" horiz-adv-x="536" 
d="M358 1081q-4 0 -6 2q4 2 6 13q-10 0 -14 -4l2 -2q-6 -12 -10 -19h16l13 8q-3 2 -7 2zM469 600h2v-35h-4q6 -18 6 -47v-92q-2 -16 0 -40t-6 -56q0 -25 2 -41v-47l-6 -80h-2q-4 -29 -6 -45h2q-9 -27 -13 -35h-2l-4 2q-4 -31 -45 -66t-82 -41v254q-2 37 -2 111
q-8 104 -10 152l-6 98l-6 110v99l-4 82q-4 62 -4 96t-3 43l-2 2q-25 -41 -33 -70t-24 -32l-6 -7q-16 -31 -25 -38q-10 -16 -24 -29q-8 -12 -24 -34t-21 -32q-2 0 -8 -6q-29 -12 -40 -16t-18 -10q0 14 4 18q-25 18 -6 47q1 5 9 27t38 82q62 143 73 167q11 23 17 43t14 44
t33 94l31 86q6 25 6 43t8 22q8 5 14 7q7 2 35 16t72 14q25 -8 31 -11t6 -26v-57l13 -55q-4 -4 -9 -13h4q2 -4 3 -13t2 -13h-3v-271l7 -34v-37q2 0 4 -2l-8 -8l2 -2v-9l-2 -4q4 -12 4 -16h2l4 -2q-4 -25 -8 -66l18 -6v-149l-2 -58h4q-2 -4 -2 -8z" />
    <glyph glyph-name="two" unicode="2" horiz-adv-x="802" 
d="M106 291v-10h-18l8 -13q16 12 21 17q-6 6 -11 6zM104 248q0 8 2 12q-2 0 -6 2h-4q-2 -2 -7 -6t-7 -6q6 -2 22 -2zM233 229q0 -4 53 -4t89 6h104q33 0 47 7l2 -9q6 2 15 2q6 4 10 -4q102 0 156 2v2q4 -2 14 -4q32 -6 41 -34q0 -13 8 -22t8 -48q-61 -37 -71 -37l-41 2
q-4 0 -13 -4h-34q-39 -14 -109 -10v2q-2 0 -9 -1t-22 -1q-14 0 -20 4q0 8 -31 4l-31 -4q-10 2 -32 2l-74 6q-8 4 -27 4l-49 2l-41 -4q-20 -5 -90 31l-12 12q-12 8 -17 33q-4 25 -12 41q-8 17 0 37t23 53q14 33 24 60t30 78q21 50 54 132l86 178q75 169 105 281l18 68
q14 86 14 120q-10 -2 -22 -2q-20 -12 -41 -20v-2q-2 0 -14 -4l-39 -39q-3 -7 -9 -17t-11 -21t-19 -28q-10 -25 -31 -24q0 -6 -2 -8q-25 -12 -49 4q-4 0 -10 -2q-6 4 -22 11t-33 17q-27 17 14 82q9 47 28 71q56 69 76 75q65 55 186 32q8 4 15 4q-2 -2 -2 -6q57 14 96 -43
q8 -21 15 -45t12 -35l4 -4l-4 -12q12 -23 14 -27q2 -5 -3 -29t-2 -32t-7 -50q-9 -42 -16 -56q-7 -15 -7 -20l-2 -38q-35 -94 -63 -178h-2q-2 -2 -5 -2q-18 -49 -30 -55q0 -36 -39 -95v-4q-2 0 -4 -2q4 -27 -13 -39q-4 -4 -5 -15t-9 -26v-14l-2 2l-31 -69q0 -8 -14 -38
t-17 -39l-6 -12t-5 -14t-15 -43l-2 2h-2q4 -4 4 -6h-8l8 -8l-18 -25q0 -8 -5 -20q2 0 5 -2l-5 -9q2 0 2 -4z" />
    <glyph glyph-name="three" unicode="3" horiz-adv-x="829" 
d="M260 819q-14 0 -22 7q-43 40 -35 58q8 19 20 24q13 5 61 40t68 53q72 63 115 168q16 45 4 99q-8 27 -39 32q-63 20 -106 -8q-4 -4 -17 -4q-6 -6 -14 -8l2 -2l-74 -61q0 -2 2 -5h-8v-4q3 -5 -27 -43q-6 -4 -30 -16v4q-16 -4 -32 -12t-34 11t2 56q20 38 54 92t102 91
t126 47q59 10 152 -25q39 -12 48 -51q2 -6 14 -30l21 -42q9 -20 13 -27t3 -17q0 -10 1 -52q1 -41 -11 -80q-13 -39 -29 -61t-37 -47l-45 -45q-12 -14 -80 -68l10 -10q40 -5 50 -11t34 -18l56 -37q2 -2 16 -9t36 -32q24 -24 30 -32t18 -19q55 -80 63 -99t13 -36
q23 -104 2 -162h4l-4 -4v-25l-6 -37q-2 -8 -6 -25t-6 -23q-1 -6 -13 -31q-12 -24 -16 -43l-7 -25q-4 -33 -17 -40t-23 -25q-9 -17 -15 -22t-22 -17l2 -2q-14 -7 -17 -7v-2l-14 -2q0 -6 -2 -8q-7 0 -35 -8v-10q-24 -6 -45 -9l-135 -18q-104 -1 -156 29q-51 30 -108 71
q-33 26 -52 99q-2 0 -2 14l2 16q17 14 29 10t20 -3q8 2 11 2q27 -25 63 -17q2 -2 2 -6q22 -3 35 -14q12 4 35 -8q22 -12 50 -20t85 7q114 17 156 60q16 18 49 59l6 12l19 86l4 17v43q4 76 -21 119q-6 10 -22 47t-76 108q-6 7 -36 26q-60 39 -130 28q-68 -11 -82 -11z" />
    <glyph glyph-name="four" unicode="4" horiz-adv-x="634" 
d="M455 74q0 -2 -2 -4q12 -4 22 -9l-4 13h-16zM508 27h-16q0 -2 -2 -2t-1 -2q22 -6 25 -7q-6 6 -6 11zM182 924q0 -36 -6 -127q0 -15 23 -13t104 16t109 17l2 4v164q0 39 4 109l4 71l8 70l4 70q0 33 6 69v15q0 25 25 30q23 6 24 -18v-8l37 -68q2 -2 2 -5t2 -3l7 -31
q16 -90 16 -100l4 -62q2 -14 2 -44t2 -46l2 -71v-39q-2 0 4 -91t2 -141v-18q2 -20 2 -62l-2 -57v-27q0 -18 -2 -28v-49q0 -23 2 -33v-56l2 -49v-43h-2l-4 -96q0 -59 -10 -76q0 -20 -2 -30l-2 -29q-4 -4 -4 -8t2 -6q-13 -13 -19 -17q-18 -2 -23 -2t-29 12t-47 9
q-24 -4 -28 22q0 41 3 62q-2 303 6 610h-13q-99 -27 -139 -29t-70 -10q-4 -12 -4 -14q-16 5 -45 10q-29 4 -43 12q-29 10 -37 37l-4 4q-16 6 -14 45t4 100t12 130l7 135l8 114q0 122 10 172q4 15 19 11t18 -19q2 -6 16 -43l25 -67q6 -23 10 -68h-2q2 -4 6 -8v-105h2v-26
l2 -29v-63l-2 -47z" />
    <glyph glyph-name="five" unicode="5" horiz-adv-x="784" 
d="M639 494q6 0 8 -2v8q-12 -4 -20 -6q4 -2 8 -7q4 4 4 7zM133 195q1 -1 6 -11q12 6 17 11h-23zM172 199l12 -11q4 4 6 5l-6 12h-8q-4 -4 -4 -6zM596 686q0 2 4 6q-2 0 -2 2q-8 -4 -14 -8q6 -4 14 -8l2 2q-4 4 -4 6zM252 772l-6 6h-15q4 -4 17 -12q0 2 4 6zM190 205
q8 0 13 -2l4 6l-4 8zM647 522q4 0 10 1t9 1l-4 8q-13 -4 -17 -4l2 -2v-4zM608 602q20 -20 29 -4q-8 4 -29 4zM532 1260l9 8q-11 4 -17 2t-8 -2q8 -2 16 -8zM506 1315h-6l-8 -12v-5q12 4 18 9q-4 4 -4 8zM567 733l-10 12q-2 -2 -6 -5t-8 -7l16 -4q4 4 8 4zM553 748l-16 22
l-9 -8q21 -17 23 -17zM502 1272q0 4 -2 10q-4 -2 -17 -6v-2q4 -2 13 -2q4 -8 6 -10q8 4 12 8q-6 6 -6 10l-4 -8h-2zM598 1325q-8 4 -27 4q-2 -4 -2 -12q8 -8 9 -14q5 -5 14 -5q4 17 6 27zM386 29q-22 -1 -106 23t-92 28q-43 12 -116 61q-33 23 -41 86v4q4 8 6 15q20 0 33 -2
v4l4 -4l45 6q8 2 19 0q12 -2 22 5t56 -23t64 -42q16 -10 50 -10q48 1 132 75q59 52 59 155q1 102 -2 128t-13 67q-10 40 -57 120q-4 8 -13 10q-49 25 -76 23l-38 -6q-20 -2 -29 -21q0 -18 -25 -31q0 -2 2 -8t2 -10q-45 22 -50 21t-29 -1v-12q-20 -4 -39 10q-18 18 -18 54
t-1 71q0 35 -2 54l-6 79q-2 20 -9 73t-13 96q-5 41 -3 55t2 18v35q0 14 2 22q10 5 23 5q18 -10 47 18q27 0 41 4t46 11t89 22t127 31l74 6q43 0 59 16q41 25 75 -16q5 -6 11 -12t11 -13l24 -37q27 -22 -20 -61l-17 -12q-6 -23 -49 -41q-6 -2 -13 -3q-6 -1 -16 -3t-20 -5
q-10 -4 -30 -4t-48 -6l-66 -6q-22 0 -32 -2l-23 -6q-29 -4 -63 -6t-66 -4l11 -58h2q-2 -2 -2 -8h4v-221q90 30 146 32q55 1 67 -12q4 -2 11 -4t12 -5l50 -30q12 -4 17 -6q33 -10 37 -43q4 -6 18 -25t19 -53q22 -66 22 -80t2 -18h2q7 -24 14 -119l-6 -32l2 -39l-8 -35
q-2 -6 -9 -46t-50 -118q2 -25 -23 -53q-11 -22 -28 -39q-17 -19 -23 -25t-12 -13q-7 -7 -15 -14t-20 -17t-30 -13q-18 -2 -29 -6q-3 -6 -23 -5t-42 1z" />
    <glyph glyph-name="six" unicode="6" horiz-adv-x="806" 
d="M438 100v-10l8 -8l9 8h2q2 2 4 2h6q15 0 25 4q4 6 8 15l-6 4q-25 -8 -35 -11v-4q-16 4 -23 4v-2q2 0 2 -2zM207 516h-2v-4l2 -4q-2 0 3 -11t9 -37t11 -40q8 -14 24 -40t20 -36q4 -2 8 -8t15 -15q10 -9 25 -29t63 -42q25 -16 43 -17q68 0 102 58t40 83q5 25 10 38t14 51
q16 41 14 53v25q-6 45 -13 62t-40 65q-14 18 -39 28q-61 27 -133 9l-74 -25q-53 -29 -84 -42t-22 -63q4 -20 4 -59zM590 1300q-2 0 -2 3q-33 -29 -45 -34q-13 -5 -31 -21t-46 -36q-28 -21 -72 -77q-43 -56 -48 -78q-2 2 -4 0q-2 -1 -5 -13t-41 -91t-67 -169q6 -10 19 -4
q49 27 132 27q168 0 204 -20t49 -24q11 -3 25 -17t30 -27q16 -14 23 -22t27 -49t22 -48q-2 0 -6 -2q4 -29 8 -90q-8 -8 -14 -16q10 -10 18 -43l-10 -13l-2 -8q0 -10 4 -33t-3 -33t-10 -28t-9 -26q-5 -9 -4 -16q2 -14 -20 -39t-26 -65q-8 -35 -22 -47l-37 -43q-9 -10 -25 -9
t-27 -7q-4 -8 -28 -12l-37 -13q-12 -6 -162 41q-70 30 -98 54t-69 63q-42 39 -79 101t-53 134q-16 71 2 192q18 120 66 228q8 22 19 48t16 38q4 12 9 20t16 31q11 22 18 31l36 62q41 64 69 94q28 31 40 45t49 51q10 8 55 39q74 63 111 76v8q49 20 74 10q45 -16 37 -61
q-8 -8 -15 -12q-4 -29 -28 -31q-23 -12 -31 -12l-2 -2v-5z" />
    <glyph glyph-name="seven" unicode="7" horiz-adv-x="794" 
d="M291 68v6l2 4l-8 8q0 -14 -2 -20q4 2 8 2zM234 1249q-4 0 -5 -2q9 0 13 -4q4 7 8 19h-2q-2 2 -4 2q-6 -13 -4 -13q-2 -2 -6 -2zM297 1237l2 10q-4 4 -16 13l-4 -5q0 -2 6 -9t8 -11q2 2 4 2zM348 1244v-9l4 -2q7 2 15 10q0 11 -5 14l-12 -6q-2 -2 -2 -7zM405 29l-22 8h-8
q-2 0 -10 -4l-9 8q-47 -10 -77 14q-12 12 -3 61t12 62q4 12 8 23q3 10 6 26t34 92q14 45 31 111t30 112q13 45 17 66q119 401 178 606q0 2 -2 7l2 4q0 4 -8 20q-4 0 -6 2q0 -2 -2 -4t-5 -4q-6 2 -34 10l14 -24h4q-2 0 -2 2t-2 4q4 2 8 6q4 -8 6 -16q-20 -4 -30 -4l-27 2
q-4 2 -12 2q-16 -10 -72 -4t-116 6t-85 10q-24 10 -57 20t-51 21q-19 12 -31 14t-21 17l-22 45l6 18q18 4 51 8h17v2h24l299 -2v2l86 -6v4l4 -2q32 0 50 -4q41 0 61 2l41 2q11 0 47 -12l25 -6q6 0 8 -6q-14 0 -23 -2q4 -6 8 -11h9l16 -16l2 2q0 -45 2 -68h-2q-3 -13 -8 -36
q-4 -23 -12 -43t-14 -41t-9 -33q-4 -12 -14 -51q-4 -4 -4 -9l-13 -47q-27 -93 -31 -116q-5 -23 -8 -31l-24 -74l-2 -16q-7 -18 -12 -38t-9 -26t-4 -28l-20 -56q0 -6 -4 -14v-4q-22 -61 -27 -88q-4 -26 -9 -50t-8 -45t-30 -85q-4 0 -6 -2q2 -16 -5 -58t-16 -53q2 -8 2 -16
q-18 -57 -18 -74l2 -35q-12 -25 -20 -40q-9 -15 -19 -15t-18 -4q-3 2 -7 2z" />
    <glyph glyph-name="eight" unicode="8" 
d="M412 221v-2q8 0 20 -4v2q-8 8 -14 10q0 -4 2 -6h-8zM395 344q0 6 -2 10q-4 -8 -6 -10q6 -6 6 -10l8 8q-2 2 -6 2zM326 776q13 -7 18 -16l2 2h2l-4 12q-12 4 -16 6q-2 -2 -2 -4zM139 287q0 -74 29 -131q8 -18 12 -21q49 -33 101 -14q14 3 20 11q35 44 41 124q-6 74 -11 95
l-9 37q-4 15 -13 45t-16 64q-6 33 -18 57t-54 97q0 6 -6 6l-10 -8v-2q-18 -20 -19 -49l-2 -4q0 -2 -7 -23t-9 -38t-6 -33l-23 -129q-2 0 0 -43v-41zM339 82q-2 0 -20 4v-12q8 2 21 6q0 2 -1 2zM160 1225v-27l8 -31q6 -37 15 -59t10 -27q-4 -10 3 -23q7 -14 17 -48
q10 -36 18 -44q8 -10 9 -12l-2 -2q0 -6 6 -18q4 2 7 5t7 5l25 49q94 223 82 295q-1 23 -11 37t-41 48q-31 33 -67 17t-66 -49q-23 -31 -22 -47l-6 -37l2 -4h2q4 2 6 2q-2 -10 -2 -30zM154 1249h-2l-7 -14q4 -4 9 -6v20zM322 795q2 14 -2 19t-17 3q0 -8 -2 -14q9 -4 21 -8z
M496 252l4 -19l-2 -2q-25 -10 -27 -10q-5 -21 -16 -37v-4q2 -2 -25 -42t-55 -58q-8 -16 -51 -24t-70 -1q-37 -7 -82 5t-63 28q-47 43 -56 98q-10 92 -10 110t3 49l10 88q6 57 18 89t20 57t13 37t20 56t24 60q9 17 11 22l-43 92q-15 32 -23 54t-17 49t-15 51t-11 40l-8 35
l-2 35v43q4 88 40 156t75 90q74 45 118 45q4 0 54 -10q20 -8 71 -50q24 -24 31 -42q8 -19 21 -48t4 -58q-8 -30 -8 -48q-17 -62 -32 -101t-22 -56q-6 -17 -26 -62l-25 -62q-2 -2 -5 -7t-5 -8q-2 -2 -10 -18t-12 -23t3 -26q25 -41 39 -63l19 -25l-2 -4q21 -35 35 -53
q-2 -2 -7 -10l15 -11q-2 -6 5 -16t7 -16h-4q2 -6 10 -19v-4h2l23 -49q-3 -15 7 -38q9 -23 11 -32q6 0 10 -2q10 -45 15 -59q-2 -2 -4 -2q4 -4 8 -6v-84l-4 -4v-11q0 -4 4 -12l-4 -14q0 -4 3 -16q3 -13 -7 -23z" />
    <glyph glyph-name="nine" unicode="9" horiz-adv-x="634" 
d="M332 1298q-41 0 -58 -14q-4 0 -4 -2q-49 -18 -59 -76q-4 -4 -8 -6l2 -2l2 -22q-2 -8 -2 -24t-2 -26v-2l-2 -22v-43h-2l2 -8h-2l-2 -25v-16q0 -37 2 -56l6 -67l2 -2v-8q11 -106 20 -118q8 -11 18 -33t29 -52q12 -14 31 -6q37 28 52 60t29 67t19 63q3 28 9 81q13 120 4 212
q-9 91 -60 131q-16 16 -26 16zM584 657q6 -59 6 -69t2 -17v-4q-6 -2 -2 -22l2 -21l-2 -45q6 -8 1 -19q-5 -10 -3 -20t3 -14t1 -14v-31q0 -12 -2 -25l-8 -53l-7 -18q-19 -146 -53 -209v-2q-8 -4 -23 -22t-27 -21q-12 -2 -15 -4l-37 -7l-66 -6q-18 2 -60 10t-74 13t-74 21
t-68 59t-32 58t1 38l6 10q37 17 59 15t27 -7q4 -10 23 -6q10 -4 26 -12l-2 -2l10 -10q6 -7 12 -13q5 -6 10 -10t8 -8q4 -4 12 -13t15 -17q28 -30 62 -19q34 10 48 25q14 14 43 135l12 139l8 145l2 29h-12q-39 -16 -68 -6t-84 24t-76 23q-22 10 -43 37q-49 70 -59 153t-6 119
q22 193 47 256q12 78 49 121q18 27 49 37l31 12q31 12 73 18t60 5q18 1 48 -9t38 -12q2 -4 2 -10l6 6q14 -14 19 -27l-2 -2q51 -71 51 -88q20 -20 20 -67l4 -8q-2 0 -2 -6t7 -11h4q-4 -25 -6 -35h-3q2 -2 9 -16l2 -43q4 -61 4 -94l-8 -58l2 -30q2 -18 2 -56v-18l-2 -29
l2 -12q0 -8 -4 -25l6 -36q2 -6 -4 -50z" />
    <glyph glyph-name="colon" unicode=":" horiz-adv-x="274" 
d="M43 502q-6 66 70 71q47 3 81 -27t32 -64q-5 -68 -60 -72q-47 -4 -84 24t-39 68zM154 930q-37 -2 -70 30t-30 73q4 43 22 63t57 17t71 -34t27 -61q-12 -82 -77 -88z" />
    <glyph glyph-name="semicolon" unicode=";" horiz-adv-x="290" 
d="M94 1048q19 21 57 18q39 -3 71 -34t26 -61q-12 -86 -76 -88q-37 -1 -71 29q-33 30 -29 72t22 64zM158 430q2 0 5 1t7 1l-8 8h-4v-10zM152 362h2q4 8 4 12v5q-2 -2 -8 -6q0 -4 2 -8v-3zM143 479q0 6 -4 8q0 -6 -4 -10q2 -2 4 -2l4 -4v8zM115 625q2 -1 15 -7q12 -6 20 -11
t24 -29t21 -50q4 -24 14 -61t5 -48t-13 -37t-27 -52l-51 -51q-25 -29 -49 -38t-33 1q45 90 52 101t21 55q29 95 -10 186q-2 6 -4 14t-4 12l2 6q8 6 17 9z" />
    <glyph glyph-name="less" unicode="&#x3c;" horiz-adv-x="505" 
d="M117 653q-2 0 -2 -2h2v2zM184 590l-2 -2q0 -4 2 -6h2l-2 4v4zM86 668q6 0 33 -11q-25 15 -33 11zM311 973l8 24h-14zM438 1080q0 -30 -12 -56t-109 -164q-96 -139 -102 -151q35 -45 124 -130t126 -137q-4 -6 -6 -27t-25 -28q-111 54 -273 207q-75 70 -120 104
q17 19 22 35q29 0 29 21q60 73 130 182q71 110 73 111h-2q2 2 6 10q4 -2 14 -2q2 4 8 12q5 8 7 12q10 4 40 32t54 26q16 -27 16 -57z" />
    <glyph glyph-name="equal" unicode="=" horiz-adv-x="706" 
d="M268 946v4l-4 -4l2 -2q2 0 2 2zM217 991h2l-2 2v-2zM516 932v2l-2 -2h2zM137 987h2l-2 2v-2zM575 950h-2l2 -2v2zM104 899q-2 0 -2 2v-2h2zM360 866v2l-2 -2h2zM573 948h-2l2 -2v2zM121 973h2v2q0 -2 -2 -2zM131 954v-2l2 2h-2zM627 881v2h-2q0 -2 2 -2zM528 981v-2h2v2
h-2zM571 997v-4l2 2q0 2 -2 2zM317 887q0 -2 2 -2v2h-2zM190 936h-2v-4l2 2v2zM627 971v2h-2q2 0 2 -2zM145 967v2l-2 -2h2zM256 918q2 0 2 2h-2v-2zM262 985q2 0 2 2h-2v-2zM350 985q2 0 2 2h-2v-2zM354 934v-4l2 2q-2 0 -2 2zM383 952h2q0 2 -2 2v-2zM596 969h2v2h-2v-2z
M356 877v2q0 -2 -2 -2h2zM362 958h3l-3 3v-3zM377 879v-2l2 2h-2zM520 948v4l-2 -2q0 -2 2 -2zM195 932q0 2 2 2l-2 2v-4zM360 874v3h-2q0 -3 2 -3zM201 956l-2 2l-2 -2l2 -2q0 2 2 2zM106 952h3l-3 2v-2zM182 981l2 2v2l-2 -2v-2zM655 950v-2h2q0 2 -2 2zM158 967v2h-2
q0 -2 2 -2zM227 987q2 0 2 2h-2v-2zM221 936v2l-2 -2v-2q2 0 2 2zM471 999q0 -2 2 -4v4l-2 2v-2zM244 932v4v-4zM334 930v4l-2 -2q0 -2 2 -2zM324 885h-2q0 -2 2 -4v4zM125 956v2h-2q0 -2 2 -2zM430 895h2q0 2 -2 2v-2zM365 883v-2l2 2h-2zM330 905v-4l2 2q0 2 -2 2z
M262 975v4v-4zM573 922q2 0 2 2l-2 2v-4zM184 942v2h-2q0 -2 2 -2zM227 952h2l-2 2v-2zM135 963h2q0 2 -2 4v-4zM174 961v-7l2 4zM461 989v2l-2 2q0 -2 2 -4zM312 983h1v4l-2 -2q0 -2 1 -2zM338 901v4l-2 -2q0 -2 2 -2zM588 1006q0 2 -2 4v-2q0 -2 2 -4v2zM506 969q0 2 -2 2
v-2h2zM539 983h-4l2 -2q2 0 2 2zM96 981q-2 0 -2 -2v-2l2 2v2zM453 956q0 -2 -2 -2l2 -2v4zM131 979v-4l2 2v4zM414 979v2q0 2 -2 2l-2 -2l2 -2h2zM209 934v4l-2 -2q0 -2 2 -2zM354 981v-4l2 2zM657 969q2 0 2 2l-2 2l-2 -2zM229 889h2l2 2l-2 2q-2 0 -2 -4zM240 963v2
l-2 -2v-7q2 4 2 7zM217 897v2q0 2 -2 4v-4t2 -2zM179 975q1 0 1 2l-2 2q0 -2 -2 -4h3zM344 913q0 4 -2 5v-3q0 -2 2 -2zM262 895v4l-2 2q0 -4 2 -6zM408 952v6l-2 -2q0 -2 2 -4zM571 920q0 2 -1 2t-1 2l-2 -2l4 -4v2zM160 975h-2l2 -4q2 2 4 2q-2 2 -4 2zM420 932q0 -4 2 -6
q0 4 2 4l-2 2h-2zM168 985l-2 2l-2 -2l2 -2zM401 938l-2 2h-2q2 -2 2 -4zM352 905l2 -2h2q-2 2 -2 4zM635 987h4l-4 4h-2l2 -2v-2zM244 981l4 4h-2q-2 -2 -2 -4zM545 987h-2q2 -2 2 -4l2 2q0 2 -2 2zM293 950q2 0 2 2l-2 2q-2 0 -2 -1v-2t2 -1zM592 979l2 4v4l-2 -2v-6z
M121 987q0 -2 2 -4q0 2 2 2l-2 2h-2zM399 989h-2v-6l2 -2v8zM639 961l4 -5l2 2q0 2 -2 5zM383 887l2 2q0 4 -2 6v-8zM362 942l3 2v4q-2 2 -3 4l-2 -2q2 -2 2 -8zM312 922q-1 0 -2 1t-1 -1l2 -2v-2l2 2q0 2 -1 2zM446 967q-2 0 -2 -2l2 -2q2 0 3 2q-1 2 -3 2zM184 954l4 -6v6
l-2 2q-2 0 -2 -2zM270 905q-4 4 -4 6l-2 -2q4 -4 4 -6zM487 971q2 2 2 4l-2 2v2l-2 -2q0 -2 2 -6zM338 977l-2 -2v-2q2 -2 2 -4l4 4zM606 975q2 0 2 2l-2 2q0 4 -2 4l-2 -2q4 -4 4 -6zM627 938h2l2 2l-4 4q-2 -2 -2 -4zM481 987v8l-4 -4l2 -4h2zM139 971v-4q4 4 4 6l-2 2
q-2 -2 -2 -4zM616 985q2 0 2 2l-2 4l-2 -2q0 -4 2 -4zM250 879l-2 4l-4 -4q2 -2 2 -5zM330 971q0 2 -2 2q-2 -2 -2 -4v-4q4 4 4 6zM248 903q4 4 4 6l-2 2q-4 0 -4 -6zM367 995h-2q4 -8 4 -12l2 2q0 10 -4 10zM88 965l2 4q-4 8 -4 10l-2 -4q0 -2 4 -10zM303 979l4 8l-2 2
l-6 -6zM61 911q-4 0 -8 -10q2 -4 6 4l2 2v4zM465 989l-1 -10h1q4 2 4 0q2 0 2 2q-4 4 -6 8zM385 942l-4 -12v-6l6 12q0 2 -2 6zM158 958q-4 8 -6 9l-5 -9h5q2 -2 4 -2zM506 975l6 -8q2 0 8 6l-4 8q0 -12 -10 -6zM197 969q2 4 6 8q-8 4 -15 10q-2 -2 0 -4t9 -14zM318 950
q2 0 4 -2q4 4 2 14t0 13v2q-4 -2 -3 -13t-6 -12q1 -2 3 -2zM276 950v17q-10 0 -14 -13v-11q0 -5 2 -5q4 4 15 4q12 8 6 25l-2 -13q-4 -4 -7 -4zM473 963q2 0 10 -9v7q2 -1 7 -1q6 0 12 -8t9 -8t5 2l-2 12h-2v-10h-2q-3 17 -16 17q-6 0 -11 4h-4l-8 -4q0 -2 2 -2zM418 926
l-2 16q-2 0 -7 -10t1 -16t6 -1zM266 983l10 -8q2 0 4 3t0 6q-3 3 -16 7q2 -2 2 -8zM100 958h2q4 0 0 5q0 6 -2 6q-8 9 -8 -1t8 -10zM418 909q8 -4 12 9q0 6 -2 8q0 -3 -10 -17zM449 932h-9q11 -10 15 -6l-4 4q0 2 -2 2zM436 915q0 1 2 7t-4 10q0 -15 2 -17zM296 967
q-3 0 -3 4h-2l2 -13q4 0 5 4t-2 5zM442 940q0 4 -6 4l-2 -2l2 -6q6 0 6 4zM248 950v4q-2 4 -2 11l-2 -2l2 -15q2 0 2 2zM117 983h-2l-4 2l-2 -4q2 -6 5 -3t3 5zM375 930q-2 0 -2 -2l2 -2v4zM213 981q-2 0 -4 2h-4v-2q4 -4 8 -6v6zM467 938q-4 14 -10 6q8 -4 10 -6zM268 872
h-8q4 -2 8 -6v6zM492 928q5 9 2 12q-2 -2 -3 -5t-2 -5zM360 909v4q-2 -2 -2 -4v-4q2 2 2 4zM627 914q0 1 -2 1l-2 -2l4 -2l2 2q-2 0 -2 1zM344 981h2q0 6 -2 8v-8zM68 946q2 0 2 2t2 4l-4 -2v-4zM404 913h-3q5 -4 7 -4zM457 907v4l-4 4zM332 913h2v2h-4q2 0 2 -2zM430 950
q0 -2 -4 -2v-2q4 0 4 4zM614 950h-2l2 -2v2zM383 991q2 0 2 2v2q-2 -2 -2 -4zM385 963h-2v-2q0 2 2 2zM352 965q0 -2 1 -2l1 2h-2zM342 946h2l-2 2v-2zM379 958v-4v4zM477 981h2l-2 2v-2zM276 922v4h-2q2 -2 2 -4zM145 864q0 2 -2 2zM596 958q0 -2 2 -2zM588 907l-2 -2
q2 0 2 2zM240 891h-2l2 -2v2zM252 961q4 0 4 4q4 2 3 6t-5 4q-2 -10 -2 -14zM285 989q0 2 -2 6l-2 -2zM326 930v2q-4 0 -7 2v-2q3 -2 7 -2zM377 938q2 0 2 4v2q-2 -2 -2 -6zM240 995q7 0 12 -10q2 4 6 4q17 17 33 4q11 5 14 2q0 6 6 5t24 3t25 -12q2 10 13 10l39 -2
q28 0 61 9q66 0 70 2l6 -6q0 8 10 8h24q53 0 72 -25q10 -10 7 -29l2 -40q4 -37 -27 -41q-78 -13 -117 -11t-53 2l-53 -4q-8 0 -22 -2t-13 2l-4 4v-6q0 -4 -4 -4h-95q0 2 3 6v2l-5 -4q2 -2 2 -4q-145 -6 -155 -4t-34 4t-36 6t-7 45t17 56q23 23 35 23t37 3h62q6 6 10 0
q2 4 8 -1t8 3l4 2h15zM268 662l2 -5l-2 -2h-2l-2 2zM217 707q0 -2 2 -2l-2 -3v5zM451 649v-2l2 2h-2zM621 594v2h-3v-2h3zM449 629v2h-3q1 -2 3 -2zM575 662v2l-2 -2h2zM121 686q2 0 2 -2v2h-2zM133 666h-2v-2q0 2 2 2zM289 696v-2q2 2 0 2zM471 610v-2l2 2h-2zM627 594v2
h-2v-2h2zM528 692v-2h2v2h-2zM571 707q2 0 2 2h-2v-2zM317 598h2v2q-2 0 -2 -2zM188 645q2 0 2 2h-2v-2zM627 686h-2l2 -2v2zM145 680h-2l2 -2v2zM256 633v-4l2 2zM262 698h2v2q-2 0 -2 -2zM350 698h2q0 2 -2 2v-2zM354 643h2l-2 2v-2zM383 666h2q0 2 -2 2v-2zM596 682h2v2
q-2 0 -2 -2zM356 590h-2l2 -2v2zM362 670h3l-3 2v-2zM377 588q0 2 2 2l-2 2v-4zM520 662v2h-2q0 -2 2 -2zM195 647v-2l2 2h-2zM360 590q-2 0 -2 -2l2 -2v4zM199 670q-2 0 -2 -2h2l2 2h-2zM106 668v-4l3 2q-2 0 -3 2zM182 694q2 0 2 2h-2v-2zM655 664v-5l2 3zM158 680v2
q-2 0 -2 -2h2zM227 702v-4l2 2zM221 647v2h-2v-2h2zM473 711q0 2 -2 2q0 -2 2 -4v2zM244 647h-2l2 -2v2zM334 641v6l-2 -2q0 -2 2 -4zM324 594v4l-2 -2zM125 670q0 2 -2 2q0 -2 2 -4v2zM430 608q0 -2 2 -2v2l-2 2v-2zM365 592q0 2 2 2l-2 2v-4zM332 614q0 2 -2 2v-2h2z
M262 690h-2l2 -2v2zM573 637v-4l2 2q0 2 -2 2zM184 657h-2q0 -2 2 -4v4zM227 664q0 2 2 2l-2 2v-4zM135 678v-4l2 2q0 2 -2 2zM176 672q-2 0 -2 2v-6q2 2 2 4zM461 702v3l-2 2v-2q0 -3 2 -3zM312 696h1v4l-2 -2q0 -2 1 -2zM336 614h2v4q-2 -2 -2 -4zM588 719q0 2 -2 2v-2
l2 -2v2zM504 684v-4q2 0 2 2t-2 2zM535 694q2 0 2 -2l2 2l-2 2zM96 692v2l-2 -2v-4q2 2 2 4zM453 664v4h-2q2 -2 2 -4zM131 692v-4l2 2v2h-2zM414 692q0 2 -2 4q0 -2 -2 -2l4 -4v2zM209 645v6l-2 -2q0 -2 2 -4zM354 688l2 2l-2 2v-4zM658 684h-3q2 -2 2 -4l2 2q0 2 -1 2z
M229 602q0 -2 2 -2q0 2 2 2l-2 2q-2 0 -2 -2zM238 674v-4l2 4v4q-2 -2 -2 -4zM217 610q0 4 -2 4l-2 -2q2 -2 4 -2zM178 686q2 2 2 4l-2 2q0 -2 -2 -4zM344 627q0 2 -2 4v-2q0 -2 2 -4v2zM262 608v2l-2 4q0 -4 2 -6zM408 670q-2 0 -2 -2l2 -2v4zM571 629v4l-2 2h-2q2 -2 4 -6
zM160 688q0 -2 -2 -2l2 -2q2 0 4 2l-2 2h-2zM422 639q0 2 2 4l-2 2l-2 -2q0 -2 2 -4zM168 698l-2 2q0 -2 -2 -2l2 -2q2 0 2 2zM397 653l2 -4q2 0 2 2l-2 2h-2zM352 618v-2l2 -2q0 2 2 2l-2 2h-2zM639 700l-4 5l-2 -3l2 -2h4zM245 696q-1 0 -1 -2v-2l4 4l-2 2q0 -2 -1 -2z
M547 698q0 2 -2 2l-2 -2q2 0 2 -4q2 2 2 4zM293 664h2l-2 2h-4q2 -2 4 -2zM594 696v4l-2 -2v-6q2 2 2 4zM121 698q0 -2 2 -2l2 2l-2 2q-2 0 -2 -2zM399 692v10l-2 -2v-4q2 -2 2 -4zM645 670q0 4 -2 6q0 -2 -4 -2l4 -4h2zM385 602q0 2 -2 4q0 -2 -2 -4l2 -2q2 0 2 2zM362 653
l3 4v2q-2 4 -3 7l-2 -2q2 -5 2 -11zM311 629l2 2l-2 2v-4zM444 676l2 -2l3 2q0 4 -3 4q-2 -2 -2 -4zM184 668q0 -2 4 -6q0 2 -1 4t-1 4zM268 614q2 2 0 6t-2 5l-2 -2q4 -5 4 -9zM487 682l2 4q0 2 -2 6l-2 -2l2 -2v-6zM337 688q-1 0 -1 -2t1 -2t1 -2l4 4l-4 4q0 -2 -1 -2z
M608 688q-2 0 -2 2t-2 4h-2l4 -6h2zM626 651q1 0 1 -2l4 4l-2 2h-2l-2 -2q0 -2 1 -2zM481 709l-4 -4l2 -3v-4l2 2v9zM139 684v-6l4 8l-2 2q-2 -2 -2 -4zM614 700q0 -2 2 -4q2 2 2 4l-2 5q-2 -3 -2 -5zM246 593q0 -1 -2 -1l2 -4l2 2h2l-2 4q-2 0 -2 -1zM326 678l4 4q0 4 -2 4
l-2 -4v-4zM246 618q0 -2 2 -2l4 5l-2 4q-4 -5 -4 -7zM369 694q0 2 1 2t1 6t-4 7q0 -2 -2 -2q4 -8 4 -13zM88 678l2 4q-4 4 -4 8l-2 -2q0 -2 4 -10zM303 690l4 10l-2 2l-6 -6q4 -4 4 -6zM61 623q-6 0 -8 -9q2 -4 4 0t3 4t1 3v2zM465 700v-8l4 -2l2 2q-2 4 -6 8zM385 655
q0 -8 -4 -12v-6l6 12q-2 4 -2 6zM158 672q-2 2 -6 8q-2 -6 -5 -8q2 -2 9 -2zM516 694q0 -12 -10 -8l6 -8l8 8q0 2 -2 4t-2 4zM186 696l11 -14l6 6q-6 6 -15 10zM317 664q3 -2 6 0t1 11t0 13v2q-4 -2 -3 -13t-6 -13h2zM459 696q-2 7 -6 9q-2 0 -4 2q0 -1 1 -5t-2 -6t-4 6
q-2 9 -4 9q3 -6 -2 -15h-2q-8 8 -11 6t3 -10t14 -12q10 10 12 9t3 5zM276 664v14q-10 4 -14 -10v-13q0 -6 5 -4t12 4q12 8 6 25l-2 -12q-4 -4 -7 -4zM483 672h6q7 2 13 -7t9 -9t5 1l-2 15h-2v-13q-2 1 -3 9t-15 8l-15 6l-8 -4q4 -4 6 -4l6 -6v4zM414 654q0 -1 -5 -10t1 -15
t6 0l2 10l-2 16q-2 0 -2 -1zM266 696l10 -10q2 2 5 8q-2 4 -17 8q2 -2 2 -6zM98 670h4l2 2l-2 2q0 6 -5 11t-5 -5t6 -10zM418 623q8 -4 12 8q0 4 -2 8q-2 -10 -10 -16zM451 643h-11l9 -8h2l4 2q0 2 -2 2zM436 627l2 4q0 2 1 6t-5 8q0 -16 2 -18zM296 678q-3 0 -3 4l-2 2
l2 -12h4q2 6 -1 6zM442 655h-7q-1 0 -1 -2l2 -4q6 0 6 6zM246 676h-2q0 -4 1 -8t1 -9l2 3v4q-2 4 -2 10zM111 698q-2 -4 -1 -7t7 3q-4 4 -6 4zM375 643q-2 0 -2 -2l2 -2v4zM213 694h-4l-4 2v-2q4 -4 8 -6v6zM467 649q-2 8 -3 10t-7 -2q8 -4 10 -8zM307 684q0 -4 -2 -3t-4 1
l2 -4q2 0 6 4v4zM260 586v-2q4 -2 8 -6v8h-8zM492 648q0 -3 -3 -5q3 -2 3 -4q4 9 2 14q-2 -2 -2 -5zM360 623v2l-2 -2v-7q2 3 2 7zM627 628q0 1 -1 0t-3 -1l4 -4v2l2 2q-2 0 -2 1zM344 694h2q0 4 -2 8v-8zM68 659q2 1 2 3t2 4l-4 -4v-3zM408 621l-5 6l-2 -2zM457 618v5l-4 4
zM334 629h-4l4 -4v4zM352 653v4l-2 -2q2 0 2 -2zM430 662q-2 0 -4 -3zM461 641q0 2 -1 2l-1 -2h2zM383 702l2 3v4q-2 -3 -2 -7zM383 676v-2l2 2h-2zM354 678l-2 -2l2 -2v4zM342 657q0 2 2 2l-2 3v-5zM379 668h2l-2 2v-2zM276 639q0 -2 -2 -2l2 -2v4zM143 578l2 -1l-2 3v-2z
M598 670h-2l2 -2v2zM154 612v-2l2 2h-2zM406 647q0 2 -3 2v-2h3zM586 618h2v3q0 -3 -2 -3zM240 604h-2l2 -2v2zM252 676v-4q16 16 2 16q-2 -10 -2 -12zM283 707h-2l2 -2v2zM319 645v-2h7q-2 2 -7 2zM379 655v2q-2 -2 -2 -8q2 2 2 6zM575 623v-2l3 2h-3zM213 643q0 -2 -1 -3
t1 -1v4zM258 702h2q16 14 31 3q8 8 14 2q2 8 6 6t5 -2h3q4 2 35 2q2 0 6 -11q2 12 13 13q25 -4 39 -2l61 6q10 2 35 0t31 0t10 -2q0 6 17 6h34q37 1 51 -17t11 -34l2 -43q4 -35 -27 -39q-66 -14 -150 -10h-20l-53 -2l-29 -5q-6 -4 -6 5l-4 4v-7q-1 -4 -33 -4t-66 -2v2
q-164 -13 -220 5q-16 6 -12 46q5 40 21 60q16 19 31 18l99 5q6 6 10 -3q2 4 8 0t8 3l4 4q23 -4 27 -13q2 6 6 6zM449 993q0 -2 1 -5t-2 -5t-4 6q-2 8 -4 8q2 -2 -2 -14q-2 0 -6 5t-7 2t5 -11q4 -10 12 -10l11 8q4 -2 6 2v4l-2 6q-4 4 -8 4zM483 961v4l-2 -2zM420 977l-2 -2
q-4 0 -4 -2l8 -8l4 4q-2 2 -4 0q0 6 -2 8zM422 983v2l-2 2v-10q2 2 2 6zM307 971v-4l2 2v4zM305 967q0 2 -4 2l2 -4q0 2 2 2zM659 926v2q-4 4 -8 2q0 -2 2 -4h6zM657 932q0 2 2 2h-2v-2zM514 920v-5l4 5h-4zM518 920h2v4q-2 -2 -2 -4zM72 936v-2l2 2v4q-2 -2 -2 -4zM74 940
q0 4 4 4l-2 2l-2 -2v-4zM78 944q2 -2 2 -6l2 2v2l-2 4zM582 909q0 -2 -2 -2q6 0 8 2h-6zM213 930q0 -2 -2 -2l2 -2v4zM573 659v3l-2 -3h2zM311 633v4l-2 -2zM483 672q0 2 -2 4h2v-4zM420 688h-2l-4 -2q4 -8 8 -10l4 4q-2 4 -4 2q0 4 -2 6zM420 688q2 2 2 8l-2 2v-10z
M651 643q0 -4 2 -4q4 0 6 -2v2l-2 4h-6zM657 643q0 2 2 4h-2v-4zM518 633l-4 -2v-2zM520 633v2l-2 -2h2zM74 653l-2 -4v-2l2 2v4zM74 653l4 4h-2q-2 -2 -2 -4zM80 659v-8l2 2v2zM588 621q-2 0 -6 2q0 -2 -2 -5q4 3 8 3zM276 571l3 7l-5 -3q0 -2 1 -2z" />
    <glyph glyph-name="greater" unicode="&#x3e;" horiz-adv-x="530" 
d="M184 948q4 0 4 3t-2 5h-2v-8zM410 748v8h-4v-6l2 -2h2zM41 1124q16 4 22 4q39 37 84 5q98 -65 176 -139t104 -106t41 -78t20 -60q6 -14 -28 -56t-85 -92q-51 -49 -119 -108t-100 -93q-58 -50 -85 8q-13 28 -3 46q8 18 61 65q102 82 133 121t60 75t38 50q-8 10 -74 72
t-88 90q-22 30 -80 90t-77 106z" />
    <glyph glyph-name="question" unicode="?" horiz-adv-x="534" 
d="M242 127h2l-2 2v-2zM242 117v-2h4l-2 2h-2zM270 100q0 2 -1 2t-1 2l-2 -2l2 -2h2zM236 180h2l-5 8l-2 -2l2 -2q0 -4 3 -4zM252 129q-6 -4 0 -10q4 8 0 10zM260 111q-10 -6 -2 -11q4 3 2 11zM221 180q0 10 -8 10q0 -10 8 -10zM156 154q0 39 28 45q53 14 80 -11
q43 -42 42 -74q0 -32 -26 -61t-57 -12q-67 33 -67 113zM365 1094q-2 0 -3 -2h3v2zM68 653v-2l2 2h-2zM104 735v4v-4zM152 672v2h-5v-2h5zM324 1292v2q-2 0 -2 2v-2q0 -2 2 -2zM94 578v2h-2v-2h2zM63 643h-2q0 -4 7 -14q-5 12 -5 14zM223 440l2 2h-4zM72 633q-2 0 -4 -2l2 -2
l4 4h-2zM188 424q0 2 2 12l-6 -12h4zM90 559h4q-2 2 -4 14v-14zM295 299v4h-12l8 -4h4zM194 1376q1 0 1 -2l4 4l-4 4l-2 -4q0 -2 1 -2zM68 602q2 0 2 2q-2 2 -11 12zM92 667q0 3 -2 5h-4l4 -8q2 0 2 3zM164 893q8 0 6 6zM199 987v2l-4 4l-2 -2q4 -4 6 -4zM252 1063h-2
q-2 -2 -2 -8h4v8zM244 391q-10 -2 -4 -8q6 0 4 8zM119 514q0 4 -2 4l-4 -2h-7v-2l3 -2q2 2 10 2zM190 911q-14 -6 -8 -14q0 2 3 6t5 8zM119 539q-2 0 -4 2l-6 -13q2 0 2 -2q8 8 8 13zM274 1065q-12 -8 -4 -14q0 2 4 14zM154 514q-12 -10 -9 -20q10 0 8 10q-1 4 1 10z
M203 969q0 10 -4 14q-3 0 -15 -4q12 -6 19 -10zM178 905q6 11 1 17t-9 -4q2 -2 4 -6t4 -7zM274 369q-4 14 -22 12q4 -2 11 -6t11 -6zM129 881q12 4 12 18q-12 -2 -12 -18zM416 348q8 2 6 17q-6 -12 -6 -17zM252 1047q0 -8 6 -9q6 9 -6 9zM264 1401v-15q-88 -12 -141 -86
q-6 -6 -6 -14q-11 -4 -25 -32t-37 -29q-29 47 11 123q25 57 85 82t123 18q5 -14 13 -12q0 4 2 8q47 -16 67 -55q57 -100 52 -154q-10 -111 -54 -191q-128 -234 -156 -330t-24 -159q0 -2 -4 -10q4 -7 5 -23q3 -51 56 -77q52 -25 83 -17q32 8 76 15t54 10q4 -1 12 -7t13 -8
q2 -8 13 -27q21 -36 -5 -63q-7 -31 -38 -49t-40 -27q-7 17 -20 14q-14 -3 -17 -3q-131 8 -233 127q-78 94 -80 194v33q-4 49 19 129q26 76 56 127t40 69t16 25h2l74 117q84 135 47 246q-12 39 -39 39q6 6 0 12z" />
    <glyph glyph-name="at" unicode="@" horiz-adv-x="1091" 
d="M614 902q0 119 -47 179q-6 12 -8 19q-12 39 -53 45q-10 0 -23 -4l-28 -6q-6 -4 -43 -41q-25 -14 -38 -38q-14 -24 -28 -62q-14 -37 -14 -40q0 -4 -10 -22q-8 -27 -2 -39q6 -11 -3 -27q-8 -16 -8 -22t4 -15h-2q0 -20 2 -28l4 -27q-2 -16 15 -84q0 -16 6 -28v-9q2 -4 7 -21
t21 -28t18 -15q2 -5 34 -22q41 -27 69 -12q4 8 7 10l2 -2l36 27t33 26q42 94 43 168q6 68 6 118zM743 975v-76q6 -31 5 -39l-7 -86l-4 -35q0 -43 -9 -63t-5 -62l2 -28q2 -2 16 -32t33 -38q147 90 160 313l6 72q2 25 -4 61t-9 119q-3 82 -59 193q-25 41 -38 50t-20 18
q-13 17 -72 53q-58 37 -144 14q-10 0 -65 -25t-87 -36h-12q-39 -25 -70 -70q-8 -8 -23 -28t-21 -26q-6 -7 -21 -38l-31 -56q-8 -18 -15 -38t-15 -44t-11 -40q-2 -16 -6 -23l-8 -27q0 -49 -16 -77q-16 -66 -17 -99l2 -47q4 -33 4 -49v-10q0 -23 2 -35h2q-2 -2 -2 -4l-2 -6
q10 -18 6 -50t11 -46q6 -10 4 -38t21 -76q22 -47 27 -65t19 -38t17 -27q4 -8 9 -14t23 -34t87 -72t169 -73q10 -2 47 -1t54 12q103 59 112 59q30 20 150 119q14 12 47 6q21 -54 14 -96q0 -10 -2 -15v-12q-6 -6 -15 -38t-44 -54v-2l-2 -2l-12 -25q-10 0 -17 2q-8 -12 -10 -18
q-6 -5 -45 -17t-76 -25q-105 -36 -193 -9q-87 26 -97 28q-11 2 -17 4q-17 0 -150 86q-2 0 -10 -4q-12 12 -16 19q-6 4 -51 41q-45 36 -72 62q-64 60 -121 247q-12 45 -24 91t0 185q5 107 43 242q70 244 141 322q12 18 39 36q12 12 66 53q53 40 59 46q7 6 39 20t38 16
q6 3 31 9l101 6q86 -4 138 -9t95 -40q4 -4 25 -15t40 -34q64 -72 69 -84q5 -13 16 -21q12 -8 16 -12q37 -88 37 -127q0 -72 10 -102l4 -46q8 -56 8 -75l-2 -35l9 -39l-3 -14q0 -14 3 -15l2 -41q2 -8 1 -13q-2 -5 -6 -40t-12 -73t-10 -58q-32 -81 -90 -129q-59 -47 -127 -41
q-24 0 -47 14t-54 30q-31 17 -45 44q-4 4 -6 4q-12 -8 -16 -14q-12 -25 -45 -39q-8 -6 -103 -33q-47 -12 -102 25q-11 6 -23 11t-14 9q-72 57 -84 110t-24 77q-8 47 -6 92v98l6 53q0 20 11 47t22 62q11 34 25 70t56 88q37 37 88 48t99 -5q6 -2 25 -4t50 -19l44 -31
q2 -8 17 -17t19 -15q0 -20 13 -29t22 -90q10 -33 10 -39z" />
    <glyph glyph-name="A" unicode="A" horiz-adv-x="606" 
d="M141 903q-10 0 -14 -4q0 -2 2 -5t2 -5q2 2 10 14zM352 487q0 5 4 17q-10 -10 -18 -15q8 -2 14 -2zM344 543l23 -2q2 4 2 8q-4 -2 -11 -2l-14 2v-6zM250 954l-8 -112v-2q-8 -33 -11 -47v-39l-4 -25q4 -35 -4 -45q-2 -10 -4 -39t-10 -53q1 -10 17 -6t46 12q56 15 90 18v-2
q4 -4 7 -8v25q-1 19 -7 49t-12 83t-15 83q-9 29 -15 79q-6 49 -9 75l-15 85q-5 31 -7 41t-2 22t-2 19q-2 0 -4 2q-6 -6 -7 -8l-6 -37q0 -45 -9 -93q-9 -49 -9 -77zM98 735v4l8 78l11 70q0 15 8 31q2 0 14 -5v5l-4 4q-6 2 -10 4q13 0 18 10l-12 8l4 -10h-8q25 176 94 473
q12 0 17 16q0 18 18 15q12 0 22 -20q9 -20 12 -23t10 -13t11 -14l4 4q27 -55 36 -99q11 -54 28 -104q17 -49 23 -83t14 -60t14 -52t10 -40l13 -55q2 -7 5 -23t12 -54t13 -69l13 -67q0 -43 9 -85q9 -41 11 -52q10 -58 23 -89l6 -55q9 -20 18 -72l6 -49q4 -25 6 -35l7 -86
q6 -31 4 -63t-8 -39v-23q0 -12 -26 -11t-44 42q-3 10 -19 39q-27 52 -55 191l-31 159q-5 40 -18 60q2 0 4 2q-4 4 -4 6q-2 -2 -8 -2q-2 -4 -2 -12l-31 -9q-4 0 -12 9q0 -2 4 -11q-43 -2 -80 -6q-14 -14 -45 -6q-27 -12 -27 -56q0 -45 -2 -55t-7 -30t-7 -26t-2 -11l2 -17
l-10 -75q0 -14 -4 -35v-51l-11 -78v-2q-2 -20 -34 -29q-2 0 -15 6q-12 12 -22 10q-35 20 -40 26t-5 30q-9 55 -1 130q7 76 11 96l6 30l12 80q4 25 15 83q20 101 20 199q8 32 8 41z" />
    <glyph glyph-name="B" unicode="B" horiz-adv-x="622" 
d="M442 264q11 0 15 -4l4 4q-4 8 -4 15zM442 391q2 0 4 2l-6 13l-4 -5q6 -6 6 -10zM213 98l37 8q31 4 112 37q14 16 31 50q39 67 34 135q-11 145 -46 190q-10 14 -25 42q-14 28 -19 34t-6 17t-23 33t-56 36q-35 16 -59 29q-14 -39 -17 -43q2 2 6 4t6 4q2 -18 2 -51l-2 -84
q0 -33 5 -90q0 -49 6 -103l-2 -2v-29q2 -14 6 -47v-80l6 -79q0 -2 4 -11zM193 84q2 6 6 14q-2 2 -2 4l-4 -4q-6 -2 -11 -4q9 -4 11 -10zM152 74q2 0 10 -4q2 4 2 6q-12 4 -12 -2zM139 147q2 2 15 9q0 7 -19 2q0 -2 2 -6t2 -5zM117 164q-6 -24 -6 -41q4 -4 16 -4l-6 12
q4 29 8 43l-2 2l-12 -12h2zM111 94q0 8 4 17l-4 2q0 -9 -5 -19h5zM96 532q-6 0 -10 -2v-4l12 -6q2 0 0 3t-2 9zM94 492h4v10q-4 0 -4 -2v-8zM111 436l-2 -2h-5q2 -12 2 -35q8 5 8 19t-3 18zM111 492h2q0 2 2 6v4l-4 2v-12zM113 516h2v19l-2 2h-2q2 -6 2 -21zM113 346v51
q-2 -8 -7 -12l3 -39h4zM111 288q0 -7 -2 -12h4l6 5q4 12 4 18q0 -2 -2 -2v39l-12 -2q0 -14 4 -35q-2 -4 -2 -11zM193 815v21l-7 -13l2 -4q3 -2 5 -4zM199 791h6l2 2q6 -6 8 -11q2 2 4 2l2 31h-2q-4 -6 -8 -18l-4 -2l-6 12q-2 -2 -4 -2q2 -4 2 -14zM250 772q0 2 -1 6t-1 8
q-2 -2 -4 -2v-12h6zM178 1272q-12 -84 -12 -185l2 -16l-2 -61l6 -111q4 -27 12 -37q4 6 107 180l39 97q28 69 16 129t-53 78l-80 10h-12q-6 -2 -21 -2l-2 -74v-8zM121 1507q0 -10 4 -24q4 -15 9 -33t9 -27q8 1 33 13q64 32 135 -4l21 -11q45 -12 86 -67q26 -45 28 -49
q2 -5 12 -25t11 -30q2 -10 -4 -40l-12 -86q-24 -115 -43 -147q-18 -32 -22 -46q-4 -13 -9 -13q-23 -44 -26 -54t-26 -40t-26 -40q-8 -8 -16 -14l2 -4v-8q33 -8 43 -10q51 -35 62 -46q11 -10 22 -19t20 -21l19 -19q16 -15 29 -35q12 -20 30 -46t32 -48t13 -36q0 -15 12 -48
q13 -33 11 -43q-2 -11 -3 -31t-3 -38t-5 -34q-2 -18 -5 -46t-7 -50l-12 -43q-12 -23 -31 -20q-4 -18 -51 -49t-113 -33h-6q-4 -2 -55 0t-73 11t-30 9l9 13h-21q0 18 -4 26q-8 4 -14 9q4 -5 7 -13t5 -10q-4 0 -8 2q2 -6 6 -14q4 0 16 -6l2 -2l2 -5q-4 -12 -16 -25t-20 -13
q-37 0 -44 26q2 0 7 2l-7 25v1q0 1 3 1q-11 44 -11 72l-20 272l2 22l8 5q-4 0 -8 4q2 29 -4 87t-7 114t-1 84t2 30q-6 35 -7 186l-2 113q0 10 5 115l8 252q0 70 10 100l12 6q25 -25 25 -35zM113 205q6 0 10 8t8 10q-6 0 -10 4l8 15q-8 23 -10 28h-4q-6 -4 -4 -32t2 -33z
M104 180l15 10q0 9 -6 15q-23 -6 -9 -25z" />
    <glyph glyph-name="C" unicode="C" horiz-adv-x="710" 
d="M621 150l36 -9q-8 -18 13 -35q0 -16 -22 -23t-17 -28q-3 -6 -23 -24q-20 -17 -44 -22t-56 -15h-21q-82 12 -121 22t-91 54q-52 43 -60 49q-61 66 -104 123t-65 181q-21 124 -23 158q-6 99 22 210l18 79q25 86 36 119t53 117q26 66 36 76q6 12 14 26q7 14 9 21
q10 12 27 39q16 27 26 41q56 81 156 119q61 22 90 23q30 1 62 -19t39 -27q7 -8 7 -27q0 -2 -9 -4t-22 -11t-39 -11t-73 -27q-46 -26 -60 -43q-15 -16 -22 -20q-16 -20 -28 -32t-43 -65q-20 -29 -32 -57t-20 -48t-18 -44q-10 -23 -27 -92l-30 -111q-3 -8 -7 -23t-6 -24
l-8 -45q2 -12 -3 -34t-5 -23l-8 -41v-99q0 -10 9 -50t15 -73t11 -49q12 -12 16 -28q6 -25 28 -65q22 -39 48 -62l2 2q2 -10 2 -11q0 2 2 5l51 -52q66 -66 135 -45q47 18 73 35q27 16 34 19h37z" />
    <glyph glyph-name="D" unicode="D" horiz-adv-x="782" 
d="M203 233l-8 9h-7q2 -4 3 -10t2 -11q4 6 10 12zM451 113q2 0 6 4q-4 8 -4 20l-9 -8q3 -8 7 -16zM334 104q-4 12 -8 21q-6 -8 -9 -16q13 -5 17 -5zM100 803v16q-6 0 -14 -2l10 -16q2 2 4 2zM602 841q0 5 -2 9q-10 -19 6 -25l6 13q0 2 -2 2l-6 -6q-2 2 -2 7zM621 754h14
q0 4 -1 14t-1 14l-10 -8l6 -12q-4 0 -6 2q-2 -4 -2 -10zM287 113h2q2 2 4 6t4 6q-2 0 -4 2l-8 -8q-8 0 -15 2l4 -12q2 -2 9 -3q4 1 4 7zM627 737h-6q-6 -24 0 -24l12 18zM655 656q0 -1 2 -1l9 13l2 10q-4 8 -13 16l-6 -12q14 -14 4 -25q2 0 2 -1zM410 123q0 4 -2 10t-2 8
q-8 -8 -19 -2q6 4 6 7t-4 20q-4 -12 -8 -33l6 -6l2 2v4l12 -10v-6q20 -4 25 -4q11 19 8 26l-12 -18q-4 2 -12 2zM201 406h6v-117l-8 4l2 16h-4v-22q0 -4 -2 -8l12 4v-33l-8 12l-6 -12q12 -8 14 -10q0 -57 -1 -89t15 -45l-4 -8h27q-2 4 -11 23q18 9 52 21q33 12 39 15l24 12
t68 59t58 64q9 16 54 126t56 208q10 98 7 120t-6 65t-15 92t-47 96q-35 46 -39 50t-12 18q-9 14 -54 66q-14 10 -17 14q-4 10 -34 37q-35 18 -109 59q-20 -17 -21 -39t-1 -59q-7 -49 -7 -77t-2 -54t-5 -66t-5 -57l-6 -80q-2 -4 -2 -10l-10 -33q0 -2 4 -10h2q-4 -20 -4 -33
l6 -66l-2 -122q0 -7 -2 -25t1 -42t-3 -42v-22zM358 123q2 0 2 -2l5 -2q4 4 6 8l-4 4v14h-7q-2 6 -2 23q-4 -4 -16 -12q4 -11 16 -11v-22zM461 1237q4 -4 4 -12l14 -2q2 -4 10 -17q2 0 7 -2q0 -2 -2 -4l18 -12q59 -59 109 -156q49 -96 53 -100t6 -18t13 -38q10 -25 26 -106h2
l4 2l12 -107q0 -22 2 -32v-64l-8 -67q-2 -6 -5 -20t-7 -29q-4 -14 -29 -95q-24 -80 -39 -104q-17 -41 -39 -72q-22 -32 -32 -36q-11 -4 -38 -27q-26 -23 -37 -31t-47 -14t-46 -14t-26 -11q-16 -4 -19 -8q-4 -4 -30 -4h-30q-48 -12 -82 -12t-102 6q-6 3 -23 19q-18 17 -18 22
q-6 105 -6 157v43l-2 88q-2 47 -2 144v76q-2 18 -2 55t-2 55l-7 117q0 14 5 39v35q0 51 4 153l8 121q4 98 14 219q4 14 10 15q21 5 27 28q14 0 55 -26q13 -13 17 -25t7 -17q2 -5 28 -7t44 -11q18 -8 74 -22q41 -14 47 -33l7 6q25 -12 26 -29q6 0 12 2l-4 -10q6 -2 19 -10v2z
" />
    <glyph glyph-name="E" unicode="E" horiz-adv-x="626" 
d="M178 807l2 2q-8 12 -12 20q-4 -8 10 -22zM250 201q6 0 10 2v6q-2 2 -6 5t-6 5q-4 -12 -6 -20q2 2 8 2zM203 233q-4 0 -10 -4t-9 -4l11 -10l2 2q8 -4 14 -6q0 4 2 6l-6 2q-2 2 -4 6l-2 2q0 4 2 6zM213 817q4 -31 77 -20t129 6q57 -5 85 -12t37 -9q5 -14 -5 -23t-18 -26
l-12 -12l2 -4v-6l-16 -16q-20 -19 -48 -19t-52 -7t-118 1h-34q-4 -2 -15 -13q2 -4 2 -8h-2l2 -47l2 -2v-4h-2q4 -119 6 -182q8 -6 5 -37q4 -4 4 -6v-58h4q0 -4 4 -12q7 -67 18 -94v-6q6 -6 20 -10t37 -14q24 -10 62 3q39 13 47 19q26 8 52 17t44 9q-2 -6 -2 -10t4 -8
q-4 -12 -6 -19l15 -15q25 -28 19 -38q-5 -10 -5 -18q-4 -33 -33 -47q-55 -23 -89 -26t-43 -9q-10 -6 -24 -6t-23 1q-100 11 -138 42l-35 18q-2 4 -8 10t-8 11q-2 0 -6 4q-4 3 -16 17q-36 39 -58 130q-12 33 -12 97t6 102l-2 31l2 102q0 116 3 166t7 133l12 160
q10 172 22 239q13 67 15 78q7 39 64 39q13 0 20 2l55 6q27 2 80 2l21 2h51q14 0 74 -10l24 -6q10 -4 12 -11t27 -12l31 -6q0 -10 -4 -14q-2 0 -2 2l-19 -18l2 -3q-12 -4 -18 -4t-8 2v-4q-17 -4 -27 -4l-107 -18l-4 2q-8 -4 -39 -4h-34q-25 -4 -66 -13q-16 0 -13 -14t-3 -50
t-6 -48l-5 -36q0 -11 -1 -17t4 -17q6 -42 6 -104l-4 -31l2 -43v-100l-2 -23q-2 -12 -13 -6z" />
    <glyph glyph-name="F" unicode="F" horiz-adv-x="608" 
d="M410 1323q-4 0 -9 4v-14q3 -2 7 -2q2 4 2 12zM121 106h2l4 -2l4 5v6l-2 4q-6 0 -8 -2v-11zM309 795q-4 0 -8 2t-10 -4q2 0 6 -5h-6q2 -2 2 -4q4 2 16 7v4zM166 135q0 5 4 18t3 15t-5 14h-6l-2 -16q0 -4 2 -6q-8 -4 -17 -10l13 -7l-2 -2l-13 2q0 -2 -2 -2q2 -2 7 -5t8 -5
v4h10zM197 1187q0 -26 4 -71v-45l6 -43q2 -14 2 -41l-2 -45l-2 -24q8 -8 10 -9q49 5 119 9t115 -9l30 -12l4 -2q3 -4 11 -15q24 -31 30 -44v-5l-37 -18q-7 -7 -41 -12q-34 -6 -38 -8l-56 -13h-10v-6h-23q-20 -8 -42 -5q-23 3 -39 3t-25 2h-2q-2 -2 -4 -2l8 -45q2 -10 2 -33
t2 -35l2 -63l-4 -37q0 -16 2 -22l2 -31l-2 -84q9 -28 8 -57q-2 -29 -2 -43t-2 -21l-6 -39l4 -47l-8 -43q0 -8 -3 -20t-7 -45t-17 -40q-14 -8 -30 -16h-2q-14 -12 -60 25q-10 14 -10 33l-8 151q-4 57 -4 88l2 98q0 55 2 82l2 80v150q0 26 -6 59v47q-6 30 -6 83t-5 79v131
q0 55 2 82l3 68q6 90 6 95t4 18t4 18q10 -4 19 -10t18 -5q150 15 172 15l65 -6q14 -2 43 -2l37 -7l30 4q13 0 32 -7q47 -17 47 -52q0 -13 13 -30t9 -33l-53 -7q-48 -12 -74 -12l-82 4q-47 0 -71 4l-60 -2q-25 0 -24 -22q-4 -57 -4 -83zM434 1315l15 18l-3 2q-12 0 -18 -2z
M426 1338q0 3 -2 5h-4q-6 -12 -6 -16l4 -2q6 6 10 8q-2 2 -2 5z" />
    <glyph glyph-name="G" unicode="G" horiz-adv-x="880" 
d="M164 903q0 -18 4 -26q4 0 4 2v24h-8zM80 592v16q-8 -4 -14 -6q4 -2 7 -5t7 -5zM57 664q0 -10 2 -13q4 0 7 2l-5 25h-6q2 -4 2 -14zM678 616q0 15 -4 19q-8 0 -17 -4l-2 -2q12 -8 23 -13zM203 608q0 -26 -8 -46t-2 -64q9 -66 18 -93t12 -44q6 -40 14 -49q9 -9 17 -25
q14 -16 40 -49t48 -51q41 -33 121 -33t106 26q68 90 77 109q10 19 24 90t14 107t-20 81q-4 9 -22 15t-26 3q-10 -3 -22 -3h-19q-23 -2 -71 -7h-12q-20 -4 -33 -4v-4q-49 18 -53 25l-10 12t-7 10q23 23 35 24t47 12t162 24l82 -6q64 -6 68 -13q5 -6 10 -11t10 -17
q-2 -13 16 -31q8 -16 14 -75t-2 -105q-10 -35 -8 -46q2 -12 -3 -30t-14 -66t-23 -87q-15 -40 -25 -56t-39 -45q-32 -44 -48 -51q-17 -7 -45 -21t-57 -10q-107 0 -143 13q-34 13 -56 25t-46 20q-24 9 -33 20q-61 43 -78 57q-47 47 -70 82q-64 114 -86 225q-28 230 -8 301
q20 72 31 120t44 136q32 87 38 98t25 52t46 68q19 16 53 49q34 32 64 56t61 34q33 10 59 24t67 10t53 -8q33 -6 53 -38q-7 -4 -27 -16t-29 -20t-19 -14t-16 -12q-7 -6 -51 -30q-45 -24 -55 -40t-43 -53l-11 -22q-28 -55 -36 -62l-26 -59q-2 -10 -12 -30t-14 -29
q-3 -10 -10 -34t-25 -68t-39 -115q-21 -70 -24 -90t-3 -46z" />
    <glyph glyph-name="H" unicode="H" horiz-adv-x="704" 
d="M592 1307q-2 0 -6 4l-6 -13q2 -2 4 -5t5 -5t5 -4q4 10 8 23h-10zM580 993v4h-13q0 2 4 15q-12 4 -20 6q4 -6 8 -14q-6 -6 -8 -11l6 -4q20 4 23 4zM539 655q0 6 -9 15q0 -8 -4 -21q2 -2 2 -6t21 -4v4q-2 0 -6 1t-8 1q4 4 4 10zM514 1155q8 4 25 4q-10 14 -11 17l-14 -7
v-14zM512 1282q4 0 16 -6l2 6l-10 21q4 16 8 24q-20 -4 -16 -27v-18zM537 1114q6 0 8 2q2 12 -2 18t-15 3q4 -8 9 -15v-8zM555 1114q-2 -2 -5 -9t-7 -11l24 12zM547 1268v-8q4 -4 8 -7l-12 -6l8 -12q10 0 16 2q-8 8 -8 16l10 11l-4 8q-12 -4 -18 -4zM569 1294q-8 0 -12 -2
q0 6 2 8h6l-2 3q4 0 8 4t7 4q-12 10 -37 26l-2 -2q2 -8 6 -28q-4 0 -7 2t-8 2l11 -11q-2 -8 -2 -24q4 -2 12 -2q12 6 18 8v12zM166 872h2q4 -2 6 -2l10 17l-2 2q-4 0 -6 -4t-11 -3t-11 -3t0 -11h2q4 -2 6 -2l2 2q0 4 2 4zM131 834l-12 -5q0 -6 -4 -22q4 0 12 -4q0 4 -4 12
q10 -2 18 -8q4 4 11 4v-8q12 4 18 8q-14 4 -14 10h-4v-10q-7 14 -11 18l-8 -12l-4 2h-8q6 4 14 8q-4 4 -4 7zM152 801h-17q0 -2 -2 -4l19 -13v17zM129 653l6 6q-4 6 -12 15l-2 -2q4 -13 8 -19zM106 702q4 0 7 3q0 4 -4 16q-4 0 -7 -2q4 -13 4 -17zM104 498q4 0 7 2q0 2 -2 6
t-4 9q-1 5 -3 9l-4 -8zM100 788l-8 23l-4 -2q2 -12 8 -23zM96 844q-10 0 -16 2l10 -25h4q0 6 -6 23l16 -13q3 3 7 11q-5 2 -15 2zM78 1159q0 -4 2 -6q12 8 14 10q-4 0 -10 6l-8 -4q2 -2 2 -6zM84 1188q0 -8 -2 -17q4 1 14 7q-4 8 -6 10h-6zM121 1053q-6 -13 -2 -18t4 -7l4 2
q-4 12 -6 23zM106 1157q4 -16 9 -29q4 16 8 27q-13 0 -17 2zM102 1052q0 1 -3 -1t-5 -2l-8 4l2 -17h6l10 15q-2 0 -2 1zM84 989l18 -8h2q-4 6 -14 16q-4 -4 -6 -8zM117 866q-4 10 -11 21h-12l19 -25q0 4 4 4zM115 911q4 4 4 13l-2 4q-3 2 -13 5t-14 5q19 -19 25 -27z
M162 911q2 0 8 1t10 1q-6 6 -8 7l-18 -7v-20l6 -10q2 12 2 28zM150 1019q0 -3 4 -24q4 6 8 11l-8 16q-4 0 -4 -3zM150 1169q-12 -14 6 -24q0 14 2 20zM174 1034l-18 8q0 6 -2 11q-2 0 -8 -1t-7 -1q21 -26 35 -19v2zM145 904q0 9 2 14h-6q-6 -10 -6 -21l8 -8h2l2 2
q-2 4 -2 13zM158 1235q0 -2 4 -6q12 6 22 16l-4 8l-12 -6q0 12 -2 17q-5 0 -33 8q0 8 2 12q-10 0 -14 -4q-6 6 -6 10h-4l-5 -2l-8 8v7l2 4l-2 2q-5 -13 -18 -13q16 -16 29 -16q0 -6 -3 -18q17 5 17 12q10 -10 16 -12q20 -4 23 -21q-8 4 -10 6q-4 -8 -9 -14q8 2 15 2z
M117 1294l2 17q-8 4 -15 6q4 -10 9 -23h4zM94 1352v-2q1 0 10 -7q9 -18 9 -24q10 4 12 6q-10 12 -14 23q2 2 6 5t6 5h-12q0 -2 -2 -2l-3 -4h-12zM168 1331l-21 2v-2q4 -4 13 -8zM141 1348q5 0 11 4l-13 24l-4 -4l-12 -6q12 -6 18 -10v-8zM131 1393l4 -13q2 0 7 1t10 1l-4 8
t-5 6q-2 3 -4 5zM500 1133q-17 50 -8 118v82q10 0 18 -4q0 8 2 12l-14 -2q0 2 -2 2l12 19l-4 4q2 14 12 33q32 -21 38 -20q7 1 50 -17q12 -2 25 -33l6 -55q4 -78 4 -102v-99q4 -61 4 -96l-4 -96q-4 -157 -4 -213v-437q0 -111 -1 -164t-22 -77q-20 -4 -32 -4q-12 23 -50 39
q0 35 -11 93t-13 82q-2 23 -2 49t-2 42t-4 61q-2 44 -12 100t-3 103v35l4 20h-4q-2 6 1 34t-7 30l-18 -6q-49 4 -70 6l-8 -8q4 -4 6 -5v-4q-16 0 -22 -2q-6 6 -9 11q-4 -4 -18 -11q-2 2 -14 11q0 -6 2 -11q-6 -2 -17 -2q0 2 -4 11q-4 -8 -6 -11q-4 4 -10 13l-21 -7h-13
q-16 0 -19 -39l-3 -65l-4 -4v-19l-2 -49q-14 -93 -14 -149q-12 -149 -18 -285q-3 -19 -19 -27t-28 6q-29 36 -37 54q-9 18 -9 42t-12 77l-4 30v140l-2 22h-2l-2 221h-2q0 2 -2 10t4 16q6 10 0 30t-2 65l-2 19l16 12h-18q0 90 -2 139l2 72h2q-2 0 -2 4t-2 4q4 4 6 4
q-8 9 -8 27v28q6 7 8 7t4 2q-12 2 -12 15t10 13l-12 23l8 4q-6 16 -11 77t1 134q12 1 14 19t18 57l11 20q8 6 26 -2q49 -27 53 -29q27 -6 33 -39q12 -74 15 -110v-90q4 -90 4 -135v-228q0 -20 18 -14q2 -4 2 -10q27 0 37 2l12 -8l6 6q-12 8 -22 12q14 2 40 5t38 5
q-4 -4 -6 -8l10 -14q8 4 14 4l-2 2h-12q0 2 4 14q24 0 88 8q-10 -6 -14 -8h26l4 55l2 21l2 102l7 123q2 2 2 6h8v9h-8q-4 12 -4 38z" />
    <glyph glyph-name="I" unicode="I" horiz-adv-x="290" 
d="M78 670q0 -8 1 -10t5 -2q4 1 6 1q-4 9 -8 13q0 -2 -4 -2zM129 1055v12h-6l-2 -16q8 0 8 4zM94 393h4l4 2q-4 12 -6 17q-4 -8 -8 -13q2 0 6 -6zM121 365l2 10l-8 8q-7 0 4 -21zM102 958h-4q4 -8 4 -26q2 2 11 6zM136 1143q-7 0 -11 2l-2 -12q4 -2 6 -5v-6q6 4 14 8
q0 13 -7 13zM96 719h8q4 -4 9 -6q-4 25 -9 37q-4 -9 -4 -13q-8 0 -20 -6q12 -12 16 -12zM162 92v8l-2 2q0 4 -2 4l-15 -14q0 2 -1 2t-1 2l2 2q0 4 2 4q-8 8 -12 11q-6 -6 -6 -15h8v-14q2 0 6 2h4l7 -12q8 -4 8 -6l6 6q-4 12 -4 18zM217 797q5 -28 12 -115v-172q0 -20 -4 -66
v-186l2 -92q0 -33 -6 -41q-6 -9 -7 -23t-1 -34t-6 -39l-14 -4q0 2 2 4q-49 12 -72 18q-51 14 -52 60t-8 79l5 45q0 6 -5 23v106l-2 148l2 74v63q7 100 7 148q0 49 -4 102v96l8 4v13q-2 0 -6 -2q-6 240 -2 274q-4 90 -5 135q35 8 59 -4t46 -24q23 -11 18 -35v-37q0 -18 2 -27
l4 -31q7 -69 0 -122l15 -142l-2 -43l10 -83v-21q8 -32 8 -47q-2 -2 -4 -2z" />
    <glyph glyph-name="J" unicode="J" horiz-adv-x="612" 
d="M541 825l4 -101q0 -17 4 -54v-62l2 -49l-2 -35v-65q2 -20 2 -64l-2 -41l-6 -35q2 -25 2 -67l-8 -105l-11 -53v-2q-16 -45 -43 -53q-27 -20 -73 -26q-46 -7 -59 -7q-59 0 -148 27q-76 16 -113 69t-49 104t-21 76q-8 25 -8 68v10q0 29 19 34t35 -1q18 -11 27 -29t19 -35
t13 -25q4 -8 7 -17t8 -19t6 -15t4 -7l24 -49q8 -18 33 -56q2 -10 10 -16q41 -19 61 -27q46 -18 69 72q5 18 11 34t6 50t5 74l12 43q0 35 4 104l6 123l8 23l2 18q0 59 2 86t5 76q2 49 4 89t6 152q8 106 10 160l-2 68q6 50 6 92q0 37 53 37q18 4 45 -27q2 -2 2 -26t4 -54
t3 -46q-2 -16 -2 -23l2 -88l-2 -21v-49l-2 -53q0 -25 2 -37l6 -78q2 -12 0 -36t-2 -36z" />
    <glyph glyph-name="K" unicode="K" horiz-adv-x="755" 
d="M682 121l2 4v6q-12 4 -16 4q-4 -8 0 -12t14 -2zM647 168l4 8l-10 10l-4 -2q0 -2 10 -16zM627 217h-4l-5 2l-2 -6q7 -7 7 -10q4 4 4 14zM610 227v11h-4l-4 2l-6 6q4 -8 4 -15q2 0 4 2l-2 -2v-4h8zM203 596q0 -10 12 -10q-2 -4 -6 -8t-6 -7l12 -4q10 29 -14 37q0 -2 2 -8z
M172 1019q0 -3 18 9l-12 6q-6 -6 -6 -10v-5zM156 1044q10 0 22 -6q-4 22 -22 6zM135 698v15q-4 -5 -10 -9t-8 -6h18zM102 647q9 0 9 9t4 12q5 -5 12 -19l4 17q-2 0 -10 4l12 6l-18 14q-4 -6 -13 -14q10 -16 -8 -27q4 0 8 -4v2zM113 629l-11 16q-4 -4 -4 -10q13 -8 21 -12
l6 6h-12zM84 680q2 -4 8 -10l10 20h-8zM109 827l-15 -10q6 -6 10 -6q2 6 7 14zM96 725q2 0 6 2t7 2q-8 8 -9 10h-2q-2 -4 -2 -14zM123 774q-4 2 -12 10l-7 -12q8 -4 11 -6zM510 1192h-4q2 -4 2 -18q6 6 10 8q-4 8 -8 10zM223 553v-21l8 -6q-4 -4 -4 -14l2 -2l2 -74l-2 -76
v-38q2 0 0 -35v-33q2 -14 2 -45v-64q0 -3 -24 -127q-6 -25 -37 -24q-8 0 -16 -8q-14 0 -31 13q-15 13 -19 25t-12 37q-16 48 -16 97v78q0 29 -4 90v106l-2 64l2 88l-2 49v47l-2 65v50l-7 63l2 84v55q0 29 5 82q0 39 4 109l2 104v51q0 37 2 56q0 10 14 10q55 0 88 -41
q4 -4 4 -17t-2 -22v-16q0 -28 8 -64q15 -60 7 -94q14 -33 6 -53l4 -80l-8 -12q2 -2 5 -2t5 -2l-2 -35q0 -8 6 -14t0 -17l2 -104q-2 -6 -2 -17l2 -2v-7q0 -5 -4 -26v-2q4 4 4 6q6 -24 6 -40q2 0 4 -3q6 11 17 31l65 139q2 2 8 15q1 11 11 31t13 29t19 40t24 46t23 44
q16 29 52 106q36 76 55 112t28 54t17 25q8 8 82 -33q25 -25 18 -45q-23 -33 -29 -39t-16 -24q-8 -20 -12 -26t-19 -43q-30 -78 -55 -109l-24 -43q-2 -4 -27 -47q-2 -8 -10 -24t-10 -23l-43 -87q-42 -108 -81 -190q-11 -24 4 -42q35 -44 69 -89t59 -74q26 -28 31 -35l49 -73
q20 -20 23 -30q3 -9 20 -31t23 -29q7 -8 27 -46t38 -63t24 -37l19 -31l-25 -14l17 -31q-35 -23 -57 -17t-46 6q-22 -1 -48 29t-50 62l-25 31q-8 16 -12 21t-11 17t-36 56q-29 43 -58 96q-30 53 -57 96t-63 109q-2 2 -15 6l-2 -16q-4 0 -4 -2zM596 246q4 8 8 12h-22
q6 -4 14 -12z" />
    <glyph glyph-name="L" unicode="L" horiz-adv-x="663" 
d="M154 154q4 0 12 -4l2 2q0 4 2 4l-16 16v-18zM432 8q-12 0 -20 5t-20 4t-17 -1q-6 0 -10 -2l-50 2q-17 2 -37 2t-36 5v-5h-23q-6 2 -22 10t-33 13q-17 4 -72 41q-18 12 -33 40q-14 28 -9 40t3 18t0 13t2 12l-2 61q-4 32 -4 105l-2 39q-2 8 -2 26l2 43q0 9 -3 19t0 51t3 47
l-6 61q0 72 12 246l-2 51q0 22 8 78v58q0 49 1 69t3 76t19 80q20 20 39 6q6 0 12 -4l14 -43q4 -10 5 -34t12 -52q8 -40 8 -62v-47l2 -41l-2 -57q0 -43 2 -48t0 -15t-2 -22t4 -50l2 -78v-70q-12 -96 -4 -143q0 -68 4 -94v-19q10 -3 10 -16l-2 -20q2 -23 2 -64v-47
q14 -72 32 -100q17 -27 20 -29q4 -14 30 -19l45 -8q23 -2 61 0t50 2l39 -2l45 4l39 -2h10q35 12 74 2t39 -39q-2 -8 2 -22l-4 2q-18 -18 -33 -24t-53 -23q-38 -15 -70 -19t-52 -7q-18 -3 -30 -3z" />
    <glyph glyph-name="M" unicode="M" horiz-adv-x="907" 
d="M594 1337q0 18 11 41t27 64t19 45q6 -2 15 -6l10 12h2q17 -6 26 -11q9 -6 26 -14q18 -8 24 -22t20 -34t12 -44q-2 -25 5 -39l8 -100q2 -31 2 -90q4 -53 6 -82v-64q0 -8 4 -28v-13q6 -16 6 -49v-121q0 -29 2 -45v-35l2 -12v-80h4v-82q2 -10 2 -30l2 -45v-107l2 -47l3 -27
q12 -96 12 -161v-60q0 -30 -15 -78q-6 -12 -16 -11t-19 1t-14 2q-16 0 -24 23q-6 12 -24 38t-18 51q0 27 -2 61q-3 34 -6 57t-3 34l2 58l-5 53l5 72q0 2 -5 57v115q-2 14 -2 44v44q0 47 -6 96l-4 41v39l-2 41l2 39l-2 53l2 43v125q0 29 2 59t-2 35q0 -2 -2 -2t-12 -45
t-12 -51l-13 -49l-2 -19l-22 -94v-6q-2 -9 -5 -25q-4 -16 -8 -30t-9 -40t-11 -46l-12 -31q-4 -16 -9 -49t-14 -58l-12 -36q-16 -59 -33 -72q-2 -2 -11 -14t-27 -11q-19 0 -44 39q-25 45 -37 66q-23 53 -32 66t-25 52t-30 68t-29 72t-24 65t-26 72q-16 49 -21 62t-7 21
t-15 36v8q-9 26 -16 39h-4v-17l5 -20q5 -20 5 -60t2 -57l2 -39q4 -37 4 -53l-2 -35l2 -41q0 -2 -2 -4h2q-4 -16 -4 -20t4 -21l-2 -2l11 -59l-3 -2v-62q-2 -25 -2 -73h5q-2 -2 -3 -7h3l12 -182q-2 -10 -2 -31q10 -60 10 -93v-44l2 -47q4 -29 0 -59v-53q0 -4 -2 -14t0 -21
q2 -10 2 -37v-41q2 -12 -10 -19q0 -2 -2 -2t-4 -2q18 -10 14 -24q-14 -8 -39 -25l-20 -2q-15 0 -21 -6q-2 2 -2 4t-4 8t-14 10t-15 27l-2 62v45l-6 61l-2 199q0 27 -5 49t-5 90q0 70 -2 111l-4 86q-2 33 -2 98q4 53 4 78l-4 69l-4 111q0 14 -3 35l3 47q0 23 -2 48t0 41
q4 16 2 26q-2 12 0 36t2 33l-2 47l-5 62q1 10 5 35q19 0 77 -13q10 4 28 -10t24 -31q6 -8 22 -24q2 0 2 2q2 -4 45 -84q0 -15 11 -33t15 -30q3 -13 9 -20t8 -17q3 -9 17 -37q14 -29 24 -56q10 -28 19 -37q11 -32 32 -73q21 -40 37 -88t25 -70q2 -2 6 -2q12 70 48 183
q35 112 39 127q3 14 15 58q13 44 19 72t6 45zM178 1280h2v8l-2 2v-10zM178 1305v-15h2l4 2l-4 13h-2z" />
    <glyph glyph-name="N" unicode="N" horiz-adv-x="688" 
d="M160 690l-2 -6h4q2 2 2 4l2 6h-4q-2 -2 -2 -4zM164 888q0 -3 2 -9q2 2 6 10q-8 2 -8 -1zM168 1069v4q-10 -4 -8 -14q8 8 8 10zM172 1116l-10 10l-4 -12q8 0 14 2zM113 90q-10 10 -15 16q0 -2 -2 -2q11 -14 17 -14zM494 893q6 135 6 225l4 199q0 68 3 95q3 26 3 30t6 16
q40 -3 66 -38q8 -11 14 -17q0 -3 20 -123v-84q0 -84 7 -125q0 -39 2 -55t-2 -66q-7 -91 -7 -159v-21q-2 -2 -10 -6q10 -8 6 -33v-67q0 -82 2 -121l2 -66l-2 -33v-118q-2 -20 0 -21l7 -61q2 -31 2 -64t-5 -43q0 -20 -5 -50l-7 -42q-14 -6 -30 -14t-25 -4q-35 20 -37 27t-6 12
q-16 10 -34 47t-27 50q-10 13 -26 62t-26 68q-33 100 -84 301q-43 136 -48 156t-10 70t-18 77q-12 27 -22 84t-19 77q-8 19 -10 25h-6q2 -6 2 -16t1 -18q1 -7 2 -27t7 -63t7 -105l6 -170l-2 -35v-33q0 -41 4 -118v-68l2 -41q2 -25 2 -76v-88q-4 -32 -4 -100l8 -8
q-2 -2 -8 -6q0 -12 -4 -33q-4 -33 -44 -31t-57 29q-18 33 -20 51q-8 109 -5 133t1 44t-2 26v88q0 43 -2 65v183l4 94q2 41 2 127l-8 203v141q2 78 -4 124q-8 69 8 101q20 -8 32 -12q27 8 73 -23t52 -82l15 -49q0 -34 9 -58t12 -45t13 -53t9 -48q0 -16 6 -36q6 -22 8 -28
t5 -22t7 -27l25 -68q14 -34 18 -53q4 -20 10 -40t12 -50q7 -29 17 -61q10 -33 31 -95t39 -127l6 -6q4 13 2 27t3 80t8 118t8 93v102zM145 897q0 3 -1 11t-1 12q-6 -8 -2 -23h4zM143 920q4 10 -2 22q0 -16 2 -22z" />
    <glyph glyph-name="O" unicode="O" horiz-adv-x="761" 
d="M55 893q-10 0 -14 4q0 6 2 10h10zM47 885q0 -9 2 -15q-2 -2 -14 -10q2 14 6 35v-8l2 -2h4zM612 848v-6l-10 -25q4 -2 8 -6l8 4l-4 33h-2zM428 172l2 -14q23 0 74 61q2 0 4 -2q4 20 6 35q16 12 27 47q10 35 15 43t5 14l17 50l4 4q-2 18 -2 55v35q2 23 2 65v35q-4 49 6 75
t10 54h-2l2 64q-14 14 -6 55q-2 16 -2 47v20l-4 23q-5 66 -43 141q-31 82 -35 90l2 2q-14 25 -35 48q-33 49 -88 55q-6 0 -10 -4q-37 -45 -45 -62q-29 -43 -39 -116q-18 -90 -39 -169t-10 -192v-59l-2 -41q0 -61 17 -126t37 -137t38 -96t40 -52l33 -42q11 -14 21 -6zM55 940
q2 0 6 4l9 -4v12l-17 -10q0 -2 2 -2zM35 844v14q4 -2 8 -2v-12q2 0 14 4l-8 8q2 2 6 8q-4 20 15 25v8h2q2 6 2 17t2 18q-16 4 -23 6l-4 -4q2 -4 6 -8t6 -8q-6 -2 -10 -3q-10 8 -4 39q0 36 9 63t18 66q18 83 65 152q48 69 73 81q26 11 42 10t70 5t112 -8q171 -42 215 -193
q8 -29 28 -97t38 -191t11 -205t-17 -151q-9 -69 -15 -117q-6 -49 -26 -91t-32 -78q-14 -36 -26 -66t-43 -46q-6 -4 -16 -14q-9 -10 -29 -27t-67 -21q-100 -10 -178 44q-41 32 -49 40t-24 37q-18 29 -22 36t-12 25t-14 25l-68 201l-12 31q-4 12 -8 25q-4 14 -10 30t-8 24
q-3 8 -5 15l2 2q5 0 -3 24t-5 50q-2 4 -4 6q4 4 12 4q-4 2 -14 8q4 36 4 111l-6 22q-6 23 4 27l-4 4q0 2 4 6q6 0 10 -2l-8 8l2 5q0 10 -6 10z" />
    <glyph glyph-name="P" unicode="P" horiz-adv-x="638" 
d="M102 1276l2 -12q4 0 9 -2v22q-6 -4 -11 -8zM354 1339q-20 0 -45 -2t-41 -10q-16 -9 -30 -13t-13 -18q0 -14 2 -22v-19l2 -32v-49q0 -27 -4 -84v-15q0 -8 4 -33l7 -90l-7 -80v-16l2 -2q-4 -10 0 -14t17 0t41 6t82 39q52 42 95 144q42 103 31 183t-47 108q-36 26 -56 22
t-40 -3zM68 682q0 158 -5 238v114q0 33 5 99q0 80 -2 118l-5 105q0 31 5 88h6q0 2 3 6t5 8q16 2 52 -22t44 -45h10q130 28 146 28q89 -10 104 -12q0 -8 4 -12q2 0 9 6q5 -5 38 -23t64 -49q46 -65 48 -87q3 -23 9 -105v-72q0 -8 -9 -49t-26 -70t-28 -57q-11 -29 -17 -39
q-44 -68 -132 -95t-117 -16q-29 10 -46 -10v-61q0 -21 3 -39v-27q0 -39 -3 -57l-2 -53q-10 -80 -10 -148l-10 -151l-2 -35v-27q0 -18 -2 -29l-2 -30q-2 -4 0 -13v-8q-25 -4 -39 -6q6 -6 6 -14q-18 -10 -28 -3t-60 44q-10 10 -10 91t-4 150l-2 84q0 33 2 77t-2 89v119z" />
    <glyph glyph-name="Q" unicode="Q" horiz-adv-x="808" 
d="M254 1171q0 -9 -18 -76t-17 -89q-8 -32 -10 -51t-4 -33l-2 -72l-2 -86q0 -163 33 -268q11 -35 13 -56q4 -43 89 -166q25 -34 39 -38q13 -4 37 -15t24 -4q-10 13 -39 29t-39 30l2 5q66 39 183 -13q27 -12 32 13l5 20l11 56q23 121 25 184v170q7 176 -41 426
q-12 61 -67 149q-18 23 -31 31l-55 31q-36 9 -86 -26q-49 -36 -66 -89q-4 -21 -10 -37t-6 -25zM766 709q2 -25 2 -137t-10 -210q-16 -106 -47 -151q-8 -16 -66 -92q29 -152 -10 -260q-16 -20 -27 -35q-4 -2 -10 -4q-6 -29 -37 -23h-26q-3 2 -9 7t-10 8q-20 172 -29 258
q-4 0 -14 6q-57 12 -99 21t-46 9q-104 18 -164 94t-92 214q-38 174 -30 266q7 92 14 191t22 173q63 257 104 328q12 16 19 27q12 -4 15 -4t5 2q102 74 219 59q41 -4 97 -22q4 0 24 -21l21 -36t48 -76q34 -53 44 -79t21 -52t11 -40q1 -14 7 -36t13 -57q7 -34 16 -78t18 -154z
" />
    <glyph glyph-name="R" unicode="R" horiz-adv-x="718" 
d="M195 804q0 -26 6 -36q2 2 5 6q4 4 26 32t50 70q28 41 55 80t47 68t26 72t8 71q4 56 -30 88q-34 33 -87 17q-10 -4 -39 -10t-42 -12t-17 -33l-8 -68v-90l-2 -84q-1 -8 -3 -56t2 -68q4 -21 3 -47zM84 52q-12 20 -12 77t-9 242l3 69l-5 76q0 33 5 102l-5 89l7 92l2 59l4 211
q0 121 12 217q0 70 10 113q68 -14 97 -45q2 2 7 2t7 2q59 32 105 22t87 -20q53 -18 84 -53q9 -27 15 -35q2 -10 10 -17q27 -16 22 -45q0 -6 5 -36q-1 -76 -5 -88t-4 -22v-15q-2 -5 -9 -25t-16 -57t-26 -70l-12 -25q-3 -8 -17 -28t-21 -35q-7 -16 -9 -21t-21 -24
q0 -6 -24 -19t-46 -35t-30 -29t-12 -11q4 -2 8 -6l20 -19q29 -30 47 -58t47 -71t33 -50t6 -12l4 -12q4 -10 29 -41q24 -31 23 -42q-2 -11 12 -29q58 -102 111 -162q18 -35 59 -92q6 -10 3 -30t-3 -38h-4q-4 -2 -9 -1t-21 4q-79 14 -136 87q-16 20 -44 60t-46 66
q-18 24 -54 86t-65 103q-29 42 -53 86t-31 48q-6 4 -8 8q-6 -12 -10 -103t-4 -102l4 -119q-6 -134 -10 -142q-5 -9 -8 -22t-5 -20q-8 8 -8 14q-12 -2 -16 -16t-9 -18q-31 0 -41 2q-8 3 -20 23z" />
    <glyph glyph-name="S" unicode="S" horiz-adv-x="845" 
d="M735 573l13 21q-2 2 -3 4q-8 -4 -24 -6q2 -3 14 -19zM719 545q0 -23 2 -33q2 0 4 -2q0 4 3 14t3 23q-4 -2 -12 -2zM700 532q-2 0 -9 6t-23 -1q8 -12 18 -19zM632 770q5 0 9 -3q5 -3 21 -13t23 -20t40 -42t40 -46t15 -27q9 -14 14 -25q5 -12 13 -55t7 -59t-10 -50
q-9 -35 -20 -49q0 -29 -39 -84q-8 -16 -25 -61t-33 -64q-17 -20 -23 -29q-4 -14 -34 -31t-48 -14q0 -5 -7 -10q-97 -23 -157 -27q-61 -4 -111 17q-8 2 -29 6t-70 26q-48 23 -63 29q-21 21 -40 29q-79 33 -72 76q2 25 12 53q4 18 25 18q6 0 27 1t30 -11q37 -10 89 -25t97 -14
q115 12 160 18t66 27q72 70 86 191q2 25 -7 102q-5 29 -44 81q-40 52 -80 65q-8 4 -72 43t-105 56t-47 30h-14q-106 41 -162 141q-30 50 -10 164q4 18 26 60t46 67q78 78 142 90t81 10l123 -18q4 -4 16 -4l31 -13q18 -13 49 -30q0 -16 2 -21q-4 -6 -18 -29q-10 -14 -33 -18
h-43q-60 -8 -82 -10t-64 -25q-35 -12 -47 -10q-25 -12 -53 -52t-37 -48q0 -13 -8 -37q-3 -23 15 -55q18 -33 22 -42q71 -79 240 -143q8 -8 16 -14q45 -18 82 -45t42 -27z" />
    <glyph glyph-name="T" unicode="T" horiz-adv-x="856" 
d="M672 1274q4 0 11 2t11 2q-6 4 -14 12zM338 203q0 58 6 143v223l-2 121l2 125l-4 88v66q0 112 -5 193t-1 102q-14 0 -39 -4l-65 -7q-15 0 -23 -2l-60 2h-61q-27 -1 -46 9t-52 47q-14 16 0 34q79 11 119 20q41 9 53 11q47 0 65 4l29 2l98 2q57 4 87 2t111 3t167 -1h51
q8 -4 16 -10t54 4q14 -8 18 -37l12 -24q8 -18 4 -27q-10 -14 -22 -4q-23 -20 -55 -16q-4 0 -28 -4t-30 0v-2l-2 -4q-33 -2 -101 -6t-102 -5q-27 4 -71 9q-14 0 -10 -23t12 -53l-8 -10q10 -18 10 -105l6 -78q2 -20 -2 -73q4 -16 4 -50h-2v-4l2 -4l-2 -4q4 -23 8 -63l-4 -9
q2 -2 6 -8l2 -90l-2 -39v-22q0 -5 3 -15t-3 -20v-31q4 -28 4 -88v-39l-2 -78q0 -82 -6 -93q-6 -10 -6 -27v-109l2 -29q-3 -31 -2 -33l-4 -18q-2 -2 -9 -14t-24 -14q-18 -3 -26 5t-22 20q-14 11 -27 23q-12 12 -19 128v8z" />
    <glyph glyph-name="U" unicode="U" horiz-adv-x="813" 
d="M600 629q16 -6 15 1t-1 9q-12 -8 -14 -10zM84 547q0 33 -6 103t-2 110v102l-2 82q-2 20 -5 80t-8 98q5 -2 7 -3t4 -3q-8 14 -9 80l7 -4v10q-6 6 -7 39q-8 68 7 107q6 8 26 34q29 8 59 -2t38 -32l-3 -11q4 -115 5 -151q16 -78 13 -94t1 -36q4 -22 4 -36l6 -78l-2 -102
q0 -4 -1 -40t3 -40t-2 -31q0 -20 8 -76l8 -82q4 -40 7 -86q2 -46 28 -170l4 -22q0 -18 10 -43t13 -33q9 -35 51 -57q43 -23 47 -21q70 17 117 109q12 20 25 55l12 62v8q-2 16 3 45t5 35v16l2 47l8 86q11 92 16 191t8 135t3 53v55q6 69 6 140v96l4 98q0 8 4 16q33 10 56 -12
q23 -27 45 -18q37 -51 36 -96q2 -25 2 -74v-76l7 -109l-7 -127l5 -53q0 -20 -5 -65l-4 -111q-8 -100 -12 -227t-9 -147q-5 -21 -10 -57t-32 -58q-4 -2 -14 -40q-9 -37 -13 -46q-45 -56 -59 -70q-51 -29 -94 -29q-12 -2 -35 -2q-49 -6 -121 27q-63 33 -128 98
q-77 77 -109 274q-7 48 -12 70t-7 48q-2 28 -2 61z" />
    <glyph glyph-name="V" unicode="V" horiz-adv-x="706" 
d="M156 1177q0 1 -3 -1t-8 -5q0 -11 5 -14h2l6 19q-2 0 -2 1zM132 1110q-3 0 -5 -2q0 -2 -1 -8t-1 -10q6 4 12 10v12q-2 -2 -5 -2zM115 1282q6 -12 8 -18q6 6 10 14q-12 4 -18 4zM96 1145q4 0 13 4q0 -17 8 -21q2 2 2 8t2 9l-6 6q0 2 6 8h-12l-13 -4l-6 -12h4l3 -2
q-1 1 -1 4zM90 1227q0 2 2 4q-14 0 -17 2t-7 -2q0 -2 2 -6l18 -2q2 2 2 4zM78 1303l-2 14h-4q-2 -2 -2 -4l-2 -6q4 -4 8 -7zM78 1282l2 -10l-10 -2q0 -4 8 -19q6 4 22 13q0 4 2 8l-6 6l-8 -4l-8 10zM403 303q-2 2 -2 10t5 17q11 75 20 142q10 66 16 110q11 78 21 143
q11 64 22 138q11 75 19 117q8 40 12 80t9 77q9 65 46 202l13 56q2 12 20 11q18 0 42 -16t32 -38q10 -22 6 -37v-8q2 -23 -6 -51t-10 -48t-6 -41l-7 -61q-12 -84 -12 -111t-7 -60t-9 -63t-4 -41l-9 -59q0 -12 -2 -18v-11q-10 -31 -14 -96l-6 -31q-2 -12 -5 -38t-5 -39v-19
q-2 -18 -6 -28t-7 -42q-2 -32 -10 -51q-20 -50 -20 -90l-21 -114q-13 -78 -33 -146l-2 -2v-4l-16 -29v-2q-5 -6 -23 -13q-57 -22 -120 50q-4 5 -14 21t-22 28t-20 53t-27 125t-32 142t-25 109t-24 116q-12 45 -14 67t-6 32q-3 12 1 20h-6l-4 37q-17 133 -63 272
q-63 280 -41 295q6 4 15 2t30 -5t53 -24q8 -16 18 -31t15 -26q-2 0 -2 -2l20 -61q0 -4 12 -37t24 -94q13 -60 18 -82q4 -22 14 -67q10 -46 14 -55t10 -57l6 -30q2 -8 3 -20t4 -19q2 -6 7 -22t7 -22t5 -20t5 -20t4 -14t4 -13l31 -160q4 -29 3 -45t9 -22q5 -63 15 -94l12 -37
q4 -8 8 -13l12 11l-4 4q0 4 4 12z" />
    <glyph glyph-name="W" unicode="W" horiz-adv-x="1296" 
d="M1237 1055q0 -17 -2 -27t-4 -34t-6 -46q-4 -25 -15 -74t-13 -74q-1 -26 -13 -50q4 -53 -16 -119t-20 -89t-42 -208l-27 -105q0 -8 -7 -19t-14 -45t-10 -44t-14 -72q-12 -45 -12 -79t-29 -46q-8 -2 -28 -6v4q-7 -4 -17 -2t-67 27q-16 6 -43 43q-56 268 -100 462t-83 449
h-6l-12 -49l-9 -40q-5 -22 -5 -36q-1 -13 -9 -51q-8 -37 -11 -51t-12 -47t-11 -67t-19 -89q-16 -55 -22 -129q-5 -27 -11 -33q-6 -5 -12 -27t-12 -34t-9 -42t-9 -44t-19 -68q-16 -32 -18 -43l-5 -4q0 -17 -6 -46t-16 -34q-20 -4 -35 -8q-3 -16 -26 -20t-27 -5q-4 4 -20 12
t-28 20q-13 11 -40 91t-40 153t-34 183t-29 162q-9 53 -37 144t-36 151t-12 136t-19 158q-16 82 -17 100t5 34q25 8 59 -5t51 -44l39 -182v-11q12 -62 16 -78t9 -58q6 -42 13 -64t11 -101l13 -67q0 -17 5 -30q8 -21 15 -71t16 -87t16 -64t10 -37t5 -41t12 -61q9 -31 12 -63
t9 -48h6q2 8 9 30t17 80q11 58 16 79t14 63q8 42 16 74t25 118t26 129l43 234q39 193 74 303q14 47 80 10h24q6 -6 30 -21t27 -42q16 -14 17 -49l2 -37l2 -2v-7q-2 -14 12 -55t6 -63q23 -31 23 -125q5 -58 19 -107q14 -50 16 -89t6 -81t9 -66t6 -50t16 -105q2 -41 12 -75
t13 -48q3 -16 4 -23t7 -10l5 13q0 36 17 102t19 84t18 66q16 47 26 100q10 52 14 70t10 47t10 43l6 20v15q14 57 21 75l37 135q18 69 30 138q12 45 22 91t19 70h31q20 -12 33 -14q29 -10 43 -51q0 -13 -12 -41t-14 -56q-1 -28 -5 -34t-6 -20t-2 -29z" />
    <glyph glyph-name="X" unicode="X" horiz-adv-x="882" 
d="M180 1101q0 1 2 1l-6 12l-4 -4q4 -8 6 -10q2 0 2 1zM365 829l-11 21q-1 -21 11 -21zM35 1283q0 15 -4 40q29 23 59 4q4 -4 9 -4t15 -4t18 -11q9 -7 15 -10q51 -21 187 -276q53 -88 61 -107q19 -44 39 -57q8 12 21 33q39 87 53 110t20 36t27 46q12 25 43 92t46 89t15 28
q23 36 48 80q4 0 14 8t22 -12q12 -25 15 -39q18 -76 4 -119t-28 -69t-55 -108q-40 -82 -61 -122q-20 -39 -28 -55t-26 -50t-24 -48q-7 -14 -20 -35q10 -17 41 -69t80 -144t90 -178q41 -87 69 -142q52 -102 52 -137q-12 -18 -47 -18q-20 10 -23 10l-8 4q-25 2 -41 37
q-27 6 -43 35l-24 49q-27 49 -30 54t-6 15q-4 10 -22 43t-23 44q-10 22 -44 90l-20 40q-13 28 -25 50t-41 82q-15 -15 -76 -136q-61 -120 -83 -155q-30 -49 -46 -79q-17 -30 -60 -93q-43 -62 -59 -92l-37 -56q-8 0 -14 3q-20 55 -12 90t34 88q29 74 58 127l67 129
q7 18 25 53l32 63q13 29 22 54q10 26 28 64t22 48t11 23q-26 52 -50 76q-12 18 -41 59t-38 62q-10 22 -18 33t-27 40q-18 29 -37 57t-29 46t-32 53t-29 52t-19 44t-12 42z" />
    <glyph glyph-name="Y" unicode="Y" horiz-adv-x="763" 
d="M549 1212l2 -10h-10q2 -2 14 -8l8 8l-12 12zM524 1122q6 -8 17 -10q-2 4 -2 10q-8 4 -11 4zM553 797v-6q-12 -33 -18 -48l-7 -24q-2 -12 -10 -34q-8 -23 -14 -45t-10 -32q-3 -23 -14 -65q-11 -43 -15 -50t-10 -29q-5 -22 -9 -29t-4 -25q-8 -23 -10 -29q-4 0 -10 -6
q-12 -101 -33 -129q-6 -10 -9 -32t-5 -28v-4q-8 -6 -10 -23q-1 -17 -5 -25t-20 -71l-18 -67q-2 -6 -8 -20t-9 -23q-13 -22 -76 -35q-14 2 -13 42q3 109 20 149q10 60 18 92l12 48q3 16 11 49q28 116 53 228v11q-49 85 -64 128q-14 43 -19 57t-5 19v7q2 -2 6 -3v5q-2 2 -6 2
q-58 172 -66 189q-8 16 -28 74q-19 58 -32 105q-12 48 -19 68q-45 131 -54 248q-4 33 31 32q6 0 17 -2t15 -2l-2 -4q4 -4 14 -11t23 -32q15 -24 25 -51q16 -41 24 -71q9 -31 27 -74v-4h4l19 -56q-4 -4 -7 -8q2 0 5 -2h4l8 -16v-17l10 -20q9 -26 21 -58v-2q0 -10 15 -44
t18 -52q3 -19 19 -53q15 -33 24 -60t15 -47t13 -37q4 2 14 3q10 32 44 144t53 171q16 8 34 14v4l-18 9q-4 -6 -4 -7q-4 16 10 35l-2 2v2q4 16 6 23h6v-6l2 -2h2q0 3 11 14l-2 2h-17q4 4 4 2q14 61 21 74l8 8q-4 27 8 35q2 16 6 41h2q8 33 15 49q17 72 30 89t18 25t13 -1
q27 12 35 5q8 -8 20 -6t22 -18q9 -20 4 -37q-5 -16 -13 -42t-11 -34t-5 -18t-7 -26q-4 -15 -7 -33t-6 -28q-4 -14 -21 -62q-17 -47 -31 -107q-4 -4 -2 -10q-7 -29 -11 -43t-13 -36t-15 -56t-11 -48q-4 -14 -11 -38t-10 -30q-3 -7 -3 -11z" />
    <glyph glyph-name="Z" unicode="Z" horiz-adv-x="825" 
d="M745 1243q0 4 3 10l-5 4l-4 -2q-4 0 -6 2q-6 -6 -8 -12q2 0 10 -4l-6 -12q4 -8 6 -10l6 18q0 2 -2 4h4zM674 1294q0 7 -4 13h-4q-4 -2 -7 -2q5 -9 9 -13l2 2h4zM645 1292q6 6 8 11q-4 4 -8 6q0 -4 -2 -11v-4zM635 1286l-2 -8q2 0 10 4v6q-2 -2 -8 -2zM598 1282l8 -10
l-12 -4q4 -7 12 -11l10 31q-8 0 -12 -3t-6 -3zM254 152q79 -6 119 -2q92 0 139 2l98 2q41 0 46 -1t61 -24q4 -3 9 -23t13 -28t2 -29q-10 -23 -26 -24l-62 -21q-6 -2 -17 -5t-18 -5l-6 6q-4 -4 -8 -4l-100 8q-20 2 -55 2h-78l-58 2q-136 0 -178 12h-24q-14 0 -60 23
q-8 8 -15 30t-13 33q-4 18 4 30t23 41q15 28 33 53t153 290q33 74 63 125q29 51 43 77t36 63q22 36 32 53l30 61q41 61 69 113q29 52 49 86t22 38t2 7q0 4 2 6l-9 12q-24 0 -48 -7t-45 -2t-26 5l-143 2l-37 6l-32 -2q-12 2 -39 2l-25 2q-4 4 -14 6t-27 7l-4 10l-2 -2
q-23 8 -27 12q-26 31 -28 47q-2 15 -6 25t2 13q36 18 47 20q10 2 55 2l47 -2l74 -11l82 -2q36 0 64 6t36 7l45 2h13q77 11 119 16q42 4 72 -5t44 -13h4q7 -9 18 -20t11 -32l-12 -22q-18 -37 -27 -48q-8 -11 -12 -22q-8 -6 -16 -17t-20 -23q-11 -12 -11 -31q-2 -4 -11 -17
t-16 -30q-8 -17 -22 -39t-23 -39q-8 -16 -19 -32q-10 -15 -13 -21t-8 -10q-5 -5 -7 -10t-3 -8t-5 -8t-5 -8l-12 -24q-12 -25 -24 -49t-11 -45q-14 -23 -27 -59t-26 -46v-2q-24 -48 -28 -53q-3 -4 -9 -16q-23 -47 -38 -67t-15 -28l-4 -12l-37 -68q-4 -8 -12 -22
q-8 -15 -11 -21t-15 -21q-14 -19 -23 -39t-31 -54q-8 -32 -37 -68q0 -14 -4 -22h43z" />
    <glyph glyph-name="bracketleft" unicode="[" horiz-adv-x="555" 
d="M311 580q-2 -2 -5 -2t-19 -21t-27 -35q-31 -37 -46 -84t-26 -74q-10 -26 -13 -48t-5 -51t-4 -55t4 -59t10 -42l19 -56q30 -46 39 -53q10 -6 12 -10t16 -15l37 -18q6 -2 19 -3t63 -26q31 -10 49 -4t45 -4v-6l2 -2l13 -4l16 -17q12 -25 -14 -45q-8 -4 -19 -14l-24 -2
q-6 2 -43 4t-56 10t-49 17q-88 18 -147 82q-50 51 -64 75q-46 84 -53 211q0 1 8 61t21 108q12 48 50 112q38 66 62 94l33 33q2 2 10 14q-8 7 -24 15q-126 67 -80 137q67 108 82 128l20 30l-30 24q-53 49 -88 94t-49 125q-23 136 34 260q6 18 37 78l25 43q23 37 43 53
q65 64 87 76t29 16q6 4 15 -1q45 -3 56 -13q12 -10 18 -17t8 -9q0 -14 -13 -15l-30 -12q-4 0 -9 -4l-30 -31q-63 -63 -74 -90t-18 -41t-11 -21q-4 -8 -6 -14t-5 -13t-3 -9l-19 -56q-2 -4 -5 -8t-7 -24t-8 -41l-8 -41q0 -18 4 -56l6 -43q0 -26 18 -56q18 -31 26 -39
q7 -8 33 -40q26 -33 61 -54t52 -38q0 -12 -11 -21t-25 -22l-15 -14q-84 -127 -98 -154l152 -98q-10 -20 -56 -53z" />
    <glyph glyph-name="backslash" unicode="\" horiz-adv-x="425" 
d="M197 694q2 4 2 6q-2 2 -9 2q2 -2 5 -4q2 -2 2 -4zM43 1411q1 31 21 20t25 -3t5 22q59 -37 70 -76q42 -162 66 -316t46 -271q22 -115 31 -181q8 -66 46 -268t30 -305q0 -27 -9 -29t-36 8q-16 25 -26 65q-10 41 -44 155t-46 170t-34 164q-23 107 -30 162q-6 56 -28 158
t-38 197q-16 96 -34 165t-15 116v47z" />
    <glyph glyph-name="bracketright" unicode="]" horiz-adv-x="528" 
d="M94 -134q0 14 15 15q4 12 73 34t92 60q24 43 46 77t30 68t14 52q23 83 -6 199q-11 57 -64 122q-54 66 -58 70q-68 60 -76 68l8 8q-6 10 -12 24q-6 15 4 27t26 36t26 37t19 28q-8 14 -15 19t-17 15l-15 15q-12 16 -59 59l-35 35q-8 10 -24 47q4 6 11 19q7 12 14 22t27 50
l31 62q29 51 56 164q16 90 14 130t-18 93q-16 54 -84 134q-7 8 -15 15q-8 8 -18 16t-16 12q-27 2 -27 35q0 4 4 12q10 4 59 -14t72 -41q18 -14 52 -52t40 -54t26 -54q20 -39 21 -72l11 -88q-2 -23 -8 -49t-8 -49q-13 -100 -87 -225l-11 -22q-16 -29 -17 -32q5 -12 -3 -20
q-20 -21 76 -101l49 -55q7 -8 19 -24t20 -25q-6 -2 -6 -6l-37 -31q-4 -2 -49 -69l-4 -9q8 -8 14 -10q14 -14 19 -27t35 -37q29 -24 49 -42q39 -43 53 -82t29 -70q14 -33 20 -63q8 -41 8 -140l-4 -12q5 -5 -2 -33q-6 -27 -8 -33t-6 -19t-11 -31q-6 -18 -12 -26q-6 -9 -18 -33
l-18 -36q-13 -13 -13 -27q-8 -14 -15 -18t-40 -20q-33 -27 -37 -31q-69 -33 -89 -42t-41 1t-41 15q-18 5 -28 10t-10 19z" />
    <glyph glyph-name="asciicircum" unicode="^" horiz-adv-x="493" 
d="M248 1327l35 -2q33 -18 48 -50t26 -77t25 -73t29 -107q15 -80 21 -105t21 -94q0 -8 -4 -8q-29 -10 -52 12q-28 27 -69 142t-50 134q-10 19 -14 29l-2 2h-6q-23 -50 -25 -66t-22 -58q-19 -42 -27 -66q-8 -23 -63 -123q-8 -16 -36 -11t-42 28q16 100 84 275t82 220
q14 -14 41 -2z" />
    <glyph glyph-name="grave" unicode="`" horiz-adv-x="313" 
d="M207 1329h2v8h-2v-8zM193 1317q0 -2 2 -4l4 4q0 2 -2 1t-4 -1zM111 1490q0 -1 2 -1l2 2q4 0 4 2t-2 2l-2 4q-2 -4 -6 -8q2 0 2 -1zM147 1397q2 -12 11 -8q-2 0 -6 4t-5 4zM154 1427q6 -6 6 -8l2 2q0 5 -4 9q-2 0 -4 -3zM215 1276v4q-4 -2 -8 -6l4 -4q4 4 4 6zM240 1208
l12 -6q-4 10 -12 6zM242 1174q6 -6 8 -7l4 4v7l-2 4l-2 2q-2 -4 -8 -10zM258 1145q6 0 10 4q0 8 -2 12h-2q-2 -8 -8 -16h2zM213 1241q2 -12 14 -12q-6 4 -14 12zM190 1063l-12 -10q8 -14 19 -11v2l-9 5q0 2 1 6t1 8zM233 1231l11 2v12l-13 8q0 12 5 15q-4 0 -5 2l-12 -19
q8 -12 14 -20zM225 1116q-8 -8 -8 -12q-12 -8 -20 -17q4 -16 6 -22v-18q12 4 16 4l-8 12q6 -2 12 -2q8 18 8 53q-2 2 -6 2zM168 1389h2q2 4 0 8t-2 6q-2 -2 -2 -6l2 -4v-4zM172 1397h16q0 -4 5 -13q-16 -4 -25 -4v-8q12 0 22 -2l-12 -24q4 -10 12 -9l13 19l-6 12
q8 -5 24 -45q0 -2 -7 -5t-3 -11l12 2q6 -6 6 -9q-2 -2 -8 -2t-8 -2l16 -18q2 2 9 2l14 -49q0 -4 12 -40t6 -73l-6 -31q-2 -9 0 -31t-18 -32q-4 -2 -17 -15t-34 -5q-15 26 -17 34t-5 60t-5 65l-4 29q-6 48 -30 110t-32 82t-14 37q-17 13 -26 41q-9 27 -11 29q-18 20 4 41
q16 12 34 4t22 -31q27 -3 59 -84q2 -4 8 -10q-6 -6 -6 -14z" />
    <glyph glyph-name="a" unicode="a" horiz-adv-x="606" 
d="M141 903q-10 0 -14 -4q0 -2 2 -5t2 -5q2 2 10 14zM352 487q0 5 4 17q-10 -10 -18 -15q8 -2 14 -2zM344 543l23 -2q2 4 2 8q-4 -2 -11 -2l-14 2v-6zM250 954l-8 -112v-2q-8 -33 -11 -47v-39l-4 -25q4 -35 -4 -45q-2 -10 -4 -39t-10 -53q1 -10 17 -6t46 12q56 15 90 18v-2
q4 -4 7 -8v25q-1 19 -7 49t-12 83t-15 83q-9 29 -15 79q-6 49 -9 75l-15 85q-5 31 -7 41t-2 22t-2 19q-2 0 -4 2q-6 -6 -7 -8l-6 -37q0 -45 -9 -93q-9 -49 -9 -77zM98 735v4l8 78l11 70q0 15 8 31q2 0 14 -5v5l-4 4q-6 2 -10 4q13 0 18 10l-12 8l4 -10h-8q25 176 94 473
q12 0 17 16q0 18 18 15q12 0 22 -20q9 -20 12 -23t10 -13t11 -14l4 4q27 -55 36 -99q11 -54 28 -104q17 -49 23 -83t14 -60t14 -52t10 -40l13 -55q2 -7 5 -23t12 -54t13 -69l13 -67q0 -43 9 -85q9 -41 11 -52q10 -58 23 -89l6 -55q9 -20 18 -72l6 -49q4 -25 6 -35l7 -86
q6 -31 4 -63t-8 -39v-23q0 -12 -26 -11t-44 42q-3 10 -19 39q-27 52 -55 191l-31 159q-5 40 -18 60q2 0 4 2q-4 4 -4 6q-2 -2 -8 -2q-2 -4 -2 -12l-31 -9q-4 0 -12 9q0 -2 4 -11q-43 -2 -80 -6q-14 -14 -45 -6q-27 -12 -27 -56q0 -45 -2 -55t-7 -30t-7 -26t-2 -11l2 -17
l-10 -75q0 -14 -4 -35v-51l-11 -78v-2q-2 -20 -34 -29q-2 0 -15 6q-12 12 -22 10q-35 20 -40 26t-5 30q-9 55 -1 130q7 76 11 96l6 30l12 80q4 25 15 83q20 101 20 199q8 32 8 41z" />
    <glyph glyph-name="b" unicode="b" horiz-adv-x="622" 
d="M442 264q11 0 15 -4l4 4q-4 8 -4 15zM442 391q2 0 4 2l-6 13l-4 -5q6 -6 6 -10zM213 98l37 8q31 4 112 37q14 16 31 50q39 67 34 135q-11 145 -46 190q-10 14 -25 42q-14 28 -19 34t-6 17t-23 33t-56 36q-35 16 -59 29q-14 -39 -17 -43q2 2 6 4t6 4q2 -18 2 -51l-2 -84
q0 -33 5 -90q0 -49 6 -103l-2 -2v-29q2 -14 6 -47v-80l6 -79q0 -2 4 -11zM193 84q2 6 6 14q-2 2 -2 4l-4 -4q-6 -2 -11 -4q9 -4 11 -10zM152 74q2 0 10 -4q2 4 2 6q-12 4 -12 -2zM139 147q2 2 15 9q0 7 -19 2q0 -2 2 -6t2 -5zM117 164q-6 -24 -6 -41q4 -4 16 -4l-6 12
q4 29 8 43l-2 2l-12 -12h2zM111 94q0 8 4 17l-4 2q0 -9 -5 -19h5zM96 532q-6 0 -10 -2v-4l12 -6q2 0 0 3t-2 9zM94 492h4v10q-4 0 -4 -2v-8zM111 436l-2 -2h-5q2 -12 2 -35q8 5 8 19t-3 18zM111 492h2q0 2 2 6v4l-4 2v-12zM113 516h2v19l-2 2h-2q2 -6 2 -21zM113 346v51
q-2 -8 -7 -12l3 -39h4zM111 288q0 -7 -2 -12h4l6 5q4 12 4 18q0 -2 -2 -2v39l-12 -2q0 -14 4 -35q-2 -4 -2 -11zM193 815v21l-7 -13l2 -4q3 -2 5 -4zM199 791h6l2 2q6 -6 8 -11q2 2 4 2l2 31h-2q-4 -6 -8 -18l-4 -2l-6 12q-2 -2 -4 -2q2 -4 2 -14zM250 772q0 2 -1 6t-1 8
q-2 -2 -4 -2v-12h6zM178 1272q-12 -84 -12 -185l2 -16l-2 -61l6 -111q4 -27 12 -37q4 6 107 180l39 97q28 69 16 129t-53 78l-80 10h-12q-6 -2 -21 -2l-2 -74v-8zM121 1507q0 -10 4 -24q4 -15 9 -33t9 -27q8 1 33 13q64 32 135 -4l21 -11q45 -12 86 -67q26 -45 28 -49
q2 -5 12 -25t11 -30q2 -10 -4 -40l-12 -86q-24 -115 -43 -147q-18 -32 -22 -46q-4 -13 -9 -13q-23 -44 -26 -54t-26 -40t-26 -40q-8 -8 -16 -14l2 -4v-8q33 -8 43 -10q51 -35 62 -46q11 -10 22 -19t20 -21l19 -19q16 -15 29 -35q12 -20 30 -46t32 -48t13 -36q0 -15 12 -48
q13 -33 11 -43q-2 -11 -3 -31t-3 -38t-5 -34q-2 -18 -5 -46t-7 -50l-12 -43q-12 -23 -31 -20q-4 -18 -51 -49t-113 -33h-6q-4 -2 -55 0t-73 11t-30 9l9 13h-21q0 18 -4 26q-8 4 -14 9q4 -5 7 -13t5 -10q-4 0 -8 2q2 -6 6 -14q4 0 16 -6l2 -2l2 -5q-4 -12 -16 -25t-20 -13
q-37 0 -44 26q2 0 7 2l-7 25v1q0 1 3 1q-11 44 -11 72l-20 272l2 22l8 5q-4 0 -8 4q2 29 -4 87t-7 114t-1 84t2 30q-6 35 -7 186l-2 113q0 10 5 115l8 252q0 70 10 100l12 6q25 -25 25 -35zM113 205q6 0 10 8t8 10q-6 0 -10 4l8 15q-8 23 -10 28h-4q-6 -4 -4 -32t2 -33z
M104 180l15 10q0 9 -6 15q-23 -6 -9 -25z" />
    <glyph glyph-name="c" unicode="c" horiz-adv-x="710" 
d="M621 150l36 -9q-8 -18 13 -35q0 -16 -22 -23t-17 -28q-3 -6 -23 -24q-20 -17 -44 -22t-56 -15h-21q-82 12 -121 22t-91 54q-52 43 -60 49q-61 66 -104 123t-65 181q-21 124 -23 158q-6 99 22 210l18 79q25 86 36 119t53 117q26 66 36 76q6 12 14 26q7 14 9 21
q10 12 27 39q16 27 26 41q56 81 156 119q61 22 90 23q30 1 62 -19t39 -27q7 -8 7 -27q0 -2 -9 -4t-22 -11t-39 -11t-73 -27q-46 -26 -60 -43q-15 -16 -22 -20q-16 -20 -28 -32t-43 -65q-20 -29 -32 -57t-20 -48t-18 -44q-10 -23 -27 -92l-30 -111q-3 -8 -7 -23t-6 -24
l-8 -45q2 -12 -3 -34t-5 -23l-8 -41v-99q0 -10 9 -50t15 -73t11 -49q12 -12 16 -28q6 -25 28 -65q22 -39 48 -62l2 2q2 -10 2 -11q0 2 2 5l51 -52q66 -66 135 -45q47 18 73 35q27 16 34 19h37z" />
    <glyph glyph-name="d" unicode="d" horiz-adv-x="782" 
d="M203 233l-8 9h-7q2 -4 3 -10t2 -11q4 6 10 12zM451 113q2 0 6 4q-4 8 -4 20l-9 -8q3 -8 7 -16zM334 104q-4 12 -8 21q-6 -8 -9 -16q13 -5 17 -5zM100 803v16q-6 0 -14 -2l10 -16q2 2 4 2zM602 841q0 5 -2 9q-10 -19 6 -25l6 13q0 2 -2 2l-6 -6q-2 2 -2 7zM621 754h14
q0 4 -1 14t-1 14l-10 -8l6 -12q-4 0 -6 2q-2 -4 -2 -10zM287 113h2q2 2 4 6t4 6q-2 0 -4 2l-8 -8q-8 0 -15 2l4 -12q2 -2 9 -3q4 1 4 7zM627 737h-6q-6 -24 0 -24l12 18zM655 656q0 -1 2 -1l9 13l2 10q-4 8 -13 16l-6 -12q14 -14 4 -25q2 0 2 -1zM410 123q0 4 -2 10t-2 8
q-8 -8 -19 -2q6 4 6 7t-4 20q-4 -12 -8 -33l6 -6l2 2v4l12 -10v-6q20 -4 25 -4q11 19 8 26l-12 -18q-4 2 -12 2zM201 406h6v-117l-8 4l2 16h-4v-22q0 -4 -2 -8l12 4v-33l-8 12l-6 -12q12 -8 14 -10q0 -57 -1 -89t15 -45l-4 -8h27q-2 4 -11 23q18 9 52 21q33 12 39 15l24 12
t68 59t58 64q9 16 54 126t56 208q10 98 7 120t-6 65t-15 92t-47 96q-35 46 -39 50t-12 18q-9 14 -54 66q-14 10 -17 14q-4 10 -34 37q-35 18 -109 59q-20 -17 -21 -39t-1 -59q-7 -49 -7 -77t-2 -54t-5 -66t-5 -57l-6 -80q-2 -4 -2 -10l-10 -33q0 -2 4 -10h2q-4 -20 -4 -33
l6 -66l-2 -122q0 -7 -2 -25t1 -42t-3 -42v-22zM358 123q2 0 2 -2l5 -2q4 4 6 8l-4 4v14h-7q-2 6 -2 23q-4 -4 -16 -12q4 -11 16 -11v-22zM461 1237q4 -4 4 -12l14 -2q2 -4 10 -17q2 0 7 -2q0 -2 -2 -4l18 -12q59 -59 109 -156q49 -96 53 -100t6 -18t13 -38q10 -25 26 -106h2
l4 2l12 -107q0 -22 2 -32v-64l-8 -67q-2 -6 -5 -20t-7 -29q-4 -14 -29 -95q-24 -80 -39 -104q-17 -41 -39 -72q-22 -32 -32 -36q-11 -4 -38 -27q-26 -23 -37 -31t-47 -14t-46 -14t-26 -11q-16 -4 -19 -8q-4 -4 -30 -4h-30q-48 -12 -82 -12t-102 6q-6 3 -23 19q-18 17 -18 22
q-6 105 -6 157v43l-2 88q-2 47 -2 144v76q-2 18 -2 55t-2 55l-7 117q0 14 5 39v35q0 51 4 153l8 121q4 98 14 219q4 14 10 15q21 5 27 28q14 0 55 -26q13 -13 17 -25t7 -17q2 -5 28 -7t44 -11q18 -8 74 -22q41 -14 47 -33l7 6q25 -12 26 -29q6 0 12 2l-4 -10q6 -2 19 -10v2z
" />
    <glyph glyph-name="e" unicode="e" horiz-adv-x="626" 
d="M178 807l2 2q-8 12 -12 20q-4 -8 10 -22zM250 201q6 0 10 2v6q-2 2 -6 5t-6 5q-4 -12 -6 -20q2 2 8 2zM203 233q-4 0 -10 -4t-9 -4l11 -10l2 2q8 -4 14 -6q0 4 2 6l-6 2q-2 2 -4 6l-2 2q0 4 2 6zM213 817q4 -31 77 -20t129 6q57 -5 85 -12t37 -9q5 -14 -5 -23t-18 -26
l-12 -12l2 -4v-6l-16 -16q-20 -19 -48 -19t-52 -7t-118 1h-34q-4 -2 -15 -13q2 -4 2 -8h-2l2 -47l2 -2v-4h-2q4 -119 6 -182q8 -6 5 -37q4 -4 4 -6v-58h4q0 -4 4 -12q7 -67 18 -94v-6q6 -6 20 -10t37 -14q24 -10 62 3q39 13 47 19q26 8 52 17t44 9q-2 -6 -2 -10t4 -8
q-4 -12 -6 -19l15 -15q25 -28 19 -38q-5 -10 -5 -18q-4 -33 -33 -47q-55 -23 -89 -26t-43 -9q-10 -6 -24 -6t-23 1q-100 11 -138 42l-35 18q-2 4 -8 10t-8 11q-2 0 -6 4q-4 3 -16 17q-36 39 -58 130q-12 33 -12 97t6 102l-2 31l2 102q0 116 3 166t7 133l12 160
q10 172 22 239q13 67 15 78q7 39 64 39q13 0 20 2l55 6q27 2 80 2l21 2h51q14 0 74 -10l24 -6q10 -4 12 -11t27 -12l31 -6q0 -10 -4 -14q-2 0 -2 2l-19 -18l2 -3q-12 -4 -18 -4t-8 2v-4q-17 -4 -27 -4l-107 -18l-4 2q-8 -4 -39 -4h-34q-25 -4 -66 -13q-16 0 -13 -14t-3 -50
t-6 -48l-5 -36q0 -11 -1 -17t4 -17q6 -42 6 -104l-4 -31l2 -43v-100l-2 -23q-2 -12 -13 -6z" />
    <glyph glyph-name="f" unicode="f" horiz-adv-x="608" 
d="M410 1323q-4 0 -9 4v-14q3 -2 7 -2q2 4 2 12zM121 106h2l4 -2l4 5v6l-2 4q-6 0 -8 -2v-11zM309 795q-4 0 -8 2t-10 -4q2 0 6 -5h-6q2 -2 2 -4q4 2 16 7v4zM166 135q0 5 4 18t3 15t-5 14h-6l-2 -16q0 -4 2 -6q-8 -4 -17 -10l13 -7l-2 -2l-13 2q0 -2 -2 -2q2 -2 7 -5t8 -5
v4h10zM197 1187q0 -26 4 -71v-45l6 -43q2 -14 2 -41l-2 -45l-2 -24q8 -8 10 -9q49 5 119 9t115 -9l30 -12l4 -2q3 -4 11 -15q24 -31 30 -44v-5l-37 -18q-7 -7 -41 -12q-34 -6 -38 -8l-56 -13h-10v-6h-23q-20 -8 -42 -5q-23 3 -39 3t-25 2h-2q-2 -2 -4 -2l8 -45q2 -10 2 -33
t2 -35l2 -63l-4 -37q0 -16 2 -22l2 -31l-2 -84q9 -28 8 -57q-2 -29 -2 -43t-2 -21l-6 -39l4 -47l-8 -43q0 -8 -3 -20t-7 -45t-17 -40q-14 -8 -30 -16h-2q-14 -12 -60 25q-10 14 -10 33l-8 151q-4 57 -4 88l2 98q0 55 2 82l2 80v150q0 26 -6 59v47q-6 30 -6 83t-5 79v131
q0 55 2 82l3 68q6 90 6 95t4 18t4 18q10 -4 19 -10t18 -5q150 15 172 15l65 -6q14 -2 43 -2l37 -7l30 4q13 0 32 -7q47 -17 47 -52q0 -13 13 -30t9 -33l-53 -7q-48 -12 -74 -12l-82 4q-47 0 -71 4l-60 -2q-25 0 -24 -22q-4 -57 -4 -83zM434 1315l15 18l-3 2q-12 0 -18 -2z
M426 1338q0 3 -2 5h-4q-6 -12 -6 -16l4 -2q6 6 10 8q-2 2 -2 5z" />
    <glyph glyph-name="g" unicode="g" horiz-adv-x="880" 
d="M164 903q0 -18 4 -26q4 0 4 2v24h-8zM80 592v16q-8 -4 -14 -6q4 -2 7 -5t7 -5zM57 664q0 -10 2 -13q4 0 7 2l-5 25h-6q2 -4 2 -14zM678 616q0 15 -4 19q-8 0 -17 -4l-2 -2q12 -8 23 -13zM203 608q0 -26 -8 -46t-2 -64q9 -66 18 -93t12 -44q6 -40 14 -49q9 -9 17 -25
q14 -16 40 -49t48 -51q41 -33 121 -33t106 26q68 90 77 109q10 19 24 90t14 107t-20 81q-4 9 -22 15t-26 3q-10 -3 -22 -3h-19q-23 -2 -71 -7h-12q-20 -4 -33 -4v-4q-49 18 -53 25l-10 12t-7 10q23 23 35 24t47 12t162 24l82 -6q64 -6 68 -13q5 -6 10 -11t10 -17
q-2 -13 16 -31q8 -16 14 -75t-2 -105q-10 -35 -8 -46q2 -12 -3 -30t-14 -66t-23 -87q-15 -40 -25 -56t-39 -45q-32 -44 -48 -51q-17 -7 -45 -21t-57 -10q-107 0 -143 13q-34 13 -56 25t-46 20q-24 9 -33 20q-61 43 -78 57q-47 47 -70 82q-64 114 -86 225q-28 230 -8 301
q20 72 31 120t44 136q32 87 38 98t25 52t46 68q19 16 53 49q34 32 64 56t61 34q33 10 59 24t67 10t53 -8q33 -6 53 -38q-7 -4 -27 -16t-29 -20t-19 -14t-16 -12q-7 -6 -51 -30q-45 -24 -55 -40t-43 -53l-11 -22q-28 -55 -36 -62l-26 -59q-2 -10 -12 -30t-14 -29
q-3 -10 -10 -34t-25 -68t-39 -115q-21 -70 -24 -90t-3 -46z" />
    <glyph glyph-name="h" unicode="h" horiz-adv-x="704" 
d="M592 1307q-2 0 -6 4l-6 -13q2 -2 4 -5t5 -5t5 -4q4 10 8 23h-10zM580 993v4h-13q0 2 4 15q-12 4 -20 6q4 -6 8 -14q-6 -6 -8 -11l6 -4q20 4 23 4zM539 655q0 6 -9 15q0 -8 -4 -21q2 -2 2 -6t21 -4v4q-2 0 -6 1t-8 1q4 4 4 10zM514 1155q8 4 25 4q-10 14 -11 17l-14 -7
v-14zM512 1282q4 0 16 -6l2 6l-10 21q4 16 8 24q-20 -4 -16 -27v-18zM537 1114q6 0 8 2q2 12 -2 18t-15 3q4 -8 9 -15v-8zM555 1114q-2 -2 -5 -9t-7 -11l24 12zM547 1268v-8q4 -4 8 -7l-12 -6l8 -12q10 0 16 2q-8 8 -8 16l10 11l-4 8q-12 -4 -18 -4zM569 1294q-8 0 -12 -2
q0 6 2 8h6l-2 3q4 0 8 4t7 4q-12 10 -37 26l-2 -2q2 -8 6 -28q-4 0 -7 2t-8 2l11 -11q-2 -8 -2 -24q4 -2 12 -2q12 6 18 8v12zM166 872h2q4 -2 6 -2l10 17l-2 2q-4 0 -6 -4t-11 -3t-11 -3t0 -11h2q4 -2 6 -2l2 2q0 4 2 4zM131 834l-12 -5q0 -6 -4 -22q4 0 12 -4q0 4 -4 12
q10 -2 18 -8q4 4 11 4v-8q12 4 18 8q-14 4 -14 10h-4v-10q-7 14 -11 18l-8 -12l-4 2h-8q6 4 14 8q-4 4 -4 7zM152 801h-17q0 -2 -2 -4l19 -13v17zM129 653l6 6q-4 6 -12 15l-2 -2q4 -13 8 -19zM106 702q4 0 7 3q0 4 -4 16q-4 0 -7 -2q4 -13 4 -17zM104 498q4 0 7 2q0 2 -2 6
t-4 9q-1 5 -3 9l-4 -8zM100 788l-8 23l-4 -2q2 -12 8 -23zM96 844q-10 0 -16 2l10 -25h4q0 6 -6 23l16 -13q3 3 7 11q-5 2 -15 2zM78 1159q0 -4 2 -6q12 8 14 10q-4 0 -10 6l-8 -4q2 -2 2 -6zM84 1188q0 -8 -2 -17q4 1 14 7q-4 8 -6 10h-6zM121 1053q-6 -13 -2 -18t4 -7l4 2
q-4 12 -6 23zM106 1157q4 -16 9 -29q4 16 8 27q-13 0 -17 2zM102 1052q0 1 -3 -1t-5 -2l-8 4l2 -17h6l10 15q-2 0 -2 1zM84 989l18 -8h2q-4 6 -14 16q-4 -4 -6 -8zM117 866q-4 10 -11 21h-12l19 -25q0 4 4 4zM115 911q4 4 4 13l-2 4q-3 2 -13 5t-14 5q19 -19 25 -27z
M162 911q2 0 8 1t10 1q-6 6 -8 7l-18 -7v-20l6 -10q2 12 2 28zM150 1019q0 -3 4 -24q4 6 8 11l-8 16q-4 0 -4 -3zM150 1169q-12 -14 6 -24q0 14 2 20zM174 1034l-18 8q0 6 -2 11q-2 0 -8 -1t-7 -1q21 -26 35 -19v2zM145 904q0 9 2 14h-6q-6 -10 -6 -21l8 -8h2l2 2
q-2 4 -2 13zM158 1235q0 -2 4 -6q12 6 22 16l-4 8l-12 -6q0 12 -2 17q-5 0 -33 8q0 8 2 12q-10 0 -14 -4q-6 6 -6 10h-4l-5 -2l-8 8v7l2 4l-2 2q-5 -13 -18 -13q16 -16 29 -16q0 -6 -3 -18q17 5 17 12q10 -10 16 -12q20 -4 23 -21q-8 4 -10 6q-4 -8 -9 -14q8 2 15 2z
M117 1294l2 17q-8 4 -15 6q4 -10 9 -23h4zM94 1352v-2q1 0 10 -7q9 -18 9 -24q10 4 12 6q-10 12 -14 23q2 2 6 5t6 5h-12q0 -2 -2 -2l-3 -4h-12zM168 1331l-21 2v-2q4 -4 13 -8zM141 1348q5 0 11 4l-13 24l-4 -4l-12 -6q12 -6 18 -10v-8zM131 1393l4 -13q2 0 7 1t10 1l-4 8
t-5 6q-2 3 -4 5zM500 1133q-17 50 -8 118v82q10 0 18 -4q0 8 2 12l-14 -2q0 2 -2 2l12 19l-4 4q2 14 12 33q32 -21 38 -20q7 1 50 -17q12 -2 25 -33l6 -55q4 -78 4 -102v-99q4 -61 4 -96l-4 -96q-4 -157 -4 -213v-437q0 -111 -1 -164t-22 -77q-20 -4 -32 -4q-12 23 -50 39
q0 35 -11 93t-13 82q-2 23 -2 49t-2 42t-4 61q-2 44 -12 100t-3 103v35l4 20h-4q-2 6 1 34t-7 30l-18 -6q-49 4 -70 6l-8 -8q4 -4 6 -5v-4q-16 0 -22 -2q-6 6 -9 11q-4 -4 -18 -11q-2 2 -14 11q0 -6 2 -11q-6 -2 -17 -2q0 2 -4 11q-4 -8 -6 -11q-4 4 -10 13l-21 -7h-13
q-16 0 -19 -39l-3 -65l-4 -4v-19l-2 -49q-14 -93 -14 -149q-12 -149 -18 -285q-3 -19 -19 -27t-28 6q-29 36 -37 54q-9 18 -9 42t-12 77l-4 30v140l-2 22h-2l-2 221h-2q0 2 -2 10t4 16q6 10 0 30t-2 65l-2 19l16 12h-18q0 90 -2 139l2 72h2q-2 0 -2 4t-2 4q4 4 6 4
q-8 9 -8 27v28q6 7 8 7t4 2q-12 2 -12 15t10 13l-12 23l8 4q-6 16 -11 77t1 134q12 1 14 19t18 57l11 20q8 6 26 -2q49 -27 53 -29q27 -6 33 -39q12 -74 15 -110v-90q4 -90 4 -135v-228q0 -20 18 -14q2 -4 2 -10q27 0 37 2l12 -8l6 6q-12 8 -22 12q14 2 40 5t38 5
q-4 -4 -6 -8l10 -14q8 4 14 4l-2 2h-12q0 2 4 14q24 0 88 8q-10 -6 -14 -8h26l4 55l2 21l2 102l7 123q2 2 2 6h8v9h-8q-4 12 -4 38z" />
    <glyph glyph-name="i" unicode="i" horiz-adv-x="290" 
d="M78 670q0 -8 1 -10t5 -2q4 1 6 1q-4 9 -8 13q0 -2 -4 -2zM129 1055v12h-6l-2 -16q8 0 8 4zM94 393h4l4 2q-4 12 -6 17q-4 -8 -8 -13q2 0 6 -6zM121 365l2 10l-8 8q-7 0 4 -21zM102 958h-4q4 -8 4 -26q2 2 11 6zM136 1143q-7 0 -11 2l-2 -12q4 -2 6 -5v-6q6 4 14 8
q0 13 -7 13zM96 719h8q4 -4 9 -6q-4 25 -9 37q-4 -9 -4 -13q-8 0 -20 -6q12 -12 16 -12zM162 92v8l-2 2q0 4 -2 4l-15 -14q0 2 -1 2t-1 2l2 2q0 4 2 4q-8 8 -12 11q-6 -6 -6 -15h8v-14q2 0 6 2h4l7 -12q8 -4 8 -6l6 6q-4 12 -4 18zM217 797q5 -28 12 -115v-172q0 -20 -4 -66
v-186l2 -92q0 -33 -6 -41q-6 -9 -7 -23t-1 -34t-6 -39l-14 -4q0 2 2 4q-49 12 -72 18q-51 14 -52 60t-8 79l5 45q0 6 -5 23v106l-2 148l2 74v63q7 100 7 148q0 49 -4 102v96l8 4v13q-2 0 -6 -2q-6 240 -2 274q-4 90 -5 135q35 8 59 -4t46 -24q23 -11 18 -35v-37q0 -18 2 -27
l4 -31q7 -69 0 -122l15 -142l-2 -43l10 -83v-21q8 -32 8 -47q-2 -2 -4 -2z" />
    <glyph glyph-name="j" unicode="j" horiz-adv-x="612" 
d="M541 825l4 -101q0 -17 4 -54v-62l2 -49l-2 -35v-65q2 -20 2 -64l-2 -41l-6 -35q2 -25 2 -67l-8 -105l-11 -53v-2q-16 -45 -43 -53q-27 -20 -73 -26q-46 -7 -59 -7q-59 0 -148 27q-76 16 -113 69t-49 104t-21 76q-8 25 -8 68v10q0 29 19 34t35 -1q18 -11 27 -29t19 -35
t13 -25q4 -8 7 -17t8 -19t6 -15t4 -7l24 -49q8 -18 33 -56q2 -10 10 -16q41 -19 61 -27q46 -18 69 72q5 18 11 34t6 50t5 74l12 43q0 35 4 104l6 123l8 23l2 18q0 59 2 86t5 76q2 49 4 89t6 152q8 106 10 160l-2 68q6 50 6 92q0 37 53 37q18 4 45 -27q2 -2 2 -26t4 -54
t3 -46q-2 -16 -2 -23l2 -88l-2 -21v-49l-2 -53q0 -25 2 -37l6 -78q2 -12 0 -36t-2 -36z" />
    <glyph glyph-name="k" unicode="k" horiz-adv-x="755" 
d="M682 121l2 4v6q-12 4 -16 4q-4 -8 0 -12t14 -2zM647 168l4 8l-10 10l-4 -2q0 -2 10 -16zM627 217h-4l-5 2l-2 -6q7 -7 7 -10q4 4 4 14zM610 227v11h-4l-4 2l-6 6q4 -8 4 -15q2 0 4 2l-2 -2v-4h8zM203 596q0 -10 12 -10q-2 -4 -6 -8t-6 -7l12 -4q10 29 -14 37q0 -2 2 -8z
M172 1019q0 -3 18 9l-12 6q-6 -6 -6 -10v-5zM156 1044q10 0 22 -6q-4 22 -22 6zM135 698v15q-4 -5 -10 -9t-8 -6h18zM102 647q9 0 9 9t4 12q5 -5 12 -19l4 17q-2 0 -10 4l12 6l-18 14q-4 -6 -13 -14q10 -16 -8 -27q4 0 8 -4v2zM113 629l-11 16q-4 -4 -4 -10q13 -8 21 -12
l6 6h-12zM84 680q2 -4 8 -10l10 20h-8zM109 827l-15 -10q6 -6 10 -6q2 6 7 14zM96 725q2 0 6 2t7 2q-8 8 -9 10h-2q-2 -4 -2 -14zM123 774q-4 2 -12 10l-7 -12q8 -4 11 -6zM510 1192h-4q2 -4 2 -18q6 6 10 8q-4 8 -8 10zM223 553v-21l8 -6q-4 -4 -4 -14l2 -2l2 -74l-2 -76
v-38q2 0 0 -35v-33q2 -14 2 -45v-64q0 -3 -24 -127q-6 -25 -37 -24q-8 0 -16 -8q-14 0 -31 13q-15 13 -19 25t-12 37q-16 48 -16 97v78q0 29 -4 90v106l-2 64l2 88l-2 49v47l-2 65v50l-7 63l2 84v55q0 29 5 82q0 39 4 109l2 104v51q0 37 2 56q0 10 14 10q55 0 88 -41
q4 -4 4 -17t-2 -22v-16q0 -28 8 -64q15 -60 7 -94q14 -33 6 -53l4 -80l-8 -12q2 -2 5 -2t5 -2l-2 -35q0 -8 6 -14t0 -17l2 -104q-2 -6 -2 -17l2 -2v-7q0 -5 -4 -26v-2q4 4 4 6q6 -24 6 -40q2 0 4 -3q6 11 17 31l65 139q2 2 8 15q1 11 11 31t13 29t19 40t24 46t23 44
q16 29 52 106q36 76 55 112t28 54t17 25q8 8 82 -33q25 -25 18 -45q-23 -33 -29 -39t-16 -24q-8 -20 -12 -26t-19 -43q-30 -78 -55 -109l-24 -43q-2 -4 -27 -47q-2 -8 -10 -24t-10 -23l-43 -87q-42 -108 -81 -190q-11 -24 4 -42q35 -44 69 -89t59 -74q26 -28 31 -35l49 -73
q20 -20 23 -30q3 -9 20 -31t23 -29q7 -8 27 -46t38 -63t24 -37l19 -31l-25 -14l17 -31q-35 -23 -57 -17t-46 6q-22 -1 -48 29t-50 62l-25 31q-8 16 -12 21t-11 17t-36 56q-29 43 -58 96q-30 53 -57 96t-63 109q-2 2 -15 6l-2 -16q-4 0 -4 -2zM596 246q4 8 8 12h-22
q6 -4 14 -12z" />
    <glyph glyph-name="l" unicode="l" horiz-adv-x="663" 
d="M154 154q4 0 12 -4l2 2q0 4 2 4l-16 16v-18zM432 8q-12 0 -20 5t-20 4t-17 -1q-6 0 -10 -2l-50 2q-17 2 -37 2t-36 5v-5h-23q-6 2 -22 10t-33 13q-17 4 -72 41q-18 12 -33 40q-14 28 -9 40t3 18t0 13t2 12l-2 61q-4 32 -4 105l-2 39q-2 8 -2 26l2 43q0 9 -3 19t0 51t3 47
l-6 61q0 72 12 246l-2 51q0 22 8 78v58q0 49 1 69t3 76t19 80q20 20 39 6q6 0 12 -4l14 -43q4 -10 5 -34t12 -52q8 -40 8 -62v-47l2 -41l-2 -57q0 -43 2 -48t0 -15t-2 -22t4 -50l2 -78v-70q-12 -96 -4 -143q0 -68 4 -94v-19q10 -3 10 -16l-2 -20q2 -23 2 -64v-47
q14 -72 32 -100q17 -27 20 -29q4 -14 30 -19l45 -8q23 -2 61 0t50 2l39 -2l45 4l39 -2h10q35 12 74 2t39 -39q-2 -8 2 -22l-4 2q-18 -18 -33 -24t-53 -23q-38 -15 -70 -19t-52 -7q-18 -3 -30 -3z" />
    <glyph glyph-name="m" unicode="m" horiz-adv-x="907" 
d="M594 1337q0 18 11 41t27 64t19 45q6 -2 15 -6l10 12h2q17 -6 26 -11q9 -6 26 -14q18 -8 24 -22t20 -34t12 -44q-2 -25 5 -39l8 -100q2 -31 2 -90q4 -53 6 -82v-64q0 -8 4 -28v-13q6 -16 6 -49v-121q0 -29 2 -45v-35l2 -12v-80h4v-82q2 -10 2 -30l2 -45v-107l2 -47l3 -27
q12 -96 12 -161v-60q0 -30 -15 -78q-6 -12 -16 -11t-19 1t-14 2q-16 0 -24 23q-6 12 -24 38t-18 51q0 27 -2 61q-3 34 -6 57t-3 34l2 58l-5 53l5 72q0 2 -5 57v115q-2 14 -2 44v44q0 47 -6 96l-4 41v39l-2 41l2 39l-2 53l2 43v125q0 29 2 59t-2 35q0 -2 -2 -2t-12 -45
t-12 -51l-13 -49l-2 -19l-22 -94v-6q-2 -9 -5 -25q-4 -16 -8 -30t-9 -40t-11 -46l-12 -31q-4 -16 -9 -49t-14 -58l-12 -36q-16 -59 -33 -72q-2 -2 -11 -14t-27 -11q-19 0 -44 39q-25 45 -37 66q-23 53 -32 66t-25 52t-30 68t-29 72t-24 65t-26 72q-16 49 -21 62t-7 21
t-15 36v8q-9 26 -16 39h-4v-17l5 -20q5 -20 5 -60t2 -57l2 -39q4 -37 4 -53l-2 -35l2 -41q0 -2 -2 -4h2q-4 -16 -4 -20t4 -21l-2 -2l11 -59l-3 -2v-62q-2 -25 -2 -73h5q-2 -2 -3 -7h3l12 -182q-2 -10 -2 -31q10 -60 10 -93v-44l2 -47q4 -29 0 -59v-53q0 -4 -2 -14t0 -21
q2 -10 2 -37v-41q2 -12 -10 -19q0 -2 -2 -2t-4 -2q18 -10 14 -24q-14 -8 -39 -25l-20 -2q-15 0 -21 -6q-2 2 -2 4t-4 8t-14 10t-15 27l-2 62v45l-6 61l-2 199q0 27 -5 49t-5 90q0 70 -2 111l-4 86q-2 33 -2 98q4 53 4 78l-4 69l-4 111q0 14 -3 35l3 47q0 23 -2 48t0 41
q4 16 2 26q-2 12 0 36t2 33l-2 47l-5 62q1 10 5 35q19 0 77 -13q10 4 28 -10t24 -31q6 -8 22 -24q2 0 2 2q2 -4 45 -84q0 -15 11 -33t15 -30q3 -13 9 -20t8 -17q3 -9 17 -37q14 -29 24 -56q10 -28 19 -37q11 -32 32 -73q21 -40 37 -88t25 -70q2 -2 6 -2q12 70 48 183
q35 112 39 127q3 14 15 58q13 44 19 72t6 45zM178 1280h2v8l-2 2v-10zM178 1305v-15h2l4 2l-4 13h-2z" />
    <glyph glyph-name="n" unicode="n" horiz-adv-x="688" 
d="M160 690l-2 -6h4q2 2 2 4l2 6h-4q-2 -2 -2 -4zM164 888q0 -3 2 -9q2 2 6 10q-8 2 -8 -1zM168 1069v4q-10 -4 -8 -14q8 8 8 10zM172 1116l-10 10l-4 -12q8 0 14 2zM113 90q-10 10 -15 16q0 -2 -2 -2q11 -14 17 -14zM494 893q6 135 6 225l4 199q0 68 3 95q3 26 3 30t6 16
q40 -3 66 -38q8 -11 14 -17q0 -3 20 -123v-84q0 -84 7 -125q0 -39 2 -55t-2 -66q-7 -91 -7 -159v-21q-2 -2 -10 -6q10 -8 6 -33v-67q0 -82 2 -121l2 -66l-2 -33v-118q-2 -20 0 -21l7 -61q2 -31 2 -64t-5 -43q0 -20 -5 -50l-7 -42q-14 -6 -30 -14t-25 -4q-35 20 -37 27t-6 12
q-16 10 -34 47t-27 50q-10 13 -26 62t-26 68q-33 100 -84 301q-43 136 -48 156t-10 70t-18 77q-12 27 -22 84t-19 77q-8 19 -10 25h-6q2 -6 2 -16t1 -18q1 -7 2 -27t7 -63t7 -105l6 -170l-2 -35v-33q0 -41 4 -118v-68l2 -41q2 -25 2 -76v-88q-4 -32 -4 -100l8 -8
q-2 -2 -8 -6q0 -12 -4 -33q-4 -33 -44 -31t-57 29q-18 33 -20 51q-8 109 -5 133t1 44t-2 26v88q0 43 -2 65v183l4 94q2 41 2 127l-8 203v141q2 78 -4 124q-8 69 8 101q20 -8 32 -12q27 8 73 -23t52 -82l15 -49q0 -34 9 -58t12 -45t13 -53t9 -48q0 -16 6 -36q6 -22 8 -28
t5 -22t7 -27l25 -68q14 -34 18 -53q4 -20 10 -40t12 -50q7 -29 17 -61q10 -33 31 -95t39 -127l6 -6q4 13 2 27t3 80t8 118t8 93v102zM145 897q0 3 -1 11t-1 12q-6 -8 -2 -23h4zM143 920q4 10 -2 22q0 -16 2 -22z" />
    <glyph glyph-name="o" unicode="o" horiz-adv-x="761" 
d="M55 893q-10 0 -14 4q0 6 2 10h10zM47 885q0 -9 2 -15q-2 -2 -14 -10q2 14 6 35v-8l2 -2h4zM612 848v-6l-10 -25q4 -2 8 -6l8 4l-4 33h-2zM428 172l2 -14q23 0 74 61q2 0 4 -2q4 20 6 35q16 12 27 47q10 35 15 43t5 14l17 50l4 4q-2 18 -2 55v35q2 23 2 65v35q-4 49 6 75
t10 54h-2l2 64q-14 14 -6 55q-2 16 -2 47v20l-4 23q-5 66 -43 141q-31 82 -35 90l2 2q-14 25 -35 48q-33 49 -88 55q-6 0 -10 -4q-37 -45 -45 -62q-29 -43 -39 -116q-18 -90 -39 -169t-10 -192v-59l-2 -41q0 -61 17 -126t37 -137t38 -96t40 -52l33 -42q11 -14 21 -6zM55 940
q2 0 6 4l9 -4v12l-17 -10q0 -2 2 -2zM35 844v14q4 -2 8 -2v-12q2 0 14 4l-8 8q2 2 6 8q-4 20 15 25v8h2q2 6 2 17t2 18q-16 4 -23 6l-4 -4q2 -4 6 -8t6 -8q-6 -2 -10 -3q-10 8 -4 39q0 36 9 63t18 66q18 83 65 152q48 69 73 81q26 11 42 10t70 5t112 -8q171 -42 215 -193
q8 -29 28 -97t38 -191t11 -205t-17 -151q-9 -69 -15 -117q-6 -49 -26 -91t-32 -78q-14 -36 -26 -66t-43 -46q-6 -4 -16 -14q-9 -10 -29 -27t-67 -21q-100 -10 -178 44q-41 32 -49 40t-24 37q-18 29 -22 36t-12 25t-14 25l-68 201l-12 31q-4 12 -8 25q-4 14 -10 30t-8 24
q-3 8 -5 15l2 2q5 0 -3 24t-5 50q-2 4 -4 6q4 4 12 4q-4 2 -14 8q4 36 4 111l-6 22q-6 23 4 27l-4 4q0 2 4 6q6 0 10 -2l-8 8l2 5q0 10 -6 10z" />
    <glyph glyph-name="p" unicode="p" horiz-adv-x="638" 
d="M102 1276l2 -12q4 0 9 -2v22q-6 -4 -11 -8zM354 1339q-20 0 -45 -2t-41 -10q-16 -9 -30 -13t-13 -18q0 -14 2 -22v-19l2 -32v-49q0 -27 -4 -84v-15q0 -8 4 -33l7 -90l-7 -80v-16l2 -2q-4 -10 0 -14t17 0t41 6t82 39q52 42 95 144q42 103 31 183t-47 108q-36 26 -56 22
t-40 -3zM68 682q0 158 -5 238v114q0 33 5 99q0 80 -2 118l-5 105q0 31 5 88h6q0 2 3 6t5 8q16 2 52 -22t44 -45h10q130 28 146 28q89 -10 104 -12q0 -8 4 -12q2 0 9 6q5 -5 38 -23t64 -49q46 -65 48 -87q3 -23 9 -105v-72q0 -8 -9 -49t-26 -70t-28 -57q-11 -29 -17 -39
q-44 -68 -132 -95t-117 -16q-29 10 -46 -10v-61q0 -21 3 -39v-27q0 -39 -3 -57l-2 -53q-10 -80 -10 -148l-10 -151l-2 -35v-27q0 -18 -2 -29l-2 -30q-2 -4 0 -13v-8q-25 -4 -39 -6q6 -6 6 -14q-18 -10 -28 -3t-60 44q-10 10 -10 91t-4 150l-2 84q0 33 2 77t-2 89v119z" />
    <glyph glyph-name="q" unicode="q" horiz-adv-x="808" 
d="M254 1171q0 -9 -18 -76t-17 -89q-8 -32 -10 -51t-4 -33l-2 -72l-2 -86q0 -163 33 -268q11 -35 13 -56q4 -43 89 -166q25 -34 39 -38q13 -4 37 -15t24 -4q-10 13 -39 29t-39 30l2 5q66 39 183 -13q27 -12 32 13l5 20l11 56q23 121 25 184v170q7 176 -41 426
q-12 61 -67 149q-18 23 -31 31l-55 31q-36 9 -86 -26q-49 -36 -66 -89q-4 -21 -10 -37t-6 -25zM766 709q2 -25 2 -137t-10 -210q-16 -106 -47 -151q-8 -16 -66 -92q29 -152 -10 -260q-16 -20 -27 -35q-4 -2 -10 -4q-6 -29 -37 -23h-26q-3 2 -9 7t-10 8q-20 172 -29 258
q-4 0 -14 6q-57 12 -99 21t-46 9q-104 18 -164 94t-92 214q-38 174 -30 266q7 92 14 191t22 173q63 257 104 328q12 16 19 27q12 -4 15 -4t5 2q102 74 219 59q41 -4 97 -22q4 0 24 -21l21 -36t48 -76q34 -53 44 -79t21 -52t11 -40q1 -14 7 -36t13 -57q7 -34 16 -78t18 -154z
" />
    <glyph glyph-name="r" unicode="r" horiz-adv-x="718" 
d="M195 804q0 -26 6 -36q2 2 5 6q4 4 26 32t50 70q28 41 55 80t47 68t26 72t8 71q4 56 -30 88q-34 33 -87 17q-10 -4 -39 -10t-42 -12t-17 -33l-8 -68v-90l-2 -84q-1 -8 -3 -56t2 -68q4 -21 3 -47zM84 52q-12 20 -12 77t-9 242l3 69l-5 76q0 33 5 102l-5 89l7 92l2 59l4 211
q0 121 12 217q0 70 10 113q68 -14 97 -45q2 2 7 2t7 2q59 32 105 22t87 -20q53 -18 84 -53q9 -27 15 -35q2 -10 10 -17q27 -16 22 -45q0 -6 5 -36q-1 -76 -5 -88t-4 -22v-15q-2 -5 -9 -25t-16 -57t-26 -70l-12 -25q-3 -8 -17 -28t-21 -35q-7 -16 -9 -21t-21 -24
q0 -6 -24 -19t-46 -35t-30 -29t-12 -11q4 -2 8 -6l20 -19q29 -30 47 -58t47 -71t33 -50t6 -12l4 -12q4 -10 29 -41q24 -31 23 -42q-2 -11 12 -29q58 -102 111 -162q18 -35 59 -92q6 -10 3 -30t-3 -38h-4q-4 -2 -9 -1t-21 4q-79 14 -136 87q-16 20 -44 60t-46 66
q-18 24 -54 86t-65 103q-29 42 -53 86t-31 48q-6 4 -8 8q-6 -12 -10 -103t-4 -102l4 -119q-6 -134 -10 -142q-5 -9 -8 -22t-5 -20q-8 8 -8 14q-12 -2 -16 -16t-9 -18q-31 0 -41 2q-8 3 -20 23z" />
    <glyph glyph-name="s" unicode="s" horiz-adv-x="845" 
d="M735 573l13 21q-2 2 -3 4q-8 -4 -24 -6q2 -3 14 -19zM719 545q0 -23 2 -33q2 0 4 -2q0 4 3 14t3 23q-4 -2 -12 -2zM700 532q-2 0 -9 6t-23 -1q8 -12 18 -19zM632 770q5 0 9 -3q5 -3 21 -13t23 -20t40 -42t40 -46t15 -27q9 -14 14 -25q5 -12 13 -55t7 -59t-10 -50
q-9 -35 -20 -49q0 -29 -39 -84q-8 -16 -25 -61t-33 -64q-17 -20 -23 -29q-4 -14 -34 -31t-48 -14q0 -5 -7 -10q-97 -23 -157 -27q-61 -4 -111 17q-8 2 -29 6t-70 26q-48 23 -63 29q-21 21 -40 29q-79 33 -72 76q2 25 12 53q4 18 25 18q6 0 27 1t30 -11q37 -10 89 -25t97 -14
q115 12 160 18t66 27q72 70 86 191q2 25 -7 102q-5 29 -44 81q-40 52 -80 65q-8 4 -72 43t-105 56t-47 30h-14q-106 41 -162 141q-30 50 -10 164q4 18 26 60t46 67q78 78 142 90t81 10l123 -18q4 -4 16 -4l31 -13q18 -13 49 -30q0 -16 2 -21q-4 -6 -18 -29q-10 -14 -33 -18
h-43q-60 -8 -82 -10t-64 -25q-35 -12 -47 -10q-25 -12 -53 -52t-37 -48q0 -13 -8 -37q-3 -23 15 -55q18 -33 22 -42q71 -79 240 -143q8 -8 16 -14q45 -18 82 -45t42 -27z" />
    <glyph glyph-name="t" unicode="t" horiz-adv-x="856" 
d="M672 1274q4 0 11 2t11 2q-6 4 -14 12zM338 203q0 58 6 143v223l-2 121l2 125l-4 88v66q0 112 -5 193t-1 102q-14 0 -39 -4l-65 -7q-15 0 -23 -2l-60 2h-61q-27 -1 -46 9t-52 47q-14 16 0 34q79 11 119 20q41 9 53 11q47 0 65 4l29 2l98 2q57 4 87 2t111 3t167 -1h51
q8 -4 16 -10t54 4q14 -8 18 -37l12 -24q8 -18 4 -27q-10 -14 -22 -4q-23 -20 -55 -16q-4 0 -28 -4t-30 0v-2l-2 -4q-33 -2 -101 -6t-102 -5q-27 4 -71 9q-14 0 -10 -23t12 -53l-8 -10q10 -18 10 -105l6 -78q2 -20 -2 -73q4 -16 4 -50h-2v-4l2 -4l-2 -4q4 -23 8 -63l-4 -9
q2 -2 6 -8l2 -90l-2 -39v-22q0 -5 3 -15t-3 -20v-31q4 -28 4 -88v-39l-2 -78q0 -82 -6 -93q-6 -10 -6 -27v-109l2 -29q-3 -31 -2 -33l-4 -18q-2 -2 -9 -14t-24 -14q-18 -3 -26 5t-22 20q-14 11 -27 23q-12 12 -19 128v8z" />
    <glyph glyph-name="u" unicode="u" horiz-adv-x="813" 
d="M600 629q16 -6 15 1t-1 9q-12 -8 -14 -10zM84 547q0 33 -6 103t-2 110v102l-2 82q-2 20 -5 80t-8 98q5 -2 7 -3t4 -3q-8 14 -9 80l7 -4v10q-6 6 -7 39q-8 68 7 107q6 8 26 34q29 8 59 -2t38 -32l-3 -11q4 -115 5 -151q16 -78 13 -94t1 -36q4 -22 4 -36l6 -78l-2 -102
q0 -4 -1 -40t3 -40t-2 -31q0 -20 8 -76l8 -82q4 -40 7 -86q2 -46 28 -170l4 -22q0 -18 10 -43t13 -33q9 -35 51 -57q43 -23 47 -21q70 17 117 109q12 20 25 55l12 62v8q-2 16 3 45t5 35v16l2 47l8 86q11 92 16 191t8 135t3 53v55q6 69 6 140v96l4 98q0 8 4 16q33 10 56 -12
q23 -27 45 -18q37 -51 36 -96q2 -25 2 -74v-76l7 -109l-7 -127l5 -53q0 -20 -5 -65l-4 -111q-8 -100 -12 -227t-9 -147q-5 -21 -10 -57t-32 -58q-4 -2 -14 -40q-9 -37 -13 -46q-45 -56 -59 -70q-51 -29 -94 -29q-12 -2 -35 -2q-49 -6 -121 27q-63 33 -128 98
q-77 77 -109 274q-7 48 -12 70t-7 48q-2 28 -2 61z" />
    <glyph glyph-name="v" unicode="v" horiz-adv-x="706" 
d="M156 1177q0 1 -3 -1t-8 -5q0 -11 5 -14h2l6 19q-2 0 -2 1zM132 1110q-3 0 -5 -2q0 -2 -1 -8t-1 -10q6 4 12 10v12q-2 -2 -5 -2zM115 1282q6 -12 8 -18q6 6 10 14q-12 4 -18 4zM96 1145q4 0 13 4q0 -17 8 -21q2 2 2 8t2 9l-6 6q0 2 6 8h-12l-13 -4l-6 -12h4l3 -2
q-1 1 -1 4zM90 1227q0 2 2 4q-14 0 -17 2t-7 -2q0 -2 2 -6l18 -2q2 2 2 4zM78 1303l-2 14h-4q-2 -2 -2 -4l-2 -6q4 -4 8 -7zM78 1282l2 -10l-10 -2q0 -4 8 -19q6 4 22 13q0 4 2 8l-6 6l-8 -4l-8 10zM403 303q-2 2 -2 10t5 17q11 75 20 142q10 66 16 110q11 78 21 143
q11 64 22 138q11 75 19 117q8 40 12 80t9 77q9 65 46 202l13 56q2 12 20 11q18 0 42 -16t32 -38q10 -22 6 -37v-8q2 -23 -6 -51t-10 -48t-6 -41l-7 -61q-12 -84 -12 -111t-7 -60t-9 -63t-4 -41l-9 -59q0 -12 -2 -18v-11q-10 -31 -14 -96l-6 -31q-2 -12 -5 -38t-5 -39v-19
q-2 -18 -6 -28t-7 -42q-2 -32 -10 -51q-20 -50 -20 -90l-21 -114q-13 -78 -33 -146l-2 -2v-4l-16 -29v-2q-5 -6 -23 -13q-57 -22 -120 50q-4 5 -14 21t-22 28t-20 53t-27 125t-32 142t-25 109t-24 116q-12 45 -14 67t-6 32q-3 12 1 20h-6l-4 37q-17 133 -63 272
q-63 280 -41 295q6 4 15 2t30 -5t53 -24q8 -16 18 -31t15 -26q-2 0 -2 -2l20 -61q0 -4 12 -37t24 -94q13 -60 18 -82q4 -22 14 -67q10 -46 14 -55t10 -57l6 -30q2 -8 3 -20t4 -19q2 -6 7 -22t7 -22t5 -20t5 -20t4 -14t4 -13l31 -160q4 -29 3 -45t9 -22q5 -63 15 -94l12 -37
q4 -8 8 -13l12 11l-4 4q0 4 4 12z" />
    <glyph glyph-name="w" unicode="w" horiz-adv-x="1296" 
d="M1237 1055q0 -17 -2 -27t-4 -34t-6 -46q-4 -25 -15 -74t-13 -74q-1 -26 -13 -50q4 -53 -16 -119t-20 -89t-42 -208l-27 -105q0 -8 -7 -19t-14 -45t-10 -44t-14 -72q-12 -45 -12 -79t-29 -46q-8 -2 -28 -6v4q-7 -4 -17 -2t-67 27q-16 6 -43 43q-56 268 -100 462t-83 449
h-6l-12 -49l-9 -40q-5 -22 -5 -36q-1 -13 -9 -51q-8 -37 -11 -51t-12 -47t-11 -67t-19 -89q-16 -55 -22 -129q-5 -27 -11 -33q-6 -5 -12 -27t-12 -34t-9 -42t-9 -44t-19 -68q-16 -32 -18 -43l-5 -4q0 -17 -6 -46t-16 -34q-20 -4 -35 -8q-3 -16 -26 -20t-27 -5q-4 4 -20 12
t-28 20q-13 11 -40 91t-40 153t-34 183t-29 162q-9 53 -37 144t-36 151t-12 136t-19 158q-16 82 -17 100t5 34q25 8 59 -5t51 -44l39 -182v-11q12 -62 16 -78t9 -58q6 -42 13 -64t11 -101l13 -67q0 -17 5 -30q8 -21 15 -71t16 -87t16 -64t10 -37t5 -41t12 -61q9 -31 12 -63
t9 -48h6q2 8 9 30t17 80q11 58 16 79t14 63q8 42 16 74t25 118t26 129l43 234q39 193 74 303q14 47 80 10h24q6 -6 30 -21t27 -42q16 -14 17 -49l2 -37l2 -2v-7q-2 -14 12 -55t6 -63q23 -31 23 -125q5 -58 19 -107q14 -50 16 -89t6 -81t9 -66t6 -50t16 -105q2 -41 12 -75
t13 -48q3 -16 4 -23t7 -10l5 13q0 36 17 102t19 84t18 66q16 47 26 100q10 52 14 70t10 47t10 43l6 20v15q14 57 21 75l37 135q18 69 30 138q12 45 22 91t19 70h31q20 -12 33 -14q29 -10 43 -51q0 -13 -12 -41t-14 -56q-1 -28 -5 -34t-6 -20t-2 -29z" />
    <glyph glyph-name="x" unicode="x" horiz-adv-x="882" 
d="M180 1101q0 1 2 1l-6 12l-4 -4q4 -8 6 -10q2 0 2 1zM365 829l-11 21q-1 -21 11 -21zM35 1283q0 15 -4 40q29 23 59 4q4 -4 9 -4t15 -4t18 -11q9 -7 15 -10q51 -21 187 -276q53 -88 61 -107q19 -44 39 -57q8 12 21 33q39 87 53 110t20 36t27 46q12 25 43 92t46 89t15 28
q23 36 48 80q4 0 14 8t22 -12q12 -25 15 -39q18 -76 4 -119t-28 -69t-55 -108q-40 -82 -61 -122q-20 -39 -28 -55t-26 -50t-24 -48q-7 -14 -20 -35q10 -17 41 -69t80 -144t90 -178q41 -87 69 -142q52 -102 52 -137q-12 -18 -47 -18q-20 10 -23 10l-8 4q-25 2 -41 37
q-27 6 -43 35l-24 49q-27 49 -30 54t-6 15q-4 10 -22 43t-23 44q-10 22 -44 90l-20 40q-13 28 -25 50t-41 82q-15 -15 -76 -136q-61 -120 -83 -155q-30 -49 -46 -79q-17 -30 -60 -93q-43 -62 -59 -92l-37 -56q-8 0 -14 3q-20 55 -12 90t34 88q29 74 58 127l67 129
q7 18 25 53l32 63q13 29 22 54q10 26 28 64t22 48t11 23q-26 52 -50 76q-12 18 -41 59t-38 62q-10 22 -18 33t-27 40q-18 29 -37 57t-29 46t-32 53t-29 52t-19 44t-12 42z" />
    <glyph glyph-name="y" unicode="y" horiz-adv-x="763" 
d="M549 1212l2 -10h-10q2 -2 14 -8l8 8l-12 12zM524 1122q6 -8 17 -10q-2 4 -2 10q-8 4 -11 4zM553 797v-6q-12 -33 -18 -48l-7 -24q-2 -12 -10 -34q-8 -23 -14 -45t-10 -32q-3 -23 -14 -65q-11 -43 -15 -50t-10 -29q-5 -22 -9 -29t-4 -25q-8 -23 -10 -29q-4 0 -10 -6
q-12 -101 -33 -129q-6 -10 -9 -32t-5 -28v-4q-8 -6 -10 -23q-1 -17 -5 -25t-20 -71l-18 -67q-2 -6 -8 -20t-9 -23q-13 -22 -76 -35q-14 2 -13 42q3 109 20 149q10 60 18 92l12 48q3 16 11 49q28 116 53 228v11q-49 85 -64 128q-14 43 -19 57t-5 19v7q2 -2 6 -3v5q-2 2 -6 2
q-58 172 -66 189q-8 16 -28 74q-19 58 -32 105q-12 48 -19 68q-45 131 -54 248q-4 33 31 32q6 0 17 -2t15 -2l-2 -4q4 -4 14 -11t23 -32q15 -24 25 -51q16 -41 24 -71q9 -31 27 -74v-4h4l19 -56q-4 -4 -7 -8q2 0 5 -2h4l8 -16v-17l10 -20q9 -26 21 -58v-2q0 -10 15 -44
t18 -52q3 -19 19 -53q15 -33 24 -60t15 -47t13 -37q4 2 14 3q10 32 44 144t53 171q16 8 34 14v4l-18 9q-4 -6 -4 -7q-4 16 10 35l-2 2v2q4 16 6 23h6v-6l2 -2h2q0 3 11 14l-2 2h-17q4 4 4 2q14 61 21 74l8 8q-4 27 8 35q2 16 6 41h2q8 33 15 49q17 72 30 89t18 25t13 -1
q27 12 35 5q8 -8 20 -6t22 -18q9 -20 4 -37q-5 -16 -13 -42t-11 -34t-5 -18t-7 -26q-4 -15 -7 -33t-6 -28q-4 -14 -21 -62q-17 -47 -31 -107q-4 -4 -2 -10q-7 -29 -11 -43t-13 -36t-15 -56t-11 -48q-4 -14 -11 -38t-10 -30q-3 -7 -3 -11z" />
    <glyph glyph-name="z" unicode="z" horiz-adv-x="825" 
d="M745 1243q0 4 3 10l-5 4l-4 -2q-4 0 -6 2q-6 -6 -8 -12q2 0 10 -4l-6 -12q4 -8 6 -10l6 18q0 2 -2 4h4zM674 1294q0 7 -4 13h-4q-4 -2 -7 -2q5 -9 9 -13l2 2h4zM645 1292q6 6 8 11q-4 4 -8 6q0 -4 -2 -11v-4zM635 1286l-2 -8q2 0 10 4v6q-2 -2 -8 -2zM598 1282l8 -10
l-12 -4q4 -7 12 -11l10 31q-8 0 -12 -3t-6 -3zM254 152q79 -6 119 -2q92 0 139 2l98 2q41 0 46 -1t61 -24q4 -3 9 -23t13 -28t2 -29q-10 -23 -26 -24l-62 -21q-6 -2 -17 -5t-18 -5l-6 6q-4 -4 -8 -4l-100 8q-20 2 -55 2h-78l-58 2q-136 0 -178 12h-24q-14 0 -60 23
q-8 8 -15 30t-13 33q-4 18 4 30t23 41q15 28 33 53t153 290q33 74 63 125q29 51 43 77t36 63q22 36 32 53l30 61q41 61 69 113q29 52 49 86t22 38t2 7q0 4 2 6l-9 12q-24 0 -48 -7t-45 -2t-26 5l-143 2l-37 6l-32 -2q-12 2 -39 2l-25 2q-4 4 -14 6t-27 7l-4 10l-2 -2
q-23 8 -27 12q-26 31 -28 47q-2 15 -6 25t2 13q36 18 47 20q10 2 55 2l47 -2l74 -11l82 -2q36 0 64 6t36 7l45 2h13q77 11 119 16q42 4 72 -5t44 -13h4q7 -9 18 -20t11 -32l-12 -22q-18 -37 -27 -48q-8 -11 -12 -22q-8 -6 -16 -17t-20 -23q-11 -12 -11 -31q-2 -4 -11 -17
t-16 -30q-8 -17 -22 -39t-23 -39q-8 -16 -19 -32q-10 -15 -13 -21t-8 -10q-5 -5 -7 -10t-3 -8t-5 -8t-5 -8l-12 -24q-12 -25 -24 -49t-11 -45q-14 -23 -27 -59t-26 -46v-2q-24 -48 -28 -53q-3 -4 -9 -16q-23 -47 -38 -67t-15 -28l-4 -12l-37 -68q-4 -8 -12 -22
q-8 -15 -11 -21t-15 -21q-14 -19 -23 -39t-31 -54q-8 -32 -37 -68q0 -14 -4 -22h43z" />
    <glyph glyph-name="braceleft" unicode="{" horiz-adv-x="555" 
d="M311 580q-2 -2 -5 -2t-19 -21t-27 -35q-31 -37 -46 -84t-26 -74q-10 -26 -13 -48t-5 -51t-4 -55t4 -59t10 -42l19 -56q30 -46 39 -53q10 -6 12 -10t16 -15l37 -18q6 -2 19 -3t63 -26q31 -10 49 -4t45 -4v-6l2 -2l13 -4l16 -17q12 -25 -14 -45q-8 -4 -19 -14l-24 -2
q-6 2 -43 4t-56 10t-49 17q-88 18 -147 82q-50 51 -64 75q-46 84 -53 211q0 1 8 61t21 108q12 48 50 112q38 66 62 94l33 33q2 2 10 14q-8 7 -24 15q-126 67 -80 137q67 108 82 128l20 30l-30 24q-53 49 -88 94t-49 125q-23 136 34 260q6 18 37 78l25 43q23 37 43 53
q65 64 87 76t29 16q6 4 15 -1q45 -3 56 -13q12 -10 18 -17t8 -9q0 -14 -13 -15l-30 -12q-4 0 -9 -4l-30 -31q-63 -63 -74 -90t-18 -41t-11 -21q-4 -8 -6 -14t-5 -13t-3 -9l-19 -56q-2 -4 -5 -8t-7 -24t-8 -41l-8 -41q0 -18 4 -56l6 -43q0 -26 18 -56q18 -31 26 -39
q7 -8 33 -40q26 -33 61 -54t52 -38q0 -12 -11 -21t-25 -22l-15 -14q-84 -127 -98 -154l152 -98q-10 -20 -56 -53z" />
    <glyph glyph-name="bar" unicode="|" horiz-adv-x="260" 
d="M108 4q-26 0 -33 9t-10 15t-6 9h-2q-4 33 -9 49t-5 94l4 84v170l6 98v62l2 70q2 16 2 48t2 46l2 43l-2 102v41q2 33 2 80t-4 104l2 62l2 72q0 47 13 138l6 42q2 8 13 12t22 -8q6 0 17 -10t20 -17q9 -6 28 -33q4 -12 5 -34t-1 -26q-2 -3 2 -22q4 -20 3 -30t-1 -43l2 -27
q0 -18 5 -47l-2 -24q0 -9 8 -33v-15l2 -34v-2q-2 -13 1 -33t1 -34q-4 -31 4 -69v-4q-5 -7 2 -18t0 -25q0 -20 4 -32l-2 -23l-2 -57q0 -20 -2 -33v-88l2 -80v-53l-2 -37q4 -19 7 -29t-1 -26v-119l2 -56q0 -22 2 -32l-4 -33q2 -14 -2 -43v-74q-14 -28 -23 -37l-16 -8
q-10 -10 -25 -6t-41 4z" />
    <glyph glyph-name="braceright" unicode="}" horiz-adv-x="528" 
d="M94 -134q0 14 15 15q4 12 73 34t92 60q24 43 46 77t30 68t14 52q23 83 -6 199q-11 57 -64 122q-54 66 -58 70q-68 60 -76 68l8 8q-6 10 -12 24q-6 15 4 27t26 36t26 37t19 28q-8 14 -15 19t-17 15l-15 15q-12 16 -59 59l-35 35q-8 10 -24 47q4 6 11 19q7 12 14 22t27 50
l31 62q29 51 56 164q16 90 14 130t-18 93q-16 54 -84 134q-7 8 -15 15q-8 8 -18 16t-16 12q-27 2 -27 35q0 4 4 12q10 4 59 -14t72 -41q18 -14 52 -52t40 -54t26 -54q20 -39 21 -72l11 -88q-2 -23 -8 -49t-8 -49q-13 -100 -87 -225l-11 -22q-16 -29 -17 -32q5 -12 -3 -20
q-20 -21 76 -101l49 -55q7 -8 19 -24t20 -25q-6 -2 -6 -6l-37 -31q-4 -2 -49 -69l-4 -9q8 -8 14 -10q14 -14 19 -27t35 -37q29 -24 49 -42q39 -43 53 -82t29 -70q14 -33 20 -63q8 -41 8 -140l-4 -12q5 -5 -2 -33q-6 -27 -8 -33t-6 -19t-11 -31q-6 -18 -12 -26q-6 -9 -18 -33
l-18 -36q-13 -13 -13 -27q-8 -14 -15 -18t-40 -20q-33 -27 -37 -31q-69 -33 -89 -42t-41 1t-41 15q-18 5 -28 10t-10 19z" />
    <glyph glyph-name="quotesinglbase" unicode="&#x201a;" horiz-adv-x="362" 
d="M84 51q-29 7 -37 23t-4 28t14 39q47 70 115 68q35 -2 89 -46q53 -44 59 -109t-15 -120q-23 -104 -74 -155q-10 -2 -22 14q-25 34 -5 84q21 51 22 61t6 25q6 15 8 53t-1 60t-28 30q-25 10 -45 -1t-82 -54z" />
    </font>
</defs>
</svg>
