<svg id="Layer_1" data-name="Layer 1" xmlns="http://www.w3.org/2000/svg" viewBox="0 0 909.09 633.06"><defs><style>.cls-1{fill:none;}.cls-2{fill:#231f20;}</style></defs><title>Artboard 1</title><path class="cls-1" d="M611.75,264.68l-14,2v30.21l12.1-1.7c6.29-.88,9.09-4.3,9.09-11.08V271.71C618.89,265,616,264.08,611.75,264.68Z"/><path d="M170.58,305.26,115.77,313a4.12,4.12,0,0,0-3.46,4V439.14a2.94,2.94,0,0,0,3.46,3l54.81-7.71a4.11,4.11,0,0,0,3.46-4v-15.2a3,3,0,0,0-3.46-3l-34.73,4.89V380.36l21.89-3.07a4.12,4.12,0,0,0,3.46-4v-14.5a2.93,2.93,0,0,0-3.46-3l-21.89,3.07V332.27l34.73-4.88a4.12,4.12,0,0,0,3.46-3.95V308.23A2.93,2.93,0,0,0,170.58,305.26Z"/><path d="M263,292.27l-15.91,2.23a4.12,4.12,0,0,0-3.46,3.95v64.13l-2.76-5.7,0-.06-27.94-55.55a2.93,2.93,0,0,0-3.12-1.52l-13.61,1.91a4.12,4.12,0,0,0-3.46,3.95V427.84a2.93,2.93,0,0,0,3.46,3l15.91-2.23a4.12,4.12,0,0,0,3.46-3.95V356.31l3.32,6.47.05.07,29.17,58.78a2.94,2.94,0,0,0,3.07,1.45L263,421.42a4.12,4.12,0,0,0,3.47-3.95V295.24A2.94,2.94,0,0,0,263,292.27Z"/><path d="M329.37,335.66c-17.25-8.72-20.16-12.92-20.16-21.14,0-4.55,1.82-10.23,10.51-11.45,10.29-1.45,12.45,6,12.45,12.47V321a2.93,2.93,0,0,0,3.46,3l15.91-2.23a4.12,4.12,0,0,0,3.46-3.95v-7.6c0-19.63-14.29-31.33-34.76-28.46-20.68,2.91-34.57,18.33-34.57,38.38,0,19,15.4,29.12,28.84,35.83,15.16,7.44,17.83,14.9,17.83,23.15,0,7.57-4.29,14.58-12.1,15.68-5.35.75-12.45.22-12.45-13V376.3a2.93,2.93,0,0,0-3.46-3l-16.62,2.33a4.12,4.12,0,0,0-3.46,3.95v8.14c0,9.35,3.54,17.34,10,22.49s15.51,7.27,25.85,5.82c21.09-3,35.82-21.86,35.82-42.74C355.89,355.12,345.29,343.76,329.37,335.66Z"/><path d="M431.15,268.64l-54.81,7.7a4.12,4.12,0,0,0-3.46,4V402.52a3,3,0,0,0,3.46,3l54.81-7.71a4.11,4.11,0,0,0,3.46-3.94V378.64a2.93,2.93,0,0,0-3.46-3l-34.73,4.88V343.74l21.89-3.07a4.11,4.11,0,0,0,3.45-3.95v-14.5a2.93,2.93,0,0,0-3.45-3l-21.89,3.08V295.65l34.73-4.88a4.12,4.12,0,0,0,3.46-3.95V271.61A2.93,2.93,0,0,0,431.15,268.64Z"/><path d="M546.12,252.48l-22.79,3.2a4.17,4.17,0,0,0-3.39,3.22l-16.29,74.56-1.4,6.84-1.38-6.3-16.51-70.12a2.93,2.93,0,0,0-3.39-2.24l-22.91,3.22a4.11,4.11,0,0,0-3.46,3.94V391a2.93,2.93,0,0,0,3.46,3l14.86-2.09a4.1,4.1,0,0,0,3.45-3.94V323.25l15,63.39a2.93,2.93,0,0,0,3.37,2.22l14.2-2a4.14,4.14,0,0,0,3.38-3.15l15.15-67.06V380.8a2.93,2.93,0,0,0,3.46,3l15.21-2.14a4.1,4.1,0,0,0,3.46-3.94V255.46A2.94,2.94,0,0,0,546.12,252.48Z"/><path d="M633.11,300.71c6.08-5,9.15-12.47,9.15-22.39v-9.54c0-19.5-10.61-28.32-30.69-25.5l-34.12,4.8A4.13,4.13,0,0,0,574,252V374.26a2.94,2.94,0,0,0,3.47,3l35-4.92c20.3-2.85,31-14.67,31-34.17v-17C643.5,310.86,639.94,304,633.11,300.71Zm-14.22-16.63c0,6.78-2.8,10.2-9.09,11.08l-12.1,1.7V266.65l14-2c4.29-.6,7.14.36,7.14,7ZM597.7,317l13-1.82c6.21-.87,9.1,1.84,9.1,8.52v18.13c0,5.58-2.12,8.15-7.32,8.88l-14.76,2.07Z"/><path d="M721.36,334.88l-33.86,4.76V236.07a2.93,2.93,0,0,0-3.46-3l-16.62,2.33a4.12,4.12,0,0,0-3.46,3.95V361.61a3,3,0,0,0,3.46,3L721.36,357a4.11,4.11,0,0,0,3.45-3.95V337.85A2.93,2.93,0,0,0,721.36,334.88Z"/><path d="M796,240.61a4.1,4.1,0,0,0,3.45-3.94V221.46a2.93,2.93,0,0,0-3.45-3l-54.82,7.7a4.12,4.12,0,0,0-3.46,3.95V352.37a2.93,2.93,0,0,0,3.46,3l54.82-7.7a4.11,4.11,0,0,0,3.45-3.95v-15.2a2.93,2.93,0,0,0-3.45-3l-34.74,4.88v-36.8l21.89-3.07a4.12,4.12,0,0,0,3.46-3.95v-14.5a2.93,2.93,0,0,0-3.46-3l-21.89,3.07V245.49Z"/><path class="cls-2" d="M154.53,254l-6.14.86-4.77-11.4-4.06-11.55-4,12.8-4.67,12.61-6.14.86-14.1-36.41,8.12-1.14,9,26.43,9.32-29,4.72-.66,9.6,26.34,8.78-28.93,8.11-1.14Z"/><path class="cls-2" d="M199.77,240.4l-20.07,2.82-3.29,7.7L168.56,252l17.22-40.82,7.91-1.11,17.22,36-7.9,1.1Zm-10-21.68-7.13,17.35,14.27-2Z"/><path class="cls-2" d="M241.39,212.67c-1.31-2-4.94-3.59-9.1-3-5.37.75-7.95,3.36-7.95,6.22,0,3.34,3.94,3.72,8.55,3.62,8-.14,15.47.9,15.47,10.06,0,8.55-7.57,13.29-16.12,14.49-7.85,1.11-13.88-.46-16.73-7.08l6-4c1.7,4,6.14,5.22,10.8,4.57s8.83-2.83,8.83-7c0-3.62-3.78-4.57-8.88-4.4-7.84.17-15.08-.9-15.08-9.51,0-7.9,7.78-12.23,14.86-13.28,6-.84,12.17,0,15.08,5.51Z"/><path class="cls-2" d="M284.22,235.83V220.3L265.35,223v15.53l-7.24,1V201.1l7.24-1v16.19l18.87-2.66V197.43l7.18-1v38.39Z"/><path class="cls-2" d="M304.56,232.91V194.52l7.19-1V231.9Z"/><path class="cls-2" d="M349,188.22l7.23-1v38.44l-4.49.63v.06l-20.18-23.11v25.89l-7.24,1v-38.4l5.86-.82L349,212.08Z"/><path class="cls-2" d="M395.49,191.12a13.07,13.07,0,0,0-9.76-2.47c-8.23,1.16-13.22,8.11-13.22,16,0,6.31,3.67,12.32,13.22,11a14.75,14.75,0,0,0,8.66-4.29v-6.8l-9.82,1.38v-6.47L401,197.14v16.18a22.55,22.55,0,0,1-15.3,9.06c-14.43,2-20.3-6.63-20.3-16.73,0-10.8,6.75-21.73,20.3-23.63A17.94,17.94,0,0,1,400,185.88Z"/><path class="cls-2" d="M418.68,185.06l-12.18,1.71v-6.58l31.6-4.44v6.58l-12.18,1.72v31.81l-7.24,1Z"/><path class="cls-2" d="M483.23,188.82c-.11,10-6.2,20.73-19.69,22.63s-19.75-6.94-19.75-17,6.48-21.15,19.75-23S483.34,178.77,483.23,188.82Zm-32.31,4.71c.17,6.29,3.57,12.55,12.62,11.28s12.45-8.55,12.56-14.87c.11-6.49-3.51-13.22-12.56-11.95S450.76,187.08,450.92,193.53Z"/><path class="cls-2" d="M516.79,164.64l7.24-1v38.45l-4.5.63v.05l-20.19-23.1v25.89l-7.23,1V168.16l5.87-.82,18.81,21.16Z"/><path class="cls-2" d="M538.35,442,526,443.7V437l32.06-4.51v6.68l-12.35,1.74v32.29l-7.36,1Z"/><path class="cls-2" d="M593.23,466.59V450.84l-19.15,2.69v15.75l-7.34,1v-39l7.34-1v16.42l19.15-2.69V427.63l7.3-1v39Z"/><path class="cls-2" d="M640.66,459.87,611.49,464V425l29.17-4.1V428l-21.88,3.08v8.95l21.1-3V444l-21.1,3v8.8l21.88-3.07Z"/><path class="cls-2" d="M678.17,447.25l-20.37,2.87-3.34,7.81-8,1.12L664,417.63l8-1.13L689.47,453l-8,1.13Zm-10.19-22-7.23,17.6,14.47-2Z"/><path class="cls-2" d="M700.65,419.16l-12.36,1.73v-6.68l32.07-4.5v6.68L708,418.12v32.29l-7.35,1Z"/><path class="cls-2" d="M763.54,442.6l-8.74,1.23L743.45,432.4l-7.07,1v13l-7.35,1v-39c6.18-.87,12.36-1.68,18.54-2.55,9.18-1.23,14,4.21,14,10.94,0,5.35-2.45,11.09-9.84,13.63l11.79,11.65Zm-27.16-28.3v12.47l11.19-1.57c4.67-.66,6.68-4.06,6.68-7.17s-2.06-5.95-6.68-5.3Z"/><path class="cls-2" d="M799.78,437.51l-29.17,4.1v-39l29.17-4.1v7.13l-21.88,3.07v9l21.09-3v6.85l-21.09,3v8.8l21.88-3.08Z"/><path d="M671,91.09a3,3,0,0,0-.89-.65,2.74,2.74,0,0,0-2.83.27L569.8,162a2.81,2.81,0,0,0,.47,4.8l19.79,9.17-37.74,44.34a2.8,2.8,0,0,0,3.4,4.31h0a3.48,3.48,0,0,0,.36-.22L633.71,169a2.79,2.79,0,0,0-.45-4.81l-18.45-8.54,56.13-60.76A2.8,2.8,0,0,0,671,91.09Z"/><path d="M367.75,551.3a2.85,2.85,0,0,0,.9.64,2.7,2.7,0,0,0,2.82-.29L468.59,480a2.79,2.79,0,0,0,1.12-2.53,2.81,2.81,0,0,0-1.62-2.26l-19.83-9.08,37.53-44.51a2.8,2.8,0,0,0-3.41-4.3h0l-.36.22-77.38,55.74a2.79,2.79,0,0,0,.48,4.8l18.48,8.46-55.85,61A2.82,2.82,0,0,0,367.75,551.3Z"/></svg>